<svg width="170" height="390" viewBox="0 0 170 390" fill="none" xmlns="http://www.w3.org/2000/svg">
<g filter="url(#filter0_f_39_200304)">
<path d="M46.567 249.922L46.567 253.61C46.567 255.454 46.2034 257.215 45.4763 258.891C44.8051 260.512 43.8542 261.965 42.6236 263.25C41.3931 264.535 39.9388 265.569 38.2608 266.351C36.6388 267.078 34.8769 267.441 32.9751 267.441C31.353 267.441 29.703 267.218 28.025 266.771C26.347 266.323 24.8368 265.541 23.4944 264.423C22.152 263.306 21.0333 261.881 20.1384 260.148C19.2994 258.36 18.8799 256.097 18.8799 253.359L18.8799 220.5C18.8799 218.544 19.2155 216.728 19.8867 215.051C20.5579 213.375 21.5088 211.922 22.7393 210.692C23.9698 209.463 25.4241 208.513 27.1021 207.842C28.836 207.116 30.7378 206.753 32.8073 206.753C36.8345 206.753 40.1066 208.066 42.6237 210.692C43.8542 211.978 44.8051 213.514 45.4763 215.303C46.2034 217.035 46.567 218.935 46.567 221.003L46.567 224.356L38.0091 224.356L38.0091 221.506C38.0091 219.829 37.5337 218.376 36.5828 217.147C35.632 215.917 34.3455 215.303 32.7234 215.303C30.598 215.303 29.1716 215.973 28.4445 217.314C27.7733 218.6 27.4377 220.248 27.4377 222.26L27.4377 252.772C27.4377 254.504 27.8013 255.957 28.5284 257.131C29.3115 258.304 30.6818 258.891 32.6395 258.891C33.1988 258.891 33.7862 258.807 34.4014 258.64C35.0726 258.416 35.6879 258.081 36.2472 257.634C36.7506 257.187 37.1701 256.572 37.5057 255.79C37.8413 255.007 38.0091 254.029 38.0091 252.856L38.0091 249.922L46.567 249.922Z" fill="#FC6F2E"/>
<path d="M70.8331 246.066L66.6381 224.44L66.4703 224.44L62.2753 246.066L70.8331 246.066ZM49.6903 266.938L63.0304 207.256L70.1619 207.256L83.5021 266.938L74.9442 266.938L72.4272 254.113L60.7651 254.113L58.2481 266.938L49.6903 266.938Z" fill="#FC6F2E"/>
<path d="M96.2739 215.303L96.2739 233.912L101.14 233.912C102.65 233.912 103.853 233.716 104.748 233.325C105.643 232.878 106.342 232.263 106.845 231.481C107.293 230.698 107.6 229.748 107.768 228.631C107.936 227.457 108.02 226.116 108.02 224.607C108.02 223.098 107.936 221.785 107.768 220.667C107.6 219.494 107.265 218.488 106.761 217.65C105.699 216.085 103.685 215.303 100.721 215.303L96.2739 215.303ZM87.7161 266.938L87.7161 207.256L101.476 207.256C111.544 207.256 116.578 213.095 116.578 224.775C116.578 228.295 116.018 231.285 114.9 233.744C113.837 236.203 111.935 238.187 109.195 239.695L118.424 266.938L109.362 266.938L101.392 241.456L96.2739 241.456L96.2739 266.938L87.7161 266.938Z" fill="#FC6F2E"/>
<path d="M123.439 266.938L123.439 207.256L136.108 207.256C141.03 207.256 144.75 208.597 147.267 211.279C149.84 213.962 151.126 217.762 151.126 222.679L151.126 250.593C151.126 256.181 149.756 260.316 147.015 262.998C144.33 265.625 140.443 266.938 135.353 266.938L123.439 266.938ZM131.997 215.303L131.997 258.891L135.94 258.891C138.346 258.891 140.051 258.304 141.058 257.131C142.065 255.901 142.569 254.001 142.569 251.431L142.569 222.679C142.569 220.332 142.093 218.516 141.142 217.231C140.191 215.945 138.457 215.303 135.94 215.303L131.997 215.303Z" fill="#FC6F2E"/>
<path d="M53.3001 189.68L84.7822 141.326L116.021 189.68H151.876L104.361 119.141H66.2233L18.4658 189.68H53.3001Z" fill="#528BFF"/>
<path d="M65.8196 113.007L103.983 113.007L164.143 5.66528L85.1709 90.4626L6.19824 5.66528L65.8196 113.007Z" fill="#528BFF"/>
<path d="M31.3674 333.073H38.1388L52.4379 366.686H44.759L41.7107 359.205H27.6094L24.5611 366.686H17.0684L31.3674 333.073ZM39.0929 352.724L34.66 341.904L30.2272 352.724H39.0929Z" fill="#528BFF"/>
<path d="M57.6035 333.306H71.2394C73.2406 333.306 75.0323 333.585 76.603 334.143C78.1737 334.702 79.5117 335.481 80.6053 336.505C81.699 337.517 82.5483 338.739 83.1301 340.147C83.7234 341.566 84.0143 343.125 84.0143 344.847V344.94C84.0143 346.883 83.6653 348.582 82.9672 350.048C82.2691 351.514 81.3034 352.736 80.0818 353.725C78.8601 354.714 77.4291 355.447 75.7886 355.935C74.1481 356.435 72.3912 356.68 70.518 356.68H64.945V366.697H57.6035V333.306ZM70.7624 350.141C72.6007 350.141 74.0317 349.652 75.0556 348.687C76.0678 347.721 76.5797 346.523 76.5797 345.092V344.999C76.5797 343.346 76.0445 342.09 74.9858 341.229C73.9154 340.368 72.461 339.937 70.6228 339.937H64.945V350.141H70.7624Z" fill="#528BFF"/>
<path d="M89.4473 333.306H114.578V339.844H96.6957V346.616H112.437V353.143H96.6957V360.159H114.823V366.686H89.4473V333.306Z" fill="#528BFF"/>
<path d="M127.215 366.685L134.754 355.248L142.236 366.685H150.822L139.443 350.001H130.31L118.873 366.685H127.215Z" fill="#528BFF"/>
<path d="M130.251 348.234H139.315L153.602 322.696L134.847 342.87L116.092 322.696L130.251 348.234Z" fill="#528BFF"/>
<path d="M130.251 348.234H139.315L153.602 322.696L134.847 342.87L116.092 322.696L130.251 348.234Z" fill="#528BFF"/>
<path d="M148.184 377.477V377.462C148.184 375.88 149.463 374.556 151.075 374.556C152.687 374.556 153.966 375.873 153.966 377.448V377.462C153.966 379.045 152.687 380.368 151.075 380.368C149.463 380.368 148.184 379.052 148.184 377.477ZM153.633 377.462V377.448C153.633 376.035 152.539 374.874 151.075 374.874C149.611 374.874 148.516 376.057 148.516 377.47V377.485C148.516 378.897 149.611 380.058 151.075 380.058C152.539 380.058 153.633 378.875 153.633 377.462ZM149.943 375.932H151.274C151.925 375.932 152.406 376.25 152.406 376.863C152.406 377.344 152.125 377.647 151.725 377.758L152.509 378.875H151.829L151.134 377.862H150.52V378.875H149.958V375.932H149.943ZM151.223 377.396C151.607 377.396 151.822 377.196 151.822 376.915C151.822 376.597 151.607 376.435 151.223 376.435H150.505V377.396H151.223Z" fill="#528BFF"/>
<path d="M17.0693 374.963H23.6058V375.576H17.7496V379.214H23.0143V379.828H17.7496V383.533H23.6724V384.146H17.0693V374.963Z" fill="#528BFF"/>
<path d="M17.0693 374.963H23.6058V375.576H17.7496V379.214H23.0143V379.828H17.7496V383.533H23.6724V384.146H17.0693V374.963Z" fill="#528BFF"/>
<path d="M27.1777 374.963H27.821L34.1579 382.956V374.963H34.816V384.146H34.3058L27.8358 375.983V384.146H27.1777V374.963Z" fill="#528BFF"/>
<path d="M27.1777 374.963H27.821L34.1579 382.956V374.963H34.816V384.146H34.3058L27.8358 375.983V384.146H27.1777V374.963Z" fill="#528BFF"/>
<path d="M40.7964 375.577H37.5947V374.963H44.6858V375.577H41.4841V384.147H40.7964V375.577Z" fill="#528BFF"/>
<path d="M40.7964 375.577H37.5947V374.963H44.6858V375.577H41.4841V384.147H40.7964V375.577Z" fill="#528BFF"/>
<path d="M48.0723 374.963H54.6088V375.576H48.7525V379.214H54.0172V379.828H48.7525V383.533H54.6753V384.146H48.0723V374.963Z" fill="#528BFF"/>
<path d="M48.0723 374.963H54.6088V375.576H48.7525V379.214H54.0172V379.828H48.7525V383.533H54.6753V384.146H48.0723V374.963Z" fill="#528BFF"/>
<path d="M58.1816 374.963H62.0414C62.6108 374.963 63.1136 375.044 63.5498 375.207C63.9861 375.37 64.3484 375.591 64.6294 375.872C64.8512 376.094 65.0213 376.346 65.1396 376.641C65.2653 376.937 65.3245 377.248 65.3245 377.58V377.61C65.3245 377.995 65.2579 378.335 65.1248 378.638C64.9917 378.941 64.7995 379.2 64.5629 379.422C64.3262 379.643 64.0379 379.821 63.7125 379.954C63.3872 380.087 63.0249 380.183 62.6404 380.235L65.672 384.161H64.8069L61.8788 380.353H58.8693V384.161H58.189V374.963H58.1816ZM61.9601 379.725C62.3446 379.725 62.6995 379.68 63.0322 379.577C63.3576 379.481 63.6386 379.34 63.8752 379.163C64.1118 378.985 64.2967 378.764 64.4298 378.505C64.5629 378.246 64.6294 377.95 64.6294 377.617V377.595C64.6294 376.974 64.4002 376.479 63.9417 376.124C63.4833 375.761 62.8326 375.584 61.9897 375.584H58.8545L58.8545 379.732H61.9527L61.9601 379.725Z" fill="#528BFF"/>
<path d="M58.1816 374.963H62.0414C62.6108 374.963 63.1136 375.044 63.5498 375.207C63.9861 375.37 64.3484 375.591 64.6294 375.872C64.8512 376.094 65.0213 376.346 65.1396 376.641C65.2653 376.937 65.3245 377.248 65.3245 377.58V377.61C65.3245 377.995 65.2579 378.335 65.1248 378.638C64.9917 378.941 64.7995 379.2 64.5629 379.422C64.3262 379.643 64.0379 379.821 63.7125 379.954C63.3872 380.087 63.0249 380.183 62.6404 380.235L65.672 384.161H64.8069L61.8788 380.353H58.8693V384.161H58.189V374.963H58.1816ZM61.9601 379.725C62.3446 379.725 62.6995 379.68 63.0322 379.577C63.3576 379.481 63.6386 379.34 63.8752 379.163C64.1118 378.985 64.2967 378.764 64.4298 378.505C64.5629 378.246 64.6294 377.95 64.6294 377.617V377.595C64.6294 376.974 64.4002 376.479 63.9417 376.124C63.4833 375.761 62.8326 375.584 61.9897 375.584H58.8545L58.8545 379.732H61.9527L61.9601 379.725Z" fill="#528BFF"/>
<path d="M70.9224 375.577H67.7207V374.963H74.8118V375.577H71.6027V384.147H70.9224V375.577Z" fill="#528BFF"/>
<path d="M70.9224 375.577H67.7207V374.963H74.8118V375.577H71.6027V384.147H70.9224V375.577Z" fill="#528BFF"/>
<path d="M80.476 374.896H81.1341L85.4154 384.154H84.6685L83.5003 381.581H78.0803L76.912 384.154H76.2021L80.4834 374.896H80.476ZM83.2045 380.96L80.7866 375.643L78.3613 380.96H83.2045Z" fill="#528BFF"/>
<path d="M80.476 374.896H81.1341L85.4154 384.154H84.6685L83.5003 381.581H78.0803L76.912 384.154H76.2021L80.4834 374.896H80.476ZM83.2045 380.96L80.7866 375.643L78.3613 380.96H83.2045Z" fill="#528BFF"/>
<path d="M89.4371 374.963H88.7568V384.154H89.4371L89.4371 374.963Z" fill="#528BFF"/>
<path d="M89.4371 374.963H88.7568V384.154H89.4371L89.4371 374.963Z" fill="#528BFF"/>
<path d="M93.5771 374.963H94.2205L100.557 382.957V374.963H101.215V384.147H100.705L94.2278 375.984V384.147H93.5771V374.963Z" fill="#528BFF"/>
<path d="M93.5771 374.963H94.2205L100.557 382.957V374.963H101.215V384.147H100.705L94.2278 375.984V384.147H93.5771V374.963Z" fill="#528BFF"/>
<path d="M105.26 374.963H105.903L109.585 380.39L113.275 374.963H113.918V384.147H113.238V376.168L109.6 381.455H109.548L105.91 376.168V384.147H105.26V374.963Z" fill="#528BFF"/>
<path d="M105.26 374.963H105.903L109.585 380.39L113.275 374.963H113.918V384.147H113.238V376.168L109.6 381.455H109.548L105.91 376.168V384.147H105.26V374.963Z" fill="#528BFF"/>
<path d="M117.963 374.963H124.499V375.577H118.643V379.215H123.908V379.829H118.643V383.533H124.566V384.147H117.963V374.963Z" fill="#528BFF"/>
<path d="M117.963 374.963H124.499V375.577H118.643V379.215H123.908V379.829H118.643V383.533H124.566V384.147H117.963V374.963Z" fill="#528BFF"/>
<path d="M128.07 374.963H128.714L135.05 382.956V374.963H135.709V384.146H135.198L128.728 375.983V384.146H128.07V374.963Z" fill="#528BFF"/>
<path d="M128.07 374.963H128.714L135.05 382.956V374.963H135.709V384.146H135.198L128.728 375.983V384.146H128.07V374.963Z" fill="#528BFF"/>
<path d="M141.995 375.576H138.793V374.963H145.884V375.576H142.682V384.146H141.995V375.576Z" fill="#528BFF"/>
<path d="M141.995 375.576H138.793V374.963H145.884V375.576H142.682V384.146H141.995V375.576Z" fill="#528BFF"/>
</g>
<defs>
<filter id="filter0_f_39_200304" x="0.764956" y="0.231997" width="168.812" height="389.363" filterUnits="userSpaceOnUse" color-interpolation-filters="sRGB">
<feFlood flood-opacity="0" result="BackgroundImageFix"/>
<feBlend mode="normal" in="SourceGraphic" in2="BackgroundImageFix" result="shape"/>
<feGaussianBlur stdDeviation="2.71664" result="effect1_foregroundBlur_39_200304"/>
</filter>
</defs>
</svg>
