<svg width="141" height="64" viewBox="0 0 141 64" fill="none" xmlns="http://www.w3.org/2000/svg">
<path d="M15.2693 11.2531L22.1625 11.2519L36.7248 45.4669L28.9077 45.4683L25.8032 37.8531L11.4482 37.8555L8.34639 45.4718L0.718808 45.4731L15.2693 11.2531ZM23.1372 31.2564L18.6227 20.2422L14.112 31.2579L23.1372 31.2564Z" fill="#528BFF"/>
<path d="M41.9775 11.4856L55.8588 11.4832C57.896 11.4828 59.72 11.7668 61.3191 12.335C62.9181 12.9033 64.2803 13.6966 65.3938 14.7387C66.5074 15.7689 67.3722 17.0124 67.9646 18.4454C68.5689 19.8903 68.8653 21.4773 68.8656 23.2303L68.8656 23.325C68.866 25.303 68.5109 27.0323 67.8006 28.5248C67.0902 30.0172 66.1073 31.261 64.8639 32.268C63.6204 33.2749 62.1637 34.0214 60.4938 34.5191C58.8239 35.0287 57.0355 35.2777 55.1286 35.2781L49.4553 35.279L49.457 45.4768L41.9834 45.4781L41.9775 11.4856ZM55.3761 28.6217C57.2475 28.6213 58.7042 28.1236 59.7464 27.1404C60.7766 26.1572 61.2975 24.9371 61.2973 23.4803L61.2973 23.3855C61.297 21.7037 60.7519 20.4246 59.674 19.5483C58.5842 18.6721 57.1036 18.2341 55.2322 18.2344L49.4523 18.2354L49.4541 28.6227L55.3761 28.6217V28.6217Z" fill="#528BFF"/>
<path d="M74.3945 11.48L99.9777 11.4756L99.9789 18.1319L81.7745 18.1351L81.7757 25.0283L97.8008 25.0255L97.8019 31.6701L81.7769 31.6728L81.7781 38.8148L100.231 38.8116L100.232 45.4561L74.4004 45.4606L74.3945 11.48Z" fill="#528BFF"/>
<path d="M112.847 45.4541L120.52 33.8101L128.137 45.4515L136.878 45.45L125.292 28.4676L115.994 28.4692L104.354 45.4556L112.847 45.4541Z" fill="#528BFF"/>
<path d="M115.934 26.6691L125.161 26.6675L139.701 0.667225L120.612 21.2081L101.516 0.673828L115.934 26.6691Z" fill="#F4F4F4"/>
<path d="M115.934 26.6691L125.161 26.6675L139.701 0.667225L120.612 21.2081L101.516 0.673828L115.934 26.6691Z" fill="#528BFF"/>
<path d="M134.194 56.4364L134.194 56.4214C134.194 54.8105 135.496 53.4629 137.137 53.4626C138.777 53.4623 140.08 54.802 140.08 56.4053L140.08 56.4203C140.08 58.0312 138.778 59.3788 137.138 59.3791C135.497 59.3793 134.194 58.0397 134.194 56.4364ZM139.741 56.4204L139.741 56.4053C139.741 54.9676 138.627 53.786 137.137 53.7863C135.646 53.7866 134.532 54.9911 134.533 56.4288L134.533 56.4439C134.533 57.8816 135.647 59.0632 137.137 59.0629C138.628 59.0627 139.742 57.8581 139.741 56.4204ZM135.985 54.8629L137.34 54.8627C138.002 54.8625 138.492 55.1861 138.492 55.8109C138.492 56.3002 138.206 56.6088 137.799 56.7218L138.598 57.8583L137.905 57.8584L137.197 56.8273L136.573 56.8274L136.573 57.8587L136.001 57.8587L136 54.8629L135.985 54.8629ZM137.288 56.3531C137.679 56.353 137.897 56.1497 137.897 55.8637C137.897 55.54 137.679 55.3745 137.287 55.3745L136.557 55.3746L136.557 56.3532L137.288 56.3531Z" fill="white"/>
<path d="M0.719727 53.9001L7.37384 53.899L7.37395 54.5238L1.41234 54.5248L1.41298 58.2282L6.77241 58.2273L6.77252 58.852L1.41309 58.853L1.41374 62.6241L7.4431 62.6231L7.4432 63.2479L0.721343 63.249L0.719727 53.9001Z" fill="white"/>
<path d="M0.719727 53.9001L7.37384 53.899L7.37395 54.5238L1.41234 54.5248L1.41298 58.2282L6.77241 58.2273L6.77252 58.852L1.41309 58.853L1.41374 62.6241L7.4431 62.6231L7.4432 63.2479L0.721343 63.249L0.719727 53.9001Z" fill="white"/>
<path d="M11.0098 53.8984L11.6646 53.8983L18.1169 62.0342L18.1155 53.8972L18.7854 53.8971L18.7871 63.246L18.2677 63.2461L11.6799 54.9371L11.6813 63.2472L11.0114 63.2473L11.0098 53.8984Z" fill="white"/>
<path d="M11.0098 53.8984L11.6646 53.8983L18.1169 62.0342L18.1155 53.8972L18.7854 53.8971L18.7871 63.246L18.2677 63.2461L11.6799 54.9371L11.6813 63.2472L11.0114 63.2473L11.0098 53.8984Z" fill="white"/>
<path d="M24.8747 54.5209L21.6153 54.5215L21.6152 53.8967L28.8339 53.8955L28.834 54.5202L25.5747 54.5208L25.5762 63.2449L24.8762 63.245L24.8747 54.5209Z" fill="white"/>
<path d="M24.8747 54.5209L21.6153 54.5215L21.6152 53.8967L28.8339 53.8955L28.834 54.5202L25.5747 54.5208L25.5762 63.2449L24.8762 63.245L24.8747 54.5209Z" fill="white"/>
<path d="M32.2803 53.8955L38.9344 53.8944L38.9345 54.5191L32.9729 54.5202L32.9735 58.2236L38.3329 58.2226L38.3331 58.8474L32.9736 58.8483L32.9743 62.6195L39.0036 62.6185L39.0037 63.2432L32.2819 63.2444L32.2803 53.8955Z" fill="white"/>
<path d="M32.2803 53.8955L38.9344 53.8944L38.9345 54.5191L32.9729 54.5202L32.9735 58.2236L38.3329 58.2226L38.3331 58.8474L32.9736 58.8483L32.9743 62.6195L39.0036 62.6185L39.0037 63.2432L32.2819 63.2444L32.2803 53.8955Z" fill="white"/>
<path d="M42.5723 53.8938L46.5015 53.8931C47.0811 53.893 47.593 53.9757 48.0371 54.1413C48.4812 54.3068 48.8501 54.5325 49.1362 54.8185C49.3621 55.0443 49.5352 55.3002 49.6557 55.6013C49.7837 55.9023 49.844 56.2185 49.8441 56.5572L49.8441 56.5873C49.8442 56.9787 49.7765 57.325 49.641 57.6336C49.5056 57.9423 49.3099 58.2058 49.0691 58.4316C48.8283 58.6575 48.5347 58.8382 48.2035 58.9737C47.8724 59.1093 47.5035 59.2072 47.1121 59.26L50.199 63.2564L49.3183 63.2566L46.3369 59.3805L43.2733 59.3811L43.2739 63.2576L42.5814 63.2577L42.5798 53.8938L42.5723 53.8938ZM46.4195 58.7407C46.811 58.7406 47.1723 58.6954 47.511 58.59C47.8422 58.4921 48.1282 58.349 48.369 58.1683C48.6098 57.9876 48.798 57.7617 48.9334 57.4983C49.0689 57.2348 49.1366 56.9337 49.1365 56.595L49.1365 56.5724C49.1364 55.9401 48.903 55.4358 48.4362 55.0746C47.9695 54.7058 47.307 54.5253 46.4489 54.5254L43.2574 54.526L43.2581 58.7488L46.412 58.7482L46.4195 58.7407Z" fill="white"/>
<path d="M42.5723 53.8938L46.5015 53.8931C47.0811 53.893 47.593 53.9757 48.0371 54.1413C48.4812 54.3068 48.8501 54.5325 49.1362 54.8185C49.3621 55.0443 49.5352 55.3002 49.6557 55.6013C49.7837 55.9023 49.844 56.2185 49.8441 56.5572L49.8441 56.5873C49.8442 56.9787 49.7765 57.325 49.641 57.6336C49.5056 57.9423 49.3099 58.2058 49.0691 58.4316C48.8283 58.6575 48.5347 58.8382 48.2035 58.9737C47.8724 59.1093 47.5035 59.2072 47.1121 59.26L50.199 63.2564L49.3183 63.2566L46.3369 59.3805L43.2733 59.3811L43.2739 63.2576L42.5814 63.2577L42.5798 53.8938L42.5723 53.8938ZM46.4195 58.7407C46.811 58.7406 47.1723 58.6954 47.511 58.59C47.8422 58.4921 48.1282 58.349 48.369 58.1683C48.6098 57.9876 48.798 57.7617 48.9334 57.4983C49.0689 57.2348 49.1366 56.9337 49.1365 56.595L49.1365 56.5724C49.1364 55.9401 48.903 55.4358 48.4362 55.0746C47.9695 54.7058 47.307 54.5253 46.4489 54.5254L43.2574 54.526L43.2581 58.7488L46.412 58.7482L46.4195 58.7407Z" fill="white"/>
<path d="M55.5416 54.5158L52.2823 54.5164L52.2822 53.8916L59.5009 53.8904L59.501 54.5151L56.2342 54.5157L56.2357 63.2398L55.5432 63.2399L55.5416 54.5158Z" fill="white"/>
<path d="M55.5416 54.5158L52.2823 54.5164L52.2822 53.8916L59.5009 53.8904L59.501 54.5151L56.2342 54.5157L56.2357 63.2398L55.5432 63.2399L55.5416 54.5158Z" fill="white"/>
<path d="M65.2678 53.8215L65.9377 53.8214L70.2976 63.2448L69.5374 63.2449L68.3476 60.6256L62.8301 60.6266L61.6412 63.2463L60.9186 63.2464L65.2753 53.8215L65.2678 53.8215ZM68.0464 59.9934L65.584 54.5817L63.116 59.9943L68.0464 59.9934Z" fill="white"/>
<path d="M65.2678 53.8215L65.9377 53.8214L70.2976 63.2448L69.5374 63.2449L68.3476 60.6256L62.8301 60.6266L61.6412 63.2463L60.9186 63.2464L65.2753 53.8215L65.2678 53.8215ZM68.0464 59.9934L65.584 54.5817L63.116 59.9943L68.0464 59.9934Z" fill="white"/>
<path d="M74.3908 53.8876L73.6982 53.8877L73.6999 63.2441L74.3924 63.244L74.3908 53.8876Z" fill="white"/>
<path d="M74.3908 53.8876L73.6982 53.8877L73.6999 63.2441L74.3924 63.244L74.3908 53.8876Z" fill="white"/>
<path d="M78.6045 53.887L79.2594 53.8868L85.7116 62.0227L85.7102 53.8857L86.3802 53.8856L86.3818 63.2345L85.8624 63.2346L79.2671 54.9256L79.2685 63.2357L78.6061 63.2358L78.6045 53.887Z" fill="white"/>
<path d="M78.6045 53.887L79.2594 53.8868L85.7116 62.0227L85.7102 53.8857L86.3802 53.8856L86.3818 63.2345L85.8624 63.2346L79.2671 54.9256L79.2685 63.2357L78.6061 63.2358L78.6045 53.887Z" fill="white"/>
<path d="M90.4971 53.885L91.152 53.8849L94.9015 59.4093L98.6566 53.8836L99.3115 53.8835L99.3131 63.2324L98.6206 63.2325L98.6192 55.1106L94.9167 60.4932L94.864 60.4932L91.1597 55.1118L91.1611 63.2338L90.4987 63.2339L90.4971 53.885Z" fill="white"/>
<path d="M90.4971 53.885L91.152 53.8849L94.9015 59.4093L98.6566 53.8836L99.3115 53.8835L99.3131 63.2324L98.6206 63.2325L98.6192 55.1106L94.9167 60.4932L94.864 60.4932L91.1597 55.1118L91.1611 63.2338L90.4987 63.2339L90.4971 53.885Z" fill="white"/>
<path d="M103.429 53.8831L110.083 53.8819L110.083 54.5067L104.121 54.5077L104.122 58.2111L109.481 58.2102L109.482 58.835L104.122 58.8359L104.123 62.6071L110.152 62.606L110.152 63.2308L103.43 63.2319L103.429 53.8831Z" fill="white"/>
<path d="M103.429 53.8831L110.083 53.8819L110.083 54.5067L104.121 54.5077L104.122 58.2111L109.481 58.2102L109.482 58.835L104.122 58.8359L104.123 62.6071L110.152 62.606L110.152 63.2308L103.43 63.2319L103.429 53.8831Z" fill="white"/>
<path d="M113.719 53.8813L114.374 53.8812L120.826 62.0171L120.825 53.8801L121.494 53.88L121.496 63.2289L120.977 63.229L114.389 54.92L114.39 63.2301L113.72 63.2302L113.719 53.8813Z" fill="white"/>
<path d="M113.719 53.8813L114.374 53.8812L120.826 62.0171L120.825 53.8801L121.494 53.88L121.496 63.2289L120.977 63.229L114.389 54.92L114.39 63.2301L113.72 63.2302L113.719 53.8813Z" fill="white"/>
<path d="M127.893 54.5034L124.634 54.5039L124.634 53.8792L131.852 53.8779L131.853 54.5027L128.593 54.5032L128.595 63.2273L127.895 63.2275L127.893 54.5034Z" fill="white"/>
<path d="M127.893 54.5034L124.634 54.5039L124.634 53.8792L131.852 53.8779L131.853 54.5027L128.593 54.5032L128.595 63.2273L127.895 63.2275L127.893 54.5034Z" fill="white"/>
</svg>
