<svg width="181" height="84" viewBox="0 0 181 84" fill="none" xmlns="http://www.w3.org/2000/svg">
<path d="M18.9483 16.5996L27.8285 16.4801L47.1739 60.308L37.1037 60.4435L32.974 50.6865L14.4813 50.9354L10.6158 60.8001L0.789671 60.9324L18.9483 16.5996ZM29.4266 42.234L23.4223 28.1223L17.8 42.3905L29.4266 42.234Z" fill="#528BFF" fill-opacity="0.67"/>
<path d="M53.3604 16.4414L71.2427 16.2007C73.8671 16.1654 76.2217 16.4999 78.2914 17.2046C80.3611 17.9092 82.1295 18.9079 83.5819 20.2313C85.034 21.5394 86.1694 23.1265 86.9571 24.9625C87.7604 26.8135 88.1693 28.8529 88.1997 31.1111L88.2014 31.2331C88.2357 33.7812 87.8079 36.0151 86.9183 37.9499C86.0287 39.8847 84.7839 41.5039 83.1992 42.8223C81.6146 44.1408 79.7508 45.1274 77.6081 45.7972C75.4655 46.4822 73.1659 46.8336 70.7093 46.8667L63.4008 46.9651L63.5776 60.1022L53.9498 60.2318L53.3604 16.4414ZM70.9143 38.2874C73.3251 38.255 75.1932 37.5889 76.5189 36.3044C77.8293 35.0201 78.4795 33.4395 78.4542 31.5627L78.4525 31.4407C78.4234 29.2741 77.6993 27.6356 76.2957 26.5252C74.8767 25.415 72.9619 24.8762 70.5511 24.9086L63.1052 25.0089L63.2853 38.3901L70.9143 38.2874V38.2874Z" fill="#528BFF" fill-opacity="0.67"/>
<path d="M95.1201 15.8794L128.077 15.4357L128.193 24.0107L104.741 24.3264L104.861 33.2066L125.505 32.9287L125.62 41.4884L104.976 41.7663L105.1 50.9669L128.872 50.6469L128.987 59.2066L95.7094 59.6545L95.1201 15.8794Z" fill="#528BFF" fill-opacity="0.67"/>
<path d="M145.237 58.9885L154.923 43.8568L164.935 58.7234L176.196 58.5718L160.979 36.8927L149.002 37.054L134.297 59.1358L145.237 58.9885Z" fill="#528BFF" fill-opacity="0.67"/>
<path d="M148.894 34.7355L160.78 34.5755L179.066 0.831951L154.826 27.6204L129.874 1.49414L148.894 34.7355Z" fill="#F4F4F4"/>
<path d="M148.894 34.7355L160.78 34.5755L179.066 0.831951L154.826 27.6204L129.874 1.49414L148.894 34.7355Z" fill="#528BFF" fill-opacity="0.67"/>
<path d="M172.927 72.7697L172.926 72.7503C172.898 70.6752 174.553 68.9169 176.667 68.8884C178.78 68.86 180.481 70.5634 180.509 72.6289L180.509 72.6483C180.537 74.7234 178.883 76.4817 176.769 76.5102C174.655 76.5386 172.954 74.8352 172.927 72.7697ZM180.073 72.6541L180.073 72.6347C180.048 70.7826 178.592 69.2795 176.672 69.3054C174.752 69.3312 173.338 70.9021 173.363 72.7542L173.363 72.7736C173.388 74.6257 174.844 76.1288 176.764 76.1029C178.684 76.0771 180.098 74.5063 180.073 72.6541ZM175.207 70.712L176.953 70.6885C177.806 70.677 178.442 71.0855 178.453 71.8904C178.461 72.5207 178.098 72.9232 177.576 73.0757L178.624 74.5261L177.732 74.5381L176.802 73.2219L175.998 73.2327L176.015 74.5612L175.278 74.5711L175.227 70.7117L175.207 70.712ZM176.911 72.6094C177.415 72.6026 177.692 72.337 177.688 71.9685C177.682 71.5516 177.398 71.342 176.894 71.3488L175.953 71.3615L175.97 72.6221L176.911 72.6094V72.6094Z" fill="white"/>
<path d="M0.935547 71.7876L9.50763 71.6722L9.51846 72.4771L1.8385 72.5804L1.90272 77.3513L8.80694 77.2584L8.81777 78.0632L1.91355 78.1562L1.97895 83.0143L9.74619 82.9098L9.75703 83.7146L1.09767 83.8312L0.935547 71.7876Z" fill="white"/>
<path d="M0.935547 71.7876L9.50763 71.6722L9.51846 72.4771L1.8385 72.5804L1.90272 77.3513L8.80694 77.2584L8.81777 78.0632L1.91355 78.1562L1.97895 83.0143L9.74619 82.9098L9.75703 83.7146L1.09767 83.8312L0.935547 71.7876Z" fill="white"/>
<path d="M14.1924 71.6094L15.036 71.598L23.4874 81.9685L23.3463 71.4862L24.2093 71.4745L24.3714 83.5181L23.7023 83.5271L15.0734 72.9359L15.2175 83.6413L14.3545 83.653L14.1924 71.6094Z" fill="white"/>
<path d="M14.1924 71.6094L15.036 71.598L23.4874 81.9685L23.3463 71.4862L24.2093 71.4745L24.3714 83.5181L23.7023 83.5271L15.0734 72.9359L15.2175 83.6413L14.3545 83.653L14.1924 71.6094Z" fill="white"/>
<path d="M32.0631 72.1736L27.8643 72.2301L27.8535 71.4253L37.1529 71.3001L37.1637 72.105L32.9649 72.1615L33.1162 83.4002L32.2144 83.4124L32.0631 72.1736Z" fill="white"/>
<path d="M32.0631 72.1736L27.8643 72.2301L27.8535 71.4253L37.1529 71.3001L37.1637 72.105L32.9649 72.1615L33.1162 83.4002L32.2144 83.4124L32.0631 72.1736Z" fill="white"/>
<path d="M41.5938 71.2407L50.1658 71.1253L50.1767 71.9302L42.4967 72.0336L42.5609 76.8044L49.4651 76.7115L49.476 77.5164L42.5718 77.6093L42.6372 82.4675L50.4044 82.3629L50.4152 83.1677L41.7559 83.2843L41.5938 71.2407Z" fill="white"/>
<path d="M41.5938 71.2407L50.1658 71.1253L50.1767 71.9302L42.4967 72.0336L42.5609 76.8044L49.4651 76.7115L49.476 77.5164L42.5718 77.6093L42.6372 82.4675L50.4044 82.3629L50.4152 83.1677L41.7559 83.2843L41.5938 71.2407Z" fill="white"/>
<path d="M54.8516 71.062L59.9134 70.9939C60.66 70.9838 61.3208 71.0816 61.8958 71.2872C62.4708 71.4929 62.9499 71.7774 63.3233 72.1409C63.6182 72.4279 63.8456 72.7546 64.006 73.1404C64.1761 73.526 64.2591 73.9323 64.265 74.3686L64.2655 74.4074C64.2723 74.9117 64.191 75.3589 64.0219 75.7588C63.8527 76.1587 63.6051 76.5015 63.2987 76.7966C62.9923 77.0917 62.6173 77.3295 62.193 77.5098C61.7687 77.6901 61.2952 77.8225 60.7919 77.8972L64.8369 82.9928L63.7024 83.008L59.7952 78.0658L55.8485 78.1189L55.9158 83.1128L55.0236 83.1249L54.8613 71.0619L54.8516 71.062ZM59.8908 77.2401C60.395 77.2333 60.8597 77.1689 61.2942 77.0273C61.7192 76.8955 62.0852 76.7063 62.3923 76.4694C62.6995 76.2325 62.938 75.9383 63.108 75.5965C63.278 75.2548 63.36 74.8657 63.3541 74.4294L63.3538 74.4003C63.3428 73.5857 63.0334 72.9401 62.426 72.4827C61.8184 72.0157 60.9619 71.7944 59.8564 71.8093L55.745 71.8647L55.8182 77.3047L59.8812 77.25L59.8908 77.2401Z" fill="white"/>
<path d="M54.8516 71.062L59.9134 70.9939C60.66 70.9838 61.3208 71.0816 61.8958 71.2872C62.4708 71.4929 62.9499 71.7774 63.3233 72.1409C63.6182 72.4279 63.8456 72.7546 64.006 73.1404C64.1761 73.526 64.2591 73.9323 64.265 74.3686L64.2655 74.4074C64.2723 74.9117 64.191 75.3589 64.0219 75.7588C63.8527 76.1587 63.6051 76.5015 63.2987 76.7966C62.9923 77.0917 62.6173 77.3295 62.193 77.5098C61.7687 77.6901 61.2952 77.8225 60.7919 77.8972L64.8369 82.9928L63.7024 83.008L59.7952 78.0658L55.8485 78.1189L55.9158 83.1128L55.0236 83.1249L54.8613 71.0619L54.8516 71.062ZM59.8908 77.2401C60.395 77.2333 60.8597 77.1689 61.2942 77.0273C61.7192 76.8955 62.0852 76.7063 62.3923 76.4694C62.6995 76.2325 62.938 75.9383 63.108 75.5965C63.278 75.2548 63.36 74.8657 63.3541 74.4294L63.3538 74.4003C63.3428 73.5857 63.0334 72.9401 62.426 72.4827C61.8184 72.0157 60.9619 71.7944 59.8564 71.8093L55.745 71.8647L55.8182 77.3047L59.8812 77.25L59.8908 77.2401Z" fill="white"/>
<path d="M71.5709 71.6419L67.3722 71.6984L67.3613 70.8936L76.6607 70.7684L76.6715 71.5732L72.463 71.6299L72.6143 82.8686L71.7222 82.8806L71.5709 71.6419Z" fill="white"/>
<path d="M71.5709 71.6419L67.3722 71.6984L67.3613 70.8936L76.6607 70.7684L76.6715 71.5732L72.463 71.6299L72.6143 82.8686L71.7222 82.8806L71.5709 71.6419Z" fill="white"/>
<path d="M84.0872 70.5813L84.9503 70.5697L90.7282 82.6346L89.7488 82.6478L88.1713 79.2939L81.0635 79.3896L79.5768 82.7848L78.6459 82.7973L84.097 70.5812L84.0872 70.5813ZM87.7725 78.4846L84.5077 71.5552L81.421 78.5701L87.7725 78.4846Z" fill="white"/>
<path d="M84.0872 70.5813L84.9503 70.5697L90.7282 82.6346L89.7488 82.6478L88.1713 79.2939L81.0635 79.3896L79.5768 82.7848L78.6459 82.7973L84.097 70.5812L84.0872 70.5813ZM87.7725 78.4846L84.5077 71.5552L81.421 78.5701L87.7725 78.4846Z" fill="white"/>
<path d="M95.8413 70.51L94.9492 70.522L95.1115 82.5753L96.0036 82.5632L95.8413 70.51Z" fill="white"/>
<path d="M95.8413 70.51L94.9492 70.522L95.1115 82.5753L96.0036 82.5632L95.8413 70.51Z" fill="white"/>
<path d="M101.27 70.4375L102.113 70.4261L110.565 80.7967L110.423 70.3143L111.286 70.3027L111.449 82.3462L110.779 82.3552L102.141 71.7642L102.285 82.4696L101.432 82.4811L101.27 70.4375Z" fill="white"/>
<path d="M101.27 70.4375L102.113 70.4261L110.565 80.7967L110.423 70.3143L111.286 70.3027L111.449 82.3462L110.779 82.3552L102.141 71.7642L102.285 82.4696L101.432 82.4811L101.27 70.4375Z" fill="white"/>
<path d="M116.591 70.2314L117.434 70.2201L122.359 77.2726L127.102 70.0899L127.946 70.0786L128.108 82.1222L127.216 82.1342L127.075 71.6712L122.398 78.6687L122.33 78.6696L117.465 71.8006L117.606 82.2635L116.753 82.275L116.591 70.2314Z" fill="white"/>
<path d="M116.591 70.2314L117.434 70.2201L122.359 77.2726L127.102 70.0899L127.946 70.0786L128.108 82.1222L127.216 82.1342L127.075 71.6712L122.398 78.6687L122.33 78.6696L117.465 71.8006L117.606 82.2635L116.753 82.275L116.591 70.2314Z" fill="white"/>
<path d="M133.25 70.0068L141.822 69.8914L141.833 70.6963L134.153 70.7997L134.217 75.5706L141.121 75.4776L141.132 76.2825L134.228 76.3754L134.293 81.2336L142.061 81.129L142.071 81.9339L133.412 82.0504L133.25 70.0068Z" fill="white"/>
<path d="M133.25 70.0068L141.822 69.8914L141.833 70.6963L134.153 70.7997L134.217 75.5706L141.121 75.4776L141.132 76.2825L134.228 76.3754L134.293 81.2336L142.061 81.129L142.071 81.9339L133.412 82.0504L133.25 70.0068Z" fill="white"/>
<path d="M146.506 69.8281L147.35 69.8168L155.801 80.1873L155.66 69.7049L156.523 69.6933L156.685 81.7369L156.016 81.7459L147.387 71.1547L147.531 81.8601L146.668 81.8717L146.506 69.8281Z" fill="white"/>
<path d="M146.506 69.8281L147.35 69.8168L155.801 80.1873L155.66 69.7049L156.523 69.6933L156.685 81.7369L156.016 81.7459L147.387 71.1547L147.531 81.8601L146.668 81.8717L146.506 69.8281Z" fill="white"/>
<path d="M164.777 70.3875L160.578 70.444L160.567 69.6392L169.867 69.514L169.878 70.3188L165.679 70.3753L165.83 81.6141L164.928 81.6262L164.777 70.3875Z" fill="white"/>
<path d="M164.777 70.3875L160.578 70.444L160.567 69.6392L169.867 69.514L169.878 70.3188L165.679 70.3753L165.83 81.6141L164.928 81.6262L164.777 70.3875Z" fill="white"/>
</svg>
