<svg width="218" height="503" viewBox="0 0 218 503" fill="none" xmlns="http://www.w3.org/2000/svg">
<g filter="url(#filter0_f_1584_27987)">
<path d="M58.964 322.095L58.9568 326.847C58.9532 329.223 58.4813 331.49 57.5413 333.648C56.6733 335.735 55.4454 337.605 53.8575 339.258C52.2697 340.912 50.394 342.241 48.2306 343.246C46.1394 344.178 43.8687 344.643 41.4186 344.639C39.3288 344.636 37.2034 344.345 35.0424 343.765C32.8814 343.186 30.9373 342.175 29.21 340.733C27.4827 339.29 26.0442 337.452 24.8946 335.218C23.8172 332.913 23.2812 329.996 23.2866 326.468L23.351 284.134C23.3548 281.615 23.7907 279.275 24.6588 277.117C25.5268 274.958 26.7547 273.088 28.3425 271.507C29.9303 269.925 31.8057 268.704 33.9689 267.843C36.2043 266.911 38.6551 266.447 41.3214 266.451C46.5099 266.459 50.7229 268.157 53.9606 271.546C55.5434 273.204 56.7655 275.186 57.6267 277.491C58.5601 279.724 59.0248 282.173 59.0207 284.837L59.0142 289.156L47.9887 289.14L47.9943 285.468C47.9975 283.308 47.3879 281.435 46.1652 279.849C44.9426 278.264 43.2863 277.469 41.1965 277.466C38.4582 277.462 36.6193 278.323 35.6798 280.049C34.8126 281.704 34.377 283.827 34.373 286.419L34.3132 325.729C34.3098 327.961 34.7754 329.834 35.7099 331.347C36.7165 332.861 38.4808 333.619 41.003 333.623C41.7236 333.624 42.4804 333.517 43.2734 333.302C44.1386 333.016 44.932 332.585 45.6535 332.01C46.3029 331.435 46.8446 330.644 47.2785 329.637C47.7124 328.629 47.9305 327.37 47.9328 325.858L47.9385 322.078L58.964 322.095Z" fill="white"/>
<path d="M90.235 317.175L84.8728 289.304L84.6566 289.304L79.2095 317.158L90.235 317.175ZM62.9546 344.024L80.2584 267.158L89.4464 267.172L106.516 344.09L95.4907 344.073L92.273 327.545L77.2481 327.522L73.9801 344.041L62.9546 344.024Z" fill="white"/>
<path d="M123.072 277.591L123.036 301.565L129.305 301.575C131.251 301.578 132.8 301.328 133.954 300.826C135.108 300.252 136.01 299.461 136.66 298.454C137.238 297.447 137.636 296.224 137.855 294.784C138.073 293.273 138.184 291.545 138.187 289.601C138.19 287.657 138.084 285.965 137.87 284.525C137.656 283.012 137.226 281.716 136.579 280.635C135.213 278.617 132.62 277.605 128.801 277.599L123.072 277.591ZM111.945 344.098L112.062 267.206L129.79 267.233C142.761 267.253 149.235 274.786 149.212 289.834C149.205 294.369 148.479 298.22 147.033 301.386C145.659 304.552 143.205 307.104 139.671 309.042L151.507 344.159L139.833 344.141L129.614 311.295L123.021 311.285L122.971 344.115L111.945 344.098Z" fill="white"/>
<path d="M157.969 344.168L158.086 267.276L174.408 267.301C180.75 267.311 185.539 269.046 188.777 272.507C192.087 275.968 193.737 280.866 193.727 287.202L193.672 323.164C193.661 330.363 191.888 335.688 188.351 339.139C184.887 342.518 179.876 344.202 173.319 344.192L157.969 344.168ZM169.096 277.661L169.011 333.818L174.091 333.826C177.19 333.83 179.389 333.078 180.688 331.568C181.988 329.986 182.64 327.539 182.645 324.227L182.701 287.185C182.706 284.161 182.097 281.82 180.874 280.162C179.652 278.505 177.419 277.673 174.176 277.668L169.096 277.661Z" fill="white"/>
<path d="M67.7582 244.494L108.413 182.259L148.565 244.617L194.759 244.688L133.681 153.716L84.5461 153.641L22.8793 244.426L67.7582 244.494Z" fill="white"/>
<path d="M84.0376 145.738L133.206 145.813L210.924 7.63675L109.013 116.731L7.43457 7.32715L84.0376 145.738Z" fill="white"/>
<path d="M39.2181 429.192L47.9421 429.205L66.2985 472.538L56.4053 472.523L52.4927 462.879L34.3253 462.851L30.3833 472.484L20.73 472.469L39.2181 429.192ZM49.1327 454.525L43.4429 440.576L37.7106 454.507L49.1327 454.525Z" fill="white"/>
<path d="M73.0195 429.543L90.5874 429.57C93.1656 429.574 95.4734 429.937 97.4959 430.66C99.5184 431.383 101.241 432.389 102.648 433.711C104.055 435.017 105.147 436.593 105.893 438.407C106.655 440.237 107.027 442.246 107.023 444.465L107.023 444.585C107.019 447.088 106.566 449.276 105.664 451.163C104.762 453.051 103.515 454.623 101.939 455.894C100.364 457.166 98.5184 458.108 96.404 458.734C94.2894 459.375 92.0255 459.687 89.6122 459.683L82.4322 459.672L82.4125 472.578L72.9541 472.564L73.0195 429.543ZM89.9398 451.259C92.3082 451.263 94.1528 450.636 95.4738 449.394C96.7798 448.152 97.4417 446.609 97.4445 444.765L97.4447 444.645C97.4479 442.517 96.7609 440.897 95.3985 439.785C94.0211 438.674 92.1483 438.117 89.7799 438.113L82.465 438.102L82.445 451.248L89.9398 451.259Z" fill="white"/>
<path d="M114.045 429.606L146.423 429.655L146.41 438.079L123.371 438.044L123.357 446.768L143.638 446.799L143.626 455.208L123.345 455.177L123.331 464.216L146.685 464.252L146.672 472.661L113.979 472.611L114.045 429.606Z" fill="white"/>
<path d="M162.638 472.685L172.373 457.965L181.989 472.714L193.052 472.731L178.425 451.214L166.658 451.196L151.89 472.668L162.638 472.685Z" fill="white"/>
<path d="M166.585 448.918L178.262 448.936L196.719 416.061L172.516 442.017L148.393 415.988L166.585 448.918Z" fill="white"/>
<path d="M166.585 448.918L178.262 448.936L196.719 416.061L172.516 442.017L148.393 415.988L166.585 448.918Z" fill="white"/>
<path d="M189.63 486.629L189.63 486.61C189.633 484.571 191.284 482.868 193.361 482.871C195.437 482.875 197.083 484.573 197.08 486.602L197.08 486.621C197.077 488.66 195.426 490.362 193.349 490.359C191.272 490.356 189.627 488.658 189.63 486.629ZM196.651 486.62L196.651 486.601C196.654 484.782 195.246 483.284 193.36 483.281C191.474 483.278 190.061 484.8 190.059 486.62L190.059 486.639C190.056 488.458 191.464 489.956 193.35 489.959C195.236 489.962 196.648 488.44 196.651 486.62ZM191.9 484.641L193.615 484.644C194.453 484.645 195.072 485.056 195.071 485.846C195.07 486.465 194.707 486.855 194.193 486.998L195.2 488.438L194.324 488.436L193.43 487.13L192.64 487.129L192.638 488.434L191.914 488.433L191.919 484.641L191.9 484.641ZM193.546 486.53C194.041 486.531 194.318 486.274 194.318 485.912C194.319 485.502 194.043 485.292 193.547 485.291L192.623 485.29L192.621 486.528L193.546 486.53Z" fill="white"/>
<path d="M20.7139 483.133L29.1352 483.146L29.134 483.937L21.5891 483.925L21.582 488.612L28.3647 488.623L28.3635 489.413L21.5808 489.403L21.5735 494.176L29.2041 494.187L29.2029 494.978L20.6959 494.965L20.7139 483.133Z" fill="white"/>
<path d="M20.7139 483.133L29.1352 483.146L29.134 483.937L21.5891 483.925L21.582 488.612L28.3647 488.623L28.3635 489.413L21.5808 489.403L21.5735 494.176L29.2041 494.187L29.2029 494.978L20.6959 494.965L20.7139 483.133Z" fill="white"/>
<path d="M33.7373 483.153L34.5661 483.154L42.7145 493.465L42.7302 483.167L43.578 483.168L43.56 495L42.9027 494.999L34.5832 484.469L34.5671 494.986L33.7193 494.985L33.7373 483.153Z" fill="white"/>
<path d="M33.7373 483.153L34.5661 483.154L42.7145 493.465L42.7302 483.167L43.578 483.168L43.56 495L42.9027 494.999L34.5832 484.469L34.5671 494.986L33.7193 494.985L33.7373 483.153Z" fill="white"/>
<path d="M51.2819 483.97L47.157 483.964L47.1582 483.173L56.294 483.187L56.2928 483.978L52.1679 483.972L52.1511 495.013L51.2651 495.011L51.2819 483.97Z" fill="white"/>
<path d="M51.2819 483.97L47.157 483.964L47.1582 483.173L56.294 483.187L56.2928 483.978L52.1679 483.972L52.1511 495.013L51.2651 495.011L51.2819 483.97Z" fill="white"/>
<path d="M60.6562 483.194L69.0776 483.207L69.0764 483.997L61.5315 483.986L61.5243 488.673L68.3071 488.683L68.3059 489.474L61.5231 489.464L61.5159 494.236L69.1465 494.248L69.1453 495.039L60.6382 495.026L60.6562 483.194Z" fill="white"/>
<path d="M60.6562 483.194L69.0776 483.207L69.0764 483.997L61.5315 483.986L61.5243 488.673L68.3071 488.683L68.3059 489.474L61.5231 489.464L61.5159 494.236L69.1465 494.248L69.1453 495.039L60.6382 495.026L60.6562 483.194Z" fill="white"/>
<path d="M73.6807 483.214L78.6534 483.221C79.387 483.223 80.0346 483.328 80.5963 483.539C81.1581 483.749 81.6244 484.036 81.9859 484.398C82.2712 484.684 82.4899 485.009 82.6417 485.39C82.8031 485.771 82.8787 486.172 82.878 486.6L82.878 486.638C82.8772 487.134 82.7908 487.572 82.6187 487.962C82.4467 488.352 82.1985 488.685 81.8932 488.971C81.5879 489.256 81.216 489.484 80.7966 489.655C80.3772 489.826 79.9102 489.949 79.4147 490.015L83.3129 495.079L82.1983 495.078L78.4333 490.166L74.5561 490.16L74.5486 495.066L73.6722 495.065L73.6902 483.214L73.6807 483.214ZM78.5393 489.356C79.0347 489.357 79.492 489.301 79.9209 489.168C80.3403 489.045 80.7025 488.864 81.0077 488.636C81.3129 488.408 81.5515 488.122 81.7235 487.789C81.8955 487.456 81.9818 487.075 81.9825 486.646L81.9825 486.618C81.9837 485.818 81.6894 485.179 81.0994 484.721C80.5095 484.253 79.6715 484.023 78.5855 484.022L74.5464 484.015L74.5382 489.36L78.5298 489.366L78.5393 489.356Z" fill="white"/>
<path d="M73.6807 483.214L78.6534 483.221C79.387 483.223 80.0346 483.328 80.5963 483.539C81.1581 483.749 81.6244 484.036 81.9859 484.398C82.2712 484.684 82.4899 485.009 82.6417 485.39C82.8031 485.771 82.8787 486.172 82.878 486.6L82.878 486.638C82.8772 487.134 82.7908 487.572 82.6187 487.962C82.4467 488.352 82.1985 488.685 81.8932 488.971C81.5879 489.256 81.216 489.484 80.7966 489.655C80.3772 489.826 79.9102 489.949 79.4147 490.015L83.3129 495.079L82.1983 495.078L78.4333 490.166L74.5561 490.16L74.5486 495.066L73.6722 495.065L73.6902 483.214L73.6807 483.214ZM78.5393 489.356C79.0347 489.357 79.492 489.301 79.9209 489.168C80.3403 489.045 80.7025 488.864 81.0077 488.636C81.3129 488.408 81.5515 488.122 81.7235 487.789C81.8955 487.456 81.9818 487.075 81.9825 486.646L81.9825 486.618C81.9837 485.818 81.6894 485.179 81.0994 484.721C80.5095 484.253 79.6715 484.023 78.5855 484.022L74.5464 484.015L74.5382 489.36L78.5298 489.366L78.5393 489.356Z" fill="white"/>
<path d="M90.0944 484.029L85.9695 484.023L85.9707 483.232L95.1065 483.246L95.1053 484.037L90.9708 484.031L90.954 495.072L90.0776 495.07L90.0944 484.029Z" fill="white"/>
<path d="M90.0944 484.029L85.9695 484.023L85.9707 483.232L95.1065 483.246L95.1053 484.037L90.9708 484.031L90.954 495.072L90.0776 495.07L90.0944 484.029Z" fill="white"/>
<path d="M102.405 483.171L103.253 483.173L108.75 495.108L107.788 495.107L106.288 491.789L99.305 491.779L97.7948 495.091L96.8803 495.09L102.414 483.171L102.405 483.171ZM105.908 490.988L102.803 484.134L99.6683 490.979L105.908 490.988Z" fill="white"/>
<path d="M102.405 483.171L103.253 483.173L108.75 495.108L107.788 495.107L106.288 491.789L99.305 491.779L97.7948 495.091L96.8803 495.09L102.414 483.171L102.405 483.171ZM105.908 490.988L102.803 484.134L99.6683 490.979L105.908 490.988Z" fill="white"/>
<path d="M113.95 483.275L113.073 483.274L113.055 495.115L113.932 495.117L113.95 483.275Z" fill="white"/>
<path d="M113.95 483.275L113.073 483.274L113.055 495.115L113.932 495.117L113.95 483.275Z" fill="white"/>
<path d="M119.283 483.283L120.112 483.284L128.26 493.595L128.276 483.297L129.124 483.298L129.106 495.13L128.449 495.129L120.12 484.599L120.104 495.116L119.265 495.115L119.283 483.283Z" fill="white"/>
<path d="M119.283 483.283L120.112 483.284L128.26 493.595L128.276 483.297L129.124 483.298L129.106 495.13L128.449 495.129L120.12 484.599L120.104 495.116L119.265 495.115L119.283 483.283Z" fill="white"/>
<path d="M134.334 483.306L135.163 483.307L139.896 490.307L144.661 483.322L145.489 483.323L145.471 495.155L144.595 495.154L144.611 484.875L139.913 491.679L139.847 491.679L135.17 484.86L135.154 495.139L134.316 495.138L134.334 483.306Z" fill="white"/>
<path d="M134.334 483.306L135.163 483.307L139.896 490.307L144.661 483.322L145.489 483.323L145.471 495.155L144.595 495.154L144.611 484.875L139.913 491.679L139.847 491.679L135.17 484.86L135.154 495.139L134.316 495.138L134.334 483.306Z" fill="white"/>
<path d="M150.701 483.331L159.122 483.344L159.121 484.135L151.576 484.123L151.569 488.81L158.352 488.82L158.351 489.611L151.568 489.601L151.561 494.373L159.191 494.385L159.19 495.176L150.683 495.163L150.701 483.331Z" fill="white"/>
<path d="M150.701 483.331L159.122 483.344L159.121 484.135L151.576 484.123L151.569 488.81L158.352 488.82L158.351 489.611L151.568 489.601L151.561 494.373L159.191 494.385L159.19 495.176L150.683 495.163L150.701 483.331Z" fill="white"/>
<path d="M163.723 483.351L164.551 483.352L172.7 493.662L172.716 483.364L173.563 483.366L173.545 495.197L172.888 495.196L164.569 484.667L164.553 495.184L163.705 495.182L163.723 483.351Z" fill="white"/>
<path d="M163.723 483.351L164.551 483.352L172.7 493.662L172.716 483.364L173.563 483.366L173.545 495.197L172.888 495.196L164.569 484.667L164.553 495.184L163.705 495.182L163.723 483.351Z" fill="white"/>
<path d="M181.662 484.169L177.537 484.162L177.538 483.372L186.674 483.385L186.673 484.176L182.548 484.17L182.531 495.211L181.645 495.21L181.662 484.169Z" fill="white"/>
<path d="M181.662 484.169L177.537 484.162L177.538 483.372L186.674 483.385L186.673 484.176L182.548 484.17L182.531 495.211L181.645 495.21L181.662 484.169Z" fill="white"/>
</g>
<defs>
<filter id="filter0_f_1584_27987" x="0.43457" y="0.327148" width="217.489" height="501.884" filterUnits="userSpaceOnUse" color-interpolation-filters="sRGB">
<feFlood flood-opacity="0" result="BackgroundImageFix"/>
<feBlend mode="normal" in="SourceGraphic" in2="BackgroundImageFix" result="shape"/>
<feGaussianBlur stdDeviation="3.5" result="effect1_foregroundBlur_1584_27987"/>
</filter>
</defs>
</svg>
