<?xml version="1.0" standalone="no"?>
<!DOCTYPE svg PUBLIC "-//W3C//DTD SVG 1.1//EN" "http://www.w3.org/Graphics/SVG/1.1/DTD/svg11.dtd" >
<svg xmlns="http://www.w3.org/2000/svg" xmlns:xlink="http://www.w3.org/1999/xlink" version="1.1">
<metadata>
Created by FontForge 20170731 at Wed Sep 12 12:22:46 2018
 By Aleksey,,,
Copyright (c) 2018 by Connary Fagen. All rights reserved. Desktop use is strictly prohibited.
</metadata>
<defs>
<font id="CriteriaCF-Bold" horiz-adv-x="1380" >
  <font-face 
    font-family="Criteria CF Bold"
    font-weight="700"
    font-stretch="normal"
    units-per-em="2048"
    panose-1="0 0 8 0 0 0 0 0 0 0"
    ascent="1638"
    descent="-410"
    x-height="1065"
    cap-height="1434"
    bbox="-526 -664 2597 1942"
    underline-thickness="0"
    underline-position="0"
    unicode-range="U+0020-25CA"
  />
<missing-glyph horiz-adv-x="1024" 
d="M190 1638h650v-2048h-650v2048zM682 1434v67h-338v-67h133v-76h-135v-68h340v68h-135v76h135zM547 1094v143h-205v-213h340v70h-135zM410 1167h67v-73h-67v73zM682 901v68h-340v-68h135v-76h-135v-67h205v143h135zM682 641v205h-68v-135h-272v-70h340zM682 365v231h-205
v-115h70v47h67v-96h-204v164h-68v-231h340zM682 10v232h-340v-232h340zM410 174h204v-96h-204v96zM682 -104v67h-340v-67h143l-143 -97v-67h340v67h-209l143 97h66z" />
    <glyph glyph-name="f_f.liga" unicode="ff" horiz-adv-x="1798" 
d="M1737 1235h-127q-79 0 -112.5 -30t-33.5 -105v-35h273v-281h-273v-784h-329v784h-514v-784h-330v784h-230v281h230v37q0 403 416 403h188v-270h-129q-79 0 -112 -30t-33 -105v-35h514v37q0 196 97 299q98 104 318 104h187v-270z" />
    <glyph glyph-name=".notdef" horiz-adv-x="1024" 
d="M190 1638h650v-2048h-650v2048zM682 1434v67h-338v-67h133v-76h-135v-68h340v68h-135v76h135zM547 1094v143h-205v-213h340v70h-135zM410 1167h67v-73h-67v73zM682 901v68h-340v-68h135v-76h-135v-67h205v143h135zM682 641v205h-68v-135h-272v-70h340zM682 365v231h-205
v-115h70v47h67v-96h-204v164h-68v-231h340zM682 10v232h-340v-232h340zM410 174h204v-96h-204v96zM682 -104v67h-340v-67h143l-143 -97v-67h340v67h-209l143 97h66z" />
    <glyph glyph-name="glyph1" horiz-adv-x="0" 
 />
    <glyph glyph-name="glyph2" horiz-adv-x="681" 
 />
    <glyph glyph-name="space" unicode=" " horiz-adv-x="389" 
 />
    <glyph glyph-name="exclam" unicode="!" horiz-adv-x="610" 
d="M463 446h-320l-10 988h340zM436 41q-50 -51 -131 -51t-131 51q-49 50 -49 125t49 125q50 51 131 51t131 -51q49 -50 49 -125t-49 -125z" />
    <glyph glyph-name="quotedbl" unicode="&#x22;" horiz-adv-x="808" 
d="M330 805h-281l-16 629h313zM760 805h-283l-16 629h315z" />
    <glyph glyph-name="numbersign" unicode="#" horiz-adv-x="1703" 
d="M1663 1122l-86 -272h-211l-84 -262h209l-86 -273h-211l-102 -315h-332l102 315h-278l-103 -315h-329l102 315h-211l86 273h213l84 262h-213l86 272h215l100 312h330l-100 -312h278l101 312h331l-100 -312h209zM672 588h278l84 262h-278z" />
    <glyph glyph-name="dollar" unicode="$" horiz-adv-x="1171" 
d="M520 834l238 -23q176 -17 257 -86q83 -71 83 -223q0 -362 -525 -363l-57 -213l-264 68l47 182q-211 78 -225 320h291q10 -60 61.5 -85.5t157.5 -25.5q109 0 153.5 23t44.5 75q0 44 -28 65t-95 30l-237 22q-338 32 -338 318q0 348 504 348h4l57 213l264 -70l-49 -186
q188 -77 203 -305h-289q-10 57 -57 82.5t-141 25.5q-183 0 -185 -98q0 -82 125 -94z" />
    <glyph glyph-name="percent" unicode="%" horiz-adv-x="1341" 
d="M287 1051q-98 0 -155 59q-58 58 -58 148q0 88 57 147t156 59q95 0 154 -59q57 -59 57 -147q0 -90 -57 -148q-59 -59 -154 -59zM422 0h-348l846 1434h348zM1055 -29q-96 0 -153 60q-58 58 -58 147q0 88 57 148q57 59 154 59t156 -59q57 -60 57 -148t-57 -147
q-59 -60 -156 -60z" />
    <glyph glyph-name="ampersand" unicode="&#x26;" horiz-adv-x="1597" 
d="M1524 543q0 -239 -174 -396l118 -178h-331l-64 94q-122 -94 -336 -94q-299 0 -481 168t-182 428q0 174 86.5 304t245.5 196l-246 369h942v-285h-420l485 -729q41 67 41 151q0 97 -39 168h310q45 -68 45 -196zM793 252q77 0 145 16l-371 555q-160 -72 -159 -256
q0 -144 100 -229q100 -86 285 -86z" />
    <glyph glyph-name="quotesingle" unicode="'" horiz-adv-x="378" 
d="M330 805h-281l-16 629h313z" />
    <glyph glyph-name="parenleft" unicode="(" horiz-adv-x="933" 
d="M852 -283h-121q-353 0 -488 202q-65 97 -93.5 219t-28.5 290v569q0 174 28.5 298t93.5 223q133 202 488 202h121v-303h-100q-178 0 -234 -101q-57 -102 -57 -329v-549q0 -218 56 -318q55 -100 235 -100h100v-303z" />
    <glyph glyph-name="parenright" unicode=")" horiz-adv-x="937" 
d="M203 -283h-121v303h100q178 0 235 99q56 98 56 319v549q0 226 -56 329q-57 101 -235 101h-100v303h121q355 0 489 -202q65 -99 93 -223t28 -298v-569q0 -168 -28 -290t-93 -219q-136 -202 -489 -202z" />
    <glyph glyph-name="asterisk" unicode="*" horiz-adv-x="1314" 
d="M657 651l-211 -286l-260 186l215 285l-338 108l99 303l332 -112l-2 352h331l-2 -352l334 112l98 -303l-340 -108l215 -285l-258 -186z" />
    <glyph glyph-name="plus" unicode="+" horiz-adv-x="1384" 
d="M846 860h487v-289h-485v-495h-309v495h-486v289h486v496h307v-496z" />
    <glyph glyph-name="comma" unicode="," horiz-adv-x="567" 
d="M336 -205h-303l198 543h304z" />
    <glyph glyph-name="hyphen" unicode="-" horiz-adv-x="845" 
d="M793 389h-740v289h740v-289z" />
    <glyph glyph-name="period" unicode="." horiz-adv-x="466" 
d="M365 41q-49 -51 -131 -51t-131 51q-50 52 -50 125t50 125q49 51 131 51t131 -51q49 -50 49 -125t-49 -125z" />
    <glyph glyph-name="slash" unicode="/" horiz-adv-x="1046" 
d="M373 0h-330l631 1434h330z" />
    <glyph glyph-name="zero" unicode="0" horiz-adv-x="1488" 
d="M1243 178q-174 -209 -497 -209q-324 0 -498 208q-174 209 -174 540t174 540q174 207 498 207q323 0 497 -208q174 -209 174 -539q0 -331 -174 -539zM745 276q161 0 247 119q85 118 85 322t-85 322t-247 118q-165 0 -247 -118q-84 -119 -84 -322t84 -322q83 -119 247 -119
z" />
    <glyph glyph-name="one" unicode="1" horiz-adv-x="739" 
d="M80 1434h536v-1434h-333v1130h-222z" />
    <glyph glyph-name="two" unicode="2" horiz-adv-x="1335" 
d="M1227 0h-1131v293l602 416q117 83 162 134q43 49 43 120q0 98 -61 149t-176 51q-266 0 -250 -270h-332q-12 286 134.5 428.5t447.5 142.5q292 0 434 -128q141 -128 141 -347q0 -127 -59 -225q-60 -98 -219 -213l-252 -180l-111 -74h627v-297z" />
    <glyph glyph-name="three" unicode="3" horiz-adv-x="1323" 
d="M657 -31q-293 0 -444 138q-152 137 -139 393h336q-8 -114 64 -169q70 -57 194 -57q116 0 179.5 52.5t63.5 146.5q0 90 -66 143.5t-186 53.5q-82 0 -157 -23v236l301 247h-662v304h1026v-295l-286 -252q184 -34 276 -155t92 -281q0 -208 -146 -345q-148 -137 -446 -137z
" />
    <glyph glyph-name="four" unicode="4" horiz-adv-x="1378" 
d="M805 1434h448v-1434h-333v207h-859v295zM920 1135l-504 -633h504v633z" />
    <glyph glyph-name="five" unicode="5" horiz-adv-x="1310" 
d="M649 -31q-294 0 -441 135t-134 396h334q-8 -112 57 -170t188 -58q120 0 184 57t64 167q0 106 -62.5 165.5t-187.5 59.5q-168 0 -223 -88h-319v801h1042v-291h-709v-215q73 55 269 55q149 0 259 -46t167 -127q102 -145 102 -335q0 -225 -146 -365q-147 -141 -444 -141z
" />
    <glyph glyph-name="six" unicode="6" horiz-adv-x="1306" 
d="M696 999h6q252 0 392 -140q139 -139 139 -361q0 -232 -152 -381q-152 -148 -427 -148q-276 0 -427 148q-153 147 -153 383q0 230 184 436l440 498h394zM474 335q62 -61 180 -61q116 0 180 61q63 60 63 163q0 102 -63 163q-64 60 -180 60q-117 0 -180 -60
q-64 -61 -64 -163q0 -103 64 -163z" />
    <glyph glyph-name="seven" unicode="7" horiz-adv-x="1349" 
d="M61 1434h1256l-803 -1434h-352l647 1137h-748v297z" />
    <glyph glyph-name="eight" unicode="8" horiz-adv-x="1386" 
d="M694 -31q-298 0 -443 120q-147 120 -147 317q0 260 236 358q-168 112 -168 305q0 174 131 285q131 110 391 110q257 0 391 -110q132 -111 132 -285q0 -192 -170 -305q239 -98 237 -358q0 -197 -147 -317q-149 -120 -443 -120zM694 866q100 0 153.5 43t53.5 123
q0 81 -53 124.5t-154 43.5t-155 -43.5t-54 -124.5q0 -80 53.5 -123t155.5 -43zM511 309q65 -51 183 -51q120 0 184 51t64 146q0 94 -65 143t-183 49q-120 0 -184 -49t-64 -143q0 -95 65 -146z" />
    <glyph glyph-name="nine" unicode="9" horiz-adv-x="1306" 
d="M227 1318q152 146 427 146q274 0 427 -147q152 -149 152 -383q0 -228 -186 -436l-441 -498h-391l395 434h-8q-250 0 -389 141q-139 139 -139 361q0 236 153 382zM474 774q62 -61 180 -61q116 0 180 61q63 60 63 162t-63 163q-64 60 -180 60q-117 0 -180 -60
q-64 -61 -64 -163t64 -162z" />
    <glyph glyph-name="colon" unicode=":" horiz-adv-x="466" 
d="M365 795q-49 -52 -131 -52t-131 52q-50 52 -50 125q0 72 50 125q49 51 131 51t131 -51q49 -52 49 -125q0 -75 -49 -125zM365 41q-49 -51 -131 -51t-131 51q-50 52 -50 125t50 125q49 51 131 51t131 -51q49 -50 49 -125t-49 -125z" />
    <glyph glyph-name="semicolon" unicode=";" horiz-adv-x="608" 
d="M526 795q-49 -52 -131 -52t-131 52q-49 50 -49 125q0 73 49 125q50 51 131 51t131 -51q49 -52 49 -125q0 -75 -49 -125zM336 -205h-303l198 543h304z" />
    <glyph glyph-name="less" unicode="&#x3c;" horiz-adv-x="1384" 
d="M1333 358v-305l-1280 328v299l1280 328v-306l-798 -172z" />
    <glyph glyph-name="equal" unicode="=" horiz-adv-x="1441" 
d="M1391 686h-1340v291h1340v-291zM1391 88h-1340v291h1340v-291z" />
    <glyph glyph-name="greater" unicode="&#x3e;" horiz-adv-x="1384" 
d="M1333 381l-1280 -328v305l799 172l-799 172v306l1280 -328v-299z" />
    <glyph glyph-name="question" unicode="?" horiz-adv-x="1351" 
d="M819 432h-334q-7 156 36 238t204 139l51 18q89 33 125.5 71.5t36.5 98.5q0 170 -250 170q-151 0 -223 -63t-64 -203h-327q-12 283 140.5 423t473.5 140q308 0 451 -122q141 -123 141 -334q0 -122 -55 -202t-199 -142l-72 -31q-86 -39 -111 -84t-24 -117zM785 41
q-49 -51 -132 -51q-81 0 -131 51q-49 50 -49 125t49 125q50 51 131 51q83 0 132 -51q49 -50 49 -125t-49 -125z" />
    <glyph glyph-name="at" unicode="@" horiz-adv-x="1337" 
d="M668 -31q-270 0 -432 163q-162 164 -162 401t162 400q160 163 432 163q270 0 433 -162t163 -399q0 -104 -35 -172t-103 -68q-92 0 -92 104v480h-125l-18 -95l8 -39q-90 154 -274 154q-158 0 -256 -104q-99 -105 -99 -262q0 -158 101 -262q101 -105 266 -105
q205 0 276 170v-35q0 -64 39 -96.5t105 -32.5t108 51q-161 -254 -497 -254zM647 299q-107 0 -167 63.5t-60 170.5q0 106 60.5 169.5t166.5 63.5q112 0 177 -65q63 -66 63 -168q0 -103 -63 -168q-64 -66 -177 -66z" />
    <glyph glyph-name="A" unicode="A" horiz-adv-x="1665" 
d="M1634 0h-354l-80 188h-733l-80 -188h-354l616 1434h367zM834 1057l-254 -598h505z" />
    <glyph glyph-name="B" unicode="B" horiz-adv-x="1544" 
d="M1214 727q248 -92 248 -342q0 -174 -117 -279q-118 -106 -380 -106h-840v1434h799q257 0 375 -107q116 -108 116 -280q0 -231 -201 -320zM895 1141h-430v-283h430q180 0 180 142q0 141 -180 141zM465 293h457q105 0 152.5 36.5t47.5 115.5q0 78 -47.5 114.5t-152.5 36.5
l-457 -2v-301z" />
    <glyph glyph-name="C" unicode="C" horiz-adv-x="1648" 
d="M848 279q298 0 387 260h332q-45 -270 -233 -420q-189 -150 -486 -150q-356 0 -565 212t-209 536q0 323 209 535t565 212q296 0 486 -149q188 -150 233 -420h-332q-89 260 -387 260q-205 0 -317 -121q-113 -122 -113 -317q0 -196 113 -317q112 -121 317 -121z" />
    <glyph glyph-name="D" unicode="D" horiz-adv-x="1638" 
d="M815 0h-690v1434h690q341 0 540 -196t199 -521q0 -326 -199 -521q-199 -196 -540 -196zM465 1133v-832h344q195 0 298 109.5t103 306.5q0 194 -102 305t-299 111h-344z" />
    <glyph glyph-name="E" unicode="E" horiz-adv-x="1452" 
d="M1352 1434v-299h-887v-291h854v-266h-854v-279h887v-299h-1227v1434h1227z" />
    <glyph glyph-name="F" unicode="F" horiz-adv-x="1452" 
d="M1352 1434v-301h-887v-338h848v-299h-848v-496h-340v1434h1227z" />
    <glyph glyph-name="G" unicode="G" horiz-adv-x="1652" 
d="M1202 526h-358v258h684v-551q-238 -264 -660 -264q-376 0 -584 210q-210 210 -210 536q0 323 209 537q209 212 563 212q287 0 465 -142t217 -386h-334q-68 219 -338 219q-209 0 -323 -122q-115 -121 -115 -322t120 -324q118 -123 359 -123q189 0 305 82v180z" />
    <glyph glyph-name="H" unicode="H" horiz-adv-x="1669" 
d="M1204 819v615h340v-1434h-340v532h-739v-532h-340v1434h340v-615h739z" />
    <glyph glyph-name="I" unicode="I" horiz-adv-x="587" 
d="M465 0h-340v1434h340v-1434z" />
    <glyph glyph-name="J" unicode="J" horiz-adv-x="1536" 
d="M741 -31q-341 0 -504 159.5t-163 477.5h340q0 -176 76 -251q75 -76 251 -76q177 0 254 77q76 76 76 252v826h340v-826q0 -320 -164 -479.5t-506 -159.5z" />
    <glyph glyph-name="K" unicode="K" horiz-adv-x="1673" 
d="M1049 741l591 -741h-397l-391 496l-393 -496h-334v1434h334v-973l749 973h391z" />
    <glyph glyph-name="L" unicode="L" horiz-adv-x="1413" 
d="M465 1434v-1133h874v-301h-1214v1434h340z" />
    <glyph glyph-name="M" unicode="M" horiz-adv-x="2091" 
d="M463 0h-338v1434h553l356 -1100h23l356 1100h555v-1434h-338v1081h-24l-361 -1079h-397l-361 1079h-24v-1081z" />
    <glyph glyph-name="N" unicode="N" horiz-adv-x="1667" 
d="M465 0h-340v1434h440l619 -1041h20l-2 182v859h340v-1434h-440l-619 1040h-20l2 -182v-858z" />
    <glyph glyph-name="O" unicode="O" horiz-adv-x="1697" 
d="M848 -31q-356 0 -565 212t-209 536q0 323 209 535t565 212q358 0 567 -212t209 -535q0 -324 -209 -536t-567 -212zM848 279q208 0 320 121q112 119 112 317q0 196 -112 317t-320 121q-205 0 -317 -121q-113 -122 -113 -317q0 -196 113 -317q112 -121 317 -121z" />
    <glyph glyph-name="P" unicode="P" horiz-adv-x="1576" 
d="M125 1434h780q287 0 428 -150q140 -152 140 -399t-140 -399q-141 -152 -428 -152h-440v-334h-340v1434zM465 635h401q266 0 267 250q0 248 -267 248h-401v-498z" />
    <glyph glyph-name="Q" unicode="Q" horiz-adv-x="1697" 
d="M1624 717q0 -287 -166 -489q-167 -203 -459 -248v-195h-301v195q-293 45 -458 248q-166 202 -166 489q0 324 209 536q208 211 565 211q359 0 567 -211q209 -212 209 -536zM999 618v-319q134 41 207.5 151t73.5 267q0 197 -112 318q-112 120 -320 120q-205 0 -317 -121
q-113 -122 -113 -317q0 -157 73 -267t207 -151v319h301z" />
    <glyph glyph-name="R" unicode="R" horiz-adv-x="1564" 
d="M1243 479l260 -479h-342l-217 408h-29h-450v-408h-340v1434h790q283 0 421 -140q137 -142 137 -374q0 -313 -230 -441zM874 1133h-409v-424h409q134 0 196.5 51.5t62.5 159.5q0 109 -62 161t-197 52z" />
    <glyph glyph-name="S" unicode="S" horiz-adv-x="1482" 
d="M717 -31h-2q-208 0 -350 48q-87 29 -144 77q-61 51 -101 138.5t-46 197.5h313q37 -184 350 -184q168 0 247 44t79 136q0 75 -48 110t-163 46l-266 22q-489 39 -490 424q0 218 161 327t499 109q102 0 183 -9q80 -9 166 -39q84 -29 142 -80q59 -53 97.5 -139t44.5 -196
h-316q-26 105 -102 145q-77 40 -228 40q-162 0 -233.5 -37.5t-71.5 -118.5q0 -68 49.5 -103.5t155.5 -43.5l264 -23q258 -22 381 -123t123 -303q0 -232 -169.5 -348.5t-524.5 -116.5z" />
    <glyph glyph-name="T" unicode="T" horiz-adv-x="1492" 
d="M61 1434h1371v-301h-514v-1133h-340v1133h-517v301z" />
    <glyph glyph-name="U" unicode="U" horiz-adv-x="1615" 
d="M1493 1434v-801q0 -664 -684 -664t-684 664v801h340v-801q0 -354 344 -354t344 354v801h340z" />
    <glyph glyph-name="V" unicode="V" horiz-adv-x="1665" 
d="M834 377l446 1057h354l-618 -1434h-367l-616 1434h354z" />
    <glyph glyph-name="W" unicode="W" horiz-adv-x="2467" 
d="M1772 420l311 1014h352l-453 -1434h-380l-369 1012l-367 -1012h-381l-452 1434h352l311 -1018l369 1018h338z" />
    <glyph glyph-name="X" unicode="X" horiz-adv-x="1667" 
d="M451 0h-418l571 717l-567 717h418l379 -492l378 492h418l-569 -717l573 -717h-417l-383 492z" />
    <glyph glyph-name="Y" unicode="Y" horiz-adv-x="1687" 
d="M1296 1434h359l-641 -1082v-352h-340v352l-641 1082h358l445 -754h16z" />
    <glyph glyph-name="Z" unicode="Z" horiz-adv-x="1515" 
d="M1391 0h-1266v299l854 836h-836v299h1248v-299l-854 -836h854v-299z" />
    <glyph glyph-name="bracketleft" unicode="[" horiz-adv-x="907" 
d="M846 -190h-721v1826h721v-307h-381v-1212h381v-307z" />
    <glyph glyph-name="backslash" unicode="\" horiz-adv-x="1046" 
d="M373 1434l631 -1434h-330l-631 1434h330z" />
    <glyph glyph-name="bracketright" unicode="]" horiz-adv-x="907" 
d="M784 1636v-1826h-723v307h383v1212h-383v307h723z" />
    <glyph glyph-name="asciicircum" unicode="^" horiz-adv-x="1363" 
d="M682 1067l-371 -539l-260 195l500 711h264l498 -711l-260 -195z" />
    <glyph glyph-name="underscore" unicode="_" horiz-adv-x="927" 
d="M874 -291h-821v291h821v-291z" />
    <glyph glyph-name="grave" unicode="`" horiz-adv-x="522" 
d="M332 1540l170 -338h-312l-170 338h312z" />
    <glyph glyph-name="a" unicode="a" horiz-adv-x="1286" 
d="M641 1096q270 0 400 -86.5t130 -261.5v-748h-278l-29 111l37 75q-62 -105 -191 -161q-125 -56 -272 -56q-180 0 -277.5 87t-97.5 253q0 322 408 322h371v82q0 75 -50 106t-165 31q-107 0 -156 -26t-59 -89h-293q-8 197 127 279q134 82 395 82zM557 217h14q165 0 271 88
v125h-318q-125 0 -125 -104q0 -109 158 -109z" />
    <glyph glyph-name="b" unicode="b" 
d="M795 1094q236 0 380 -161q144 -160 144 -400t-144 -402q-145 -162 -380 -162q-231 0 -353 164l-4 -133h-323v1454h329v-500l-59 -112q149 252 410 252zM516 335q77 -77 201 -77q125 0 200 77q74 77 74 198q0 120 -74 197q-75 77 -200 77q-124 0 -201 -77
q-76 -76 -76 -197q0 -122 76 -198z" />
    <glyph glyph-name="c" unicode="c" horiz-adv-x="1277" 
d="M653 -31q-279 0 -434 159q-156 159 -156 405q0 245 156 404t434 159q243 0 391 -125q146 -125 170 -332h-323q-20 79 -82.5 121.5t-155.5 42.5q-123 0 -193 -75q-71 -76 -71 -195q0 -120 71 -196q70 -75 193 -75q93 0 155 42t83 122h323q-23 -207 -170 -332
q-148 -125 -391 -125z" />
    <glyph glyph-name="d" unicode="d" 
d="M936 954v500h332v-1454h-326l-4 133q-122 -164 -352 -164q-236 0 -379 162q-144 162 -144 402t145 400q144 161 378 161q262 0 411 -252zM464 335q75 -77 200 -77q123 0 200 77q76 76 76 198q0 121 -76 197q-77 77 -200 77q-125 0 -200 -77q-75 -76 -75 -197t75 -198z
" />
    <glyph glyph-name="e" unicode="e" horiz-adv-x="1292" 
d="M1227 434h-832q44 -213 275 -213q170 0 215 109h313q-27 -148 -172 -254q-146 -107 -375 -107q-276 0 -432 158q-156 157 -156 405q0 247 157 405q158 159 433 159q284 0 442 -176q156 -177 132 -486zM653 854q-222 0 -260 -221h510q-23 116 -84 168.5t-166 52.5z" />
    <glyph glyph-name="f" unicode="f" horiz-adv-x="956" 
d="M895 1235h-129q-79 0 -112 -30t-33 -105v-35h274v-281h-274v-784h-330v784h-230v281h230v37q0 403 416 403h188v-270z" />
    <glyph glyph-name="g" unicode="g" horiz-adv-x="1337" 
d="M406 61h618q105 0 161 -49t56 -137q0 -119 -88 -186h-250l4 22q10 56 -5.5 79.5t-67.5 23.5h-699l-43 247l162 220q-172 115 -172 358q0 211 135 334t393 123q233 0 357 -115l59 84h299l-178 -293q16 -64 16 -133q0 -213 -137 -333q-136 -120 -403 -120q-65 0 -117 7z
M852 641q0 199 -229 199q-230 0 -230 -199q0 -205 230 -205q229 0 229 205z" />
    <glyph glyph-name="h" unicode="h" horiz-adv-x="1378" 
d="M825 1096q218 0 329.5 -126.5t111.5 -361.5v-608h-332v547q0 260 -234 260q-125 0 -190.5 -68.5t-65.5 -193.5v-545h-329v1454h329v-530l-30 -76q126 248 411 248z" />
    <glyph glyph-name="i" unicode="i" horiz-adv-x="561" 
d="M409 1262q-49 -48 -128 -48q-80 0 -128 49q-49 48 -49 119q0 70 49 119q48 49 128 49q79 0 128 -49q48 -49 48 -119q0 -72 -48 -120zM446 0h-329v1065h329v-1065z" />
    <glyph glyph-name="j" unicode="j" horiz-adv-x="561" 
d="M409 1261q-49 -49 -128 -49q-80 0 -128 49q-49 48 -49 120q0 71 49 119q48 48 128 48q79 0 128 -48q48 -48 48 -119q0 -72 -48 -120zM444 -317h-329v1382h329v-1382z" />
    <glyph glyph-name="k" unicode="k" horiz-adv-x="1411" 
d="M905 571l475 -571h-387l-280 342l-287 -342h-311v1454h329v-815l-6 -201h8l152 197l338 430h383z" />
    <glyph glyph-name="l" unicode="l" horiz-adv-x="559" 
d="M444 0h-329v1454h329v-1454z" />
    <glyph glyph-name="m" unicode="m" horiz-adv-x="2121" 
d="M1577 1094q214 0 322 -126.5t108 -365.5v-602h-330v557q0 250 -219 250q-113 0 -172 -65t-59 -185v-557h-332v557q0 250 -219 250q-111 0 -171.5 -65.5t-60.5 -184.5v-557h-329v1065h317l12 -141l-30 -76q124 246 393 246q271 0 371 -222q116 222 399 222z" />
    <glyph glyph-name="n" unicode="n" horiz-adv-x="1378" 
d="M825 1096q218 0 329.5 -126.5t111.5 -361.5v-608h-332v547q0 260 -234 260q-125 0 -190.5 -68.5t-65.5 -193.5v-545h-329v1065h317l12 -141l-30 -76q126 248 411 248z" />
    <glyph glyph-name="o" unicode="o" horiz-adv-x="1310" 
d="M655 -31q-272 0 -432 160t-160 404q0 243 160 403t432 160q274 0 434 -160t160 -403q0 -244 -160 -404t-434 -160zM459 338q70 -76 196 -76q125 0 197 76t72 195q0 117 -72 194q-72 76 -197 76q-126 0 -196 -76q-72 -77 -72 -194q0 -119 72 -195z" />
    <glyph glyph-name="p" unicode="p" 
d="M795 1094q236 0 380 -161q144 -160 144 -400t-144 -402q-145 -162 -380 -162q-231 0 -351 162v-426h-329v1360h323l6 -111l-59 -112q149 252 410 252zM516 335q77 -77 201 -77q125 0 200 77q74 77 74 198q0 120 -74 197q-75 77 -200 77q-124 0 -201 -77q-76 -76 -76 -197
q0 -122 76 -198z" />
    <glyph glyph-name="q" unicode="q" 
d="M936 954l6 111h326v-1360h-332v426q-118 -162 -350 -162q-236 0 -379 162q-144 162 -144 402t145 400q144 161 378 161q262 0 411 -252zM464 335q75 -77 200 -77q123 0 200 77q76 76 76 198q0 121 -76 197q-77 77 -200 77q-125 0 -200 -77q-75 -76 -75 -197t75 -198z" />
    <glyph glyph-name="r" unicode="r" horiz-adv-x="1251" 
d="M780 1096q192 0 290 -120q97 -119 97 -329v-82h-307v25q0 217 -196 217q-109 0 -164.5 -64t-55.5 -180v-563h-329v1065h317l12 -141l-26 -66q57 115 140 177q82 61 222 61z" />
    <glyph glyph-name="s" unicode="s" horiz-adv-x="1181" 
d="M578 -31q-230 0 -366 77q-135 76 -149 278h299q10 -60 63.5 -85.5t162.5 -25.5q111 0 158 24t47 76q0 44 -29 65t-96 28l-246 22q-348 32 -348 320q0 348 520 348q197 0 326 -63q153 -75 165 -288h-297q-10 59 -58 85t-146 26q-187 0 -189 -98q0 -45 30 -66.5t97 -27.5
l246 -23q181 -16 265.5 -88.5t84.5 -222.5q1 -181 -134 -271t-406 -90z" />
    <glyph glyph-name="t" unicode="t" horiz-adv-x="997" 
d="M924 1065v-281h-297v-354q0 -79 36 -112t117 -33h144v-295h-205q-219 0 -320.5 97t-101.5 290v407h-236v281h236v369h330v-369h297z" />
    <glyph glyph-name="u" unicode="u" 
d="M934 520v545h332v-1065h-320l-12 141l31 76q-128 -248 -412 -248q-218 0 -328 126.5t-110 361.5v608h329v-547q0 -260 234 -260q125 0 190.5 68.5t65.5 193.5z" />
    <glyph glyph-name="v" unicode="v" horiz-adv-x="1304" 
d="M827 0h-352l-452 1065h342l280 -696h12l283 696h342z" />
    <glyph glyph-name="w" unicode="w" horiz-adv-x="2023" 
d="M743 0h-372l-348 1065h339l209 -717l267 717h348l266 -717l209 717h340l-350 -1065h-371l-268 717z" />
    <glyph glyph-name="x" unicode="x" horiz-adv-x="1310" 
d="M416 0h-383l434 537l-426 528h381l233 -297l232 297h383l-426 -528l434 -537h-385l-238 307z" />
    <glyph glyph-name="y" unicode="y" horiz-adv-x="1312" 
d="M702 -295h-337l127 289l-62 133l-407 938h344l282 -698h13l284 698h344z" />
    <glyph glyph-name="z" unicode="z" horiz-adv-x="1165" 
d="M1094 0h-1012v281l586 503h-572v281h987v-281l-585 -503h596v-281z" />
    <glyph glyph-name="braceleft" unicode="{" horiz-adv-x="1048" 
d="M987 1636v-307h-381v-1212h381v-307h-721v749h-205v328h205v749h721z" />
    <glyph glyph-name="bar" unicode="|" horiz-adv-x="587" 
d="M465 -205h-340v1843h340v-1843z" />
    <glyph glyph-name="braceright" unicode="}" horiz-adv-x="1048" 
d="M784 887h203v-328h-203v-749h-723v307h383v1212h-383v307h723v-749z" />
    <glyph glyph-name="asciitilde" unicode="~" horiz-adv-x="1392" 
d="M403 334q-187 0 -342 67v299q168 -72 357 -71q117 0 282 50q164 50 289 50q187 0 342 -67v-300q-167 72 -356 72q-117 0 -282 -50t-290 -50z" />
    <glyph glyph-name="exclamdown" unicode="&#xa1;" horiz-adv-x="610" 
d="M174 1045q49 51 131 51q81 0 131 -51q49 -52 49 -125q0 -75 -49 -125q-49 -52 -131 -52t-131 52q-49 50 -49 125q0 73 49 125zM133 -348l10 987h320l10 -987h-340z" />
    <glyph glyph-name="cent" unicode="&#xa2;" horiz-adv-x="1277" 
d="M653 432q93 0 155 42t83 122h323q-23 -207 -170 -332q-148 -125 -391 -125h-2l-57 -213l-264 68l51 196q-153 65 -236 201q-82 134 -82 311q0 246 156 405t434 159h19l57 213l264 -70l-55 -201q245 -117 276 -397h-323q-20 78 -83 121t-155 43q-123 0 -193 -76
q-71 -77 -71 -196q0 -120 71 -196q70 -75 193 -75z" />
    <glyph glyph-name="sterling" unicode="&#xa3;" horiz-adv-x="1370" 
d="M1298 901h-335q10 132 -61 194q-70 60 -189 60q-116 0 -182 -52.5t-66 -150.5q0 -77 67 -211h619v-266h-533v-29q0 -63 -20 -98t-74 -63q181 86 396 86q179 0 372 -68v-303q-200 72 -395 72q-113 0 -258 -37t-242 -37q-178 0 -323 106l131 240q131 -83 131 37
q0 37 -19 94h-219v236l103 10q-74 163 -74 299q0 203 148 324q147 120 432 120q302 0 452.5 -142.5t138.5 -420.5z" />
    <glyph glyph-name="currency" unicode="&#xa4;" horiz-adv-x="1411" 
d="M1348 911l-131 -131q57 -114 57 -247q0 -134 -57 -248l131 -131l-238 -236l-135 135q-119 -57 -270 -57t-269 57l-135 -135l-238 236l132 131q-57 115 -57 248q-1 133 57 247l-132 131l238 236l135 -135q119 57 269 57q151 0 270 -57l135 135zM524 713q-67 -70 -67 -180
q0 -112 67 -180q66 -70 181 -70q117 0 183 70q66 69 66 180q0 109 -66 180q-68 69 -183 69t-181 -69z" />
    <glyph glyph-name="yen" unicode="&#xa5;" horiz-adv-x="1687" 
d="M1296 1434h359l-451 -764h309v-242h-1339v242h309l-450 764h358l445 -754h16zM674 123h-500v242h1339v-242h-499v-123h-340v123z" />
    <glyph glyph-name="brokenbar" unicode="&#xa6;" horiz-adv-x="587" 
d="M465 778h-340v860h340v-860zM465 -205h-340v860h340v-860z" />
    <glyph glyph-name="section" unicode="&#xa7;" horiz-adv-x="1290" 
d="M633 -61q-488 0 -498 364h289q18 -58 69.5 -81t153.5 -23q199 0 199 98q0 79 -135 90l-219 16q-217 14 -317.5 92.5t-100.5 229.5q0 172 137 244q-78 63 -78 180q0 170 134 258t390 88q489 0 500 -362h-291q-18 58 -69 81t-152 23q-199 0 -199 -98q0 -80 136 -92l217 -15
q218 -14 319 -92.5t101 -228.5q0 -171 -138 -244q76 -63 76 -180q0 -170 -134 -259t-390 -89zM522 625l213 -15q166 -12 166 99q0 95 -133 102l-211 14q-168 12 -168 -98q0 -95 133 -102z" />
    <glyph glyph-name="dieresis" unicode="&#xa8;" horiz-adv-x="989" 
d="M325 1268q-50 -47 -128 -47q-79 0 -128 47q-49 46 -49 116q0 69 49 115q49 47 128 47q78 0 128 -47q48 -47 48 -115q0 -70 -48 -116zM921 1268q-50 -47 -128 -47q-79 0 -128 47q-49 46 -49 116q0 69 49 115q49 47 128 47q78 0 128 -47q48 -47 48 -115q0 -70 -48 -116z
" />
    <glyph glyph-name="copyright" unicode="&#xa9;" horiz-adv-x="1284" 
d="M1053 535q-158 -156 -412 -156t-410 156q-157 154 -157 387q0 231 157 387q157 155 410 155q254 0 412 -155q157 -156 157 -387q0 -233 -157 -387zM647 541q163 0 267 84q101 83 118 221h-229q-33 -104 -154 -105q-83 0 -129 52q-47 52 -47 129q0 81 47.5 130.5
t128.5 49.5q121 0 154 -105h229q-17 137 -118 222q-104 84 -267 84q-183 0 -293 -110t-110 -271t110 -271t293 -110z" />
    <glyph glyph-name="guillemotleft" unicode="&#xab;" horiz-adv-x="1585" 
d="M780 238l-153 -232l-566 414v266l566 414l153 -232l-434 -315zM1524 238l-154 -232l-565 414v266l565 414l154 -232l-434 -315z" />
    <glyph glyph-name="logicalnot" unicode="&#xac;" horiz-adv-x="1441" 
d="M51 922h1340v-791h-330v500h-1010v291z" />
    <glyph glyph-name="registered" unicode="&#xae;" horiz-adv-x="1284" 
d="M1053 535q-158 -156 -412 -156t-410 156q-157 154 -157 387q0 231 157 387q157 155 410 155q254 0 412 -155q157 -156 157 -387q0 -233 -157 -387zM313 1274v-709h217v187h158l107 -187h217l-129 223q127 63 127 224q0 122 -74.5 192t-218.5 70h-404zM684 928h-154v168
h154q111 0 111 -86q0 -43 -25.5 -62.5t-85.5 -19.5z" />
    <glyph glyph-name="overscore" unicode="&#xaf;" horiz-adv-x="862" 
d="M842 1249h-822v291h822v-291z" />
    <glyph glyph-name="degree" unicode="&#xb0;" horiz-adv-x="999" 
d="M817 748q-118 -121 -317 -121q-200 0 -318 121q-119 121 -119 299q0 175 119 297q118 120 318 120q198 0 317 -120q119 -122 119 -297q0 -177 -119 -299zM375 925q45 -48 125 -48t125 48t45 122q0 73 -46.5 120t-123.5 47q-78 0 -124 -48q-46 -47 -46 -119q0 -74 45 -122
z" />
    <glyph glyph-name="plusminus" unicode="&#xb1;" horiz-adv-x="1386" 
d="M848 1516v-496h487v-291h-485v-496h-309v496h-486v291h486v496h307zM1333 -150h-1280v289h1280v-289z" />
    <glyph glyph-name="acute" unicode="&#xb4;" horiz-adv-x="522" 
d="M332 1202h-312l170 338h312z" />
    <glyph glyph-name="paragraph" unicode="&#xb6;" horiz-adv-x="1708" 
d="M1645 0h-842q-335 0 -531 198q-198 196 -198 519q0 321 198 519q196 198 531 198h842v-308h-195v-819h195v-307zM905 1126v-819h205v819h-205z" />
    <glyph glyph-name="middot" unicode="&#xb7;" horiz-adv-x="565" 
d="M414 455q-49 -52 -131 -52t-131 52q-50 52 -50 125q0 72 50 125q50 51 131 51t131 -51q49 -52 49 -125q0 -75 -49 -125z" />
    <glyph glyph-name="cedilla" unicode="&#xb8;" horiz-adv-x="483" 
d="M252 -80h10q88 0 145 -58q56 -58 56 -149q0 -98 -61 -158q-62 -59 -164 -59q-111 0 -168 64l90 114q23 -20 57 -20q63 0 64 63q0 57 -64 58h-197l136 254h159z" />
    <glyph glyph-name="guillemotright" unicode="&#xbb;" horiz-adv-x="1585" 
d="M780 420l-565 -414l-154 232l435 315l-435 315l154 232l565 -414v-266zM1524 420l-568 -414l-151 232l434 315l-434 315l151 232l568 -414v-266z" />
    <glyph glyph-name="questiondown" unicode="&#xbf;" horiz-adv-x="1351" 
d="M698 1096q82 0 133 -51q50 -53 50 -125q0 -73 -50 -125q-51 -52 -133 -52q-81 0 -130 52q-50 52 -50 125q0 72 50 125q50 51 130 51zM532 653h334q8 -156 -36 -237q-43 -81 -203 -140l-52 -18q-89 -33 -125 -71.5t-36 -98.5q0 -170 250 -170q151 0 222.5 63t63.5 203h330
q12 -283 -141.5 -423t-474.5 -140q-310 0 -449 123q-141 123 -141 334q0 121 54 202q55 81 198 142l71 31q87 40 112 84q26 46 23 116z" />
    <glyph glyph-name="Agrave" unicode="&#xc0;" horiz-adv-x="1665" 
d="M821 1909l170 -338h-311l-170 338h311zM1634 0h-354l-80 188h-733l-80 -188h-354l616 1434h367zM834 1057l-254 -598h505z" />
    <glyph glyph-name="Aacute" unicode="&#xc1;" horiz-adv-x="1665" 
d="M870 1909h312l-170 -338h-312zM1634 0h-354l-80 188h-733l-80 -188h-354l616 1434h367zM834 1057l-254 -598h505z" />
    <glyph glyph-name="Acircumflex" unicode="&#xc2;" horiz-adv-x="1665" 
d="M936 1569l-100 200l-103 -200h-305l170 338h473l170 -338h-305zM1634 0h-354l-80 188h-733l-80 -188h-354l616 1434h367zM834 1057l-254 -598h505z" />
    <glyph glyph-name="Atilde" unicode="&#xc3;" horiz-adv-x="1665" 
d="M1036 1667q-86 0 -203 -46q-119 -46 -212 -46q-129 0 -232 67v252q104 -72 240 -71q88 0 205 46t210 46q129 0 232 -70v-250q-105 72 -240 72zM1634 0h-354l-80 188h-733l-80 -188h-354l616 1434h367zM834 1057l-254 -598h505z" />
    <glyph glyph-name="Adieresis" unicode="&#xc4;" horiz-adv-x="1665" 
d="M665 1636q-50 -47 -128 -47q-79 0 -128 47q-49 46 -49 117q0 69 49 115q49 47 128 47q78 0 128 -47q48 -47 48 -115q0 -71 -48 -117zM1261 1636q-50 -47 -128 -47q-79 0 -128 47q-49 46 -49 117q0 69 49 115q49 47 128 47q78 0 128 -47q48 -47 48 -115q0 -71 -48 -117z
M1634 0h-354l-80 188h-733l-80 -188h-354l616 1434h367zM834 1057l-254 -598h505z" />
    <glyph glyph-name="Aring" unicode="&#xc5;" horiz-adv-x="1665" 
d="M834 1526q-96 0 -154 61q-59 61 -59 148q0 89 58 148q59 59 155 59q98 0 157 -59q58 -59 58 -148t-58 -148q-58 -61 -157 -61zM834 1796q-30 0 -47 -17t-17 -44q0 -63 64 -64q33 0 49.5 16t15.5 48q1 31 -15.5 46t-49.5 15zM1634 0h-354l-80 188h-733l-80 -188h-354
l616 1434h367zM834 1057l-254 -598h505z" />
    <glyph glyph-name="AE" unicode="&#xc6;" horiz-adv-x="2459" 
d="M2357 1434v-299h-887v-291h857v-266h-857v-279h887v-299h-1227v221h-614l-141 -221h-363l920 1434h1425zM1130 1186l-438 -686h438v686z" />
    <glyph glyph-name="Ccedilla" unicode="&#xc7;" horiz-adv-x="1648" 
d="M848 279q298 0 387 260h332q-40 -256 -213 -403q-173 -149 -443 -165l-30 -51h10q88 0 145 -58q56 -58 56 -149q0 -98 -61 -158q-62 -59 -165 -59q-111 0 -168 64l90 114q23 -20 58 -20q63 0 63 63q0 57 -63 58h-197l107 198q-317 29 -499 236q-183 207 -183 508
q0 324 209 536q208 211 565 211q296 0 486 -149q188 -150 233 -420h-332q-89 260 -387 260q-205 0 -317 -121q-113 -122 -113 -317q0 -196 113 -317q112 -121 317 -121z" />
    <glyph glyph-name="Egrave" unicode="&#xc8;" horiz-adv-x="1452" 
d="M729 1909l170 -338h-311l-170 338h311zM1352 1434v-299h-887v-291h854v-266h-854v-279h887v-299h-1227v1434h1227z" />
    <glyph glyph-name="Eacute" unicode="&#xc9;" horiz-adv-x="1452" 
d="M778 1909h312l-170 -338h-312zM1352 1434v-299h-887v-291h854v-266h-854v-279h887v-299h-1227v1434h1227z" />
    <glyph glyph-name="Ecircumflex" unicode="&#xca;" horiz-adv-x="1452" 
d="M844 1569l-101 200l-102 -200h-305l170 338h473l170 -338h-305zM1352 1434v-299h-887v-291h854v-266h-854v-279h887v-299h-1227v1434h1227z" />
    <glyph glyph-name="Edieresis" unicode="&#xcb;" horiz-adv-x="1452" 
d="M573 1636q-50 -47 -128 -47q-79 0 -128 47q-49 46 -49 117q0 69 49 115q49 47 128 47q78 0 128 -47q48 -47 48 -115q0 -71 -48 -117zM1169 1636q-50 -47 -128 -47q-79 0 -128 47q-49 46 -49 117q0 69 49 115q49 47 128 47q78 0 128 -47q48 -47 48 -115q0 -71 -48 -117z
M1352 1434v-299h-887v-291h854v-266h-854v-279h887v-299h-1227v1434h1227z" />
    <glyph glyph-name="Igrave" unicode="&#xcc;" horiz-adv-x="587" 
d="M281 1909l170 -338h-312l-170 338h312zM465 0h-340v1434h340v-1434z" />
    <glyph glyph-name="Iacute" unicode="&#xcd;" horiz-adv-x="587" 
d="M473 1571h-311l170 338h311zM465 0h-340v1434h340v-1434z" />
    <glyph glyph-name="Icircumflex" unicode="&#xce;" horiz-adv-x="587" 
d="M395 1569l-100 200l-102 -200h-306l170 338h473l170 -338h-305zM465 0h-340v1434h340v-1434z" />
    <glyph glyph-name="Idieresis" unicode="&#xcf;" horiz-adv-x="587" 
d="M124 1636q-49 -47 -128 -47t-128 47q-48 46 -48 117q0 69 48 115q49 47 128 47t128 -47q48 -47 48 -115q0 -71 -48 -117zM720 1636q-49 -47 -128 -47t-128 47q-48 46 -48 117q0 69 48 115q49 47 128 47t128 -47q48 -47 48 -115q0 -71 -48 -117zM465 0h-340v1434h340
v-1434z" />
    <glyph glyph-name="Eth" unicode="&#xd0;" horiz-adv-x="1617" 
d="M125 1434h690q341 0 540 -196t199 -521q0 -326 -199 -521q-199 -196 -540 -196h-690v573h-125v289h125v572zM465 301h344q195 0 298 109.5t103 306.5q0 194 -102 305t-299 111h-344v-271h274v-289h-274v-272z" />
    <glyph glyph-name="Ntilde" unicode="&#xd1;" horiz-adv-x="1667" 
d="M621 1575q-129 0 -232 67v252q104 -72 240 -71q88 0 205 46t210 46q129 0 232 -70v-250q-104 72 -240 72q-86 0 -203 -46q-119 -46 -212 -46zM465 0h-340v1434h440l619 -1041h20l-2 182v859h340v-1434h-440l-619 1040h-20l2 -182v-858z" />
    <glyph glyph-name="Ograve" unicode="&#xd2;" horiz-adv-x="1697" 
d="M836 1909l170 -338h-312l-170 338h312zM848 -31q-356 0 -565 212t-209 536q0 323 209 535t565 212q358 0 567 -212t209 -535q0 -324 -209 -536t-567 -212zM848 279q208 0 320 121q112 119 112 317q0 196 -112 317t-320 121q-205 0 -317 -121q-113 -122 -113 -317
q0 -196 113 -317q112 -121 317 -121z" />
    <glyph glyph-name="Oacute" unicode="&#xd3;" horiz-adv-x="1697" 
d="M1026 1571h-311l170 338h311zM848 -31q-356 0 -565 212t-209 536q0 323 209 535t565 212q358 0 567 -212t209 -535q0 -324 -209 -536t-567 -212zM848 279q208 0 320 121q112 119 112 317q0 196 -112 317t-320 121q-205 0 -317 -121q-113 -122 -113 -317q0 -196 113 -317
q112 -121 317 -121z" />
    <glyph glyph-name="Ocircumflex" unicode="&#xd4;" horiz-adv-x="1697" 
d="M950 1569l-100 200l-102 -200h-306l170 338h473l170 -338h-305zM848 1464q358 0 567 -212t209 -535q0 -324 -209 -536t-567 -212q-356 0 -565 212t-209 536q0 323 209 535t565 212zM848 279q208 0 320 121q112 119 112 317q0 196 -112 317t-320 121q-205 0 -317 -121
q-113 -122 -113 -317q0 -196 113 -317q112 -121 317 -121z" />
    <glyph glyph-name="Otilde" unicode="&#xd5;" horiz-adv-x="1697" 
d="M635 1575q-129 0 -232 67v252q104 -72 240 -71q88 0 205 46t211 46q130 0 231 -70v-250q-104 72 -239 72q-85 0 -204 -46t-212 -46zM848 -31q-356 0 -565 212t-209 536q0 323 209 535t565 212q358 0 567 -212t209 -535q0 -324 -209 -536t-567 -212zM848 279
q208 0 320 121q112 119 112 317q0 196 -112 317t-320 121q-205 0 -317 -121q-113 -122 -113 -317q0 -196 113 -317q112 -121 317 -121z" />
    <glyph glyph-name="Odieresis" unicode="&#xd6;" horiz-adv-x="1697" 
d="M679 1636q-49 -47 -128 -47t-128 47q-48 46 -48 117q0 69 48 115q49 47 128 47t128 -47q48 -47 48 -115q0 -71 -48 -117zM1275 1636q-49 -47 -128 -47t-128 47q-48 46 -48 117q0 69 48 115q49 47 128 47t128 -47q48 -47 48 -115q0 -71 -48 -117zM848 -31q-356 0 -565 212
t-209 536q0 323 209 535t565 212q358 0 567 -212t209 -535q0 -324 -209 -536t-567 -212zM848 279q208 0 320 121q112 119 112 317q0 196 -112 317t-320 121q-205 0 -317 -121q-113 -122 -113 -317q0 -196 113 -317q112 -121 317 -121z" />
    <glyph glyph-name="multiply" unicode="&#xd7;" horiz-adv-x="1310" 
d="M416 0h-383l434 537l-426 528h381l233 -297l232 297h383l-426 -528l434 -537h-385l-238 307z" />
    <glyph glyph-name="Oslash" unicode="&#xd8;" horiz-adv-x="1697" 
d="M1581 1298l-111 -110q154 -194 154 -471q0 -324 -209 -536t-567 -212q-275 0 -465 131l-115 -114l-151 147l110 111q-155 197 -153 473q0 324 209 536q208 211 565 211q272 0 469 -131l115 115zM418 717q0 -129 51 -232l614 615q-100 55 -235 55q-204 0 -317 -120
q-113 -122 -113 -318zM848 279q208 0 320 121q112 119 112 317q0 133 -51 229l-613 -612q98 -55 232 -55z" />
    <glyph glyph-name="Ugrave" unicode="&#xd9;" horiz-adv-x="1615" 
d="M795 1909l170 -338h-312l-170 338h312zM1493 1434v-801q0 -664 -684 -664t-684 664v801h340v-801q0 -354 344 -354t344 354v801h340z" />
    <glyph glyph-name="Uacute" unicode="&#xda;" horiz-adv-x="1615" 
d="M985 1571h-311l170 338h311zM1493 1434v-801q0 -664 -684 -664t-684 664v801h340v-801q0 -354 344 -354t344 354v801h340z" />
    <glyph glyph-name="Ucircumflex" unicode="&#xdb;" horiz-adv-x="1615" 
d="M909 1569l-100 200l-102 -200h-306l170 338h473l170 -338h-305zM1153 633v801h340v-801q0 -664 -684 -664t-684 664v801h340v-801q0 -354 344 -354t344 354z" />
    <glyph glyph-name="Udieresis" unicode="&#xdc;" horiz-adv-x="1615" 
d="M638 1636q-49 -47 -128 -47t-128 47q-48 46 -48 117q0 69 48 115q49 47 128 47t128 -47q48 -47 48 -115q0 -71 -48 -117zM1234 1636q-49 -47 -128 -47t-128 47q-48 46 -48 117q0 69 48 115q49 47 128 47t128 -47q48 -47 48 -115q0 -71 -48 -117zM1493 1434v-801
q0 -664 -684 -664t-684 664v801h340v-801q0 -354 344 -354t344 354v801h340z" />
    <glyph glyph-name="Yacute" unicode="&#xdd;" horiz-adv-x="1687" 
d="M881 1909h311l-170 -338h-311zM1296 1434h359l-641 -1082v-352h-340v352l-641 1082h358l445 -754h16z" />
    <glyph glyph-name="Thorn" unicode="&#xde;" horiz-adv-x="1566" 
d="M465 1272h459q283 0 421 -153q138 -155 138 -402q0 -248 -138 -401q-139 -154 -421 -154h-459v-162h-340v1434h340v-162zM465 469h412q131 0 198.5 64.5t67.5 183.5t-67.5 183.5t-198.5 64.5h-412v-496z" />
    <glyph glyph-name="germandbls" unicode="&#xdf;" horiz-adv-x="1396" 
d="M1233 776l-264 -209q184 -37 275 -157q91 -121 91 -285q0 -201 -137 -326t-420 -125h-227v277h188q258 0 258 196q0 189 -254 191h-151v225l297 232h-445v-795h-329v1102q0 196 97 299q98 104 318 104h181v-270h-121q-79 0 -112.5 -30t-33.5 -105v-35h789v-289z" />
    <glyph glyph-name="agrave" unicode="&#xe0;" horiz-adv-x="1286" 
d="M635 1540l170 -338h-311l-170 338h311zM641 1096q270 0 400 -86.5t130 -261.5v-748h-278l-29 111l37 75q-62 -105 -191 -161q-125 -56 -272 -56q-180 0 -277.5 87t-97.5 253q0 322 408 322h371v82q0 75 -50 106t-165 31q-107 0 -156 -26t-59 -89h-293q-8 197 127 279
q134 82 395 82zM557 217h14q165 0 271 88v125h-318q-125 0 -125 -104q0 -109 158 -109z" />
    <glyph glyph-name="aacute" unicode="&#xe1;" horiz-adv-x="1286" 
d="M684 1540h311l-170 -338h-311zM641 1096q270 0 400 -86.5t130 -261.5v-748h-278l-29 111l37 75q-62 -105 -191 -161q-125 -56 -272 -56q-180 0 -277.5 87t-97.5 253q0 322 408 322h371v82q0 75 -50 106t-165 31q-107 0 -156 -26t-59 -89h-293q-8 197 127 279
q134 82 395 82zM557 217h14q165 0 271 88v125h-318q-125 0 -125 -104q0 -109 158 -109z" />
    <glyph glyph-name="acircumflex" unicode="&#xe2;" horiz-adv-x="1286" 
d="M750 1200l-101 201l-102 -201h-305l170 338h473l170 -338h-305zM641 1096q270 0 400 -86.5t130 -261.5v-748h-278l-29 111l37 75q-62 -105 -191 -161q-125 -56 -272 -56q-180 0 -277.5 87t-97.5 253q0 322 408 322h371v82q0 75 -50 106t-165 31q-107 0 -156 -26t-59 -89
h-293q-8 197 127 279q134 82 395 82zM557 217h14q165 0 271 88v125h-318q-125 0 -125 -104q0 -109 158 -109z" />
    <glyph glyph-name="atilde" unicode="&#xe3;" horiz-adv-x="1286" 
d="M850 1298q-85 0 -204 -46t-212 -46q-128 0 -231 68v252q103 -72 239 -72q88 0 205 46t211 46q128 0 232 -69v-250q-106 71 -240 71zM641 1096q270 0 400 -86.5t130 -261.5v-748h-278l-29 111l37 75q-62 -105 -191 -161q-125 -56 -272 -56q-180 0 -277.5 87t-97.5 253
q0 322 408 322h371v82q0 75 -50 106t-165 31q-107 0 -156 -26t-59 -89h-293q-8 197 127 279q134 82 395 82zM557 217h14q165 0 271 88v125h-318q-125 0 -125 -104q0 -109 158 -109z" />
    <glyph glyph-name="adieresis" unicode="&#xe4;" horiz-adv-x="1286" 
d="M478 1268q-49 -47 -128 -47t-128 47q-48 46 -48 116q0 68 48 115q49 47 128 47t128 -47q48 -47 48 -115q0 -70 -48 -116zM1074 1268q-49 -47 -128 -47t-128 47q-48 47 -48 116q0 68 48 115q49 47 128 47t128 -47q48 -47 48 -115q0 -70 -48 -116zM641 1096
q270 0 400 -86.5t130 -261.5v-748h-278l-29 111l37 75q-62 -105 -191 -161q-125 -56 -272 -56q-180 0 -277.5 87t-97.5 253q0 322 408 322h371v82q0 75 -50 106t-165 31q-107 0 -156 -26t-59 -89h-293q-8 197 127 279q134 82 395 82zM557 217h14q165 0 271 88v125h-318
q-125 0 -125 -104q0 -109 158 -109z" />
    <glyph glyph-name="aring" unicode="&#xe5;" horiz-adv-x="1286" 
d="M647 1157q-96 0 -154 61q-59 61 -59 148t59 148q59 59 154 59q98 0 157 -59q58 -59 58 -148t-58 -148q-58 -61 -157 -61zM647 1427q-30 0 -46.5 -16.5t-16.5 -44.5q0 -63 63 -63q66 0 66 63q0 61 -66 61zM641 1096q270 0 400 -86.5t130 -261.5v-748h-278l-29 111l37 75
q-62 -105 -191 -161q-125 -56 -272 -56q-180 0 -277.5 87t-97.5 253q0 322 408 322h371v82q0 75 -50 106t-165 31q-107 0 -156 -26t-59 -89h-293q-8 197 127 279q134 82 395 82zM557 217h14q165 0 271 88v125h-318q-125 0 -125 -104q0 -109 158 -109z" />
    <glyph glyph-name="ae" unicode="&#xe6;" horiz-adv-x="2072" 
d="M2005 434h-831q44 -213 274 -213q170 0 215 109h315q-29 -147 -173 -254q-145 -107 -373 -107q-298 0 -461 187q-169 -185 -477 -187q-206 0 -318.5 86t-112.5 254q0 336 435 336h344v66q0 77 -48.5 108t-162.5 31q-103 0 -154 -26t-69 -89h-291q18 359 522 361
q295 0 416 -111q155 111 377 111q284 0 442 -176q156 -178 131 -486zM1432 854q-223 0 -261 -221h510q-23 116 -83.5 168.5t-165.5 52.5zM543 229q81 0 164 31q84 32 135 90v74h-326q-119 0 -119 -98q1 -97 146 -97z" />
    <glyph glyph-name="ccedilla" unicode="&#xe7;" horiz-adv-x="1277" 
d="M653 262q93 0 155 42t83 122h323q-19 -192 -151 -315q-131 -124 -348 -140l-31 -51h10q88 0 145 -58q56 -58 56 -149q0 -98 -61 -158q-62 -59 -164 -59q-111 0 -168 64l90 114q23 -20 57 -20q63 0 64 63q0 57 -64 58h-196l106 200q-236 27 -366 181q-130 152 -130 376
q0 246 156 405t434 159q243 0 391 -125q146 -125 170 -332h-323q-20 79 -82.5 121.5t-155.5 42.5q-123 0 -193 -75q-71 -76 -71 -195q0 -120 71 -196q70 -75 193 -75z" />
    <glyph glyph-name="egrave" unicode="&#xe8;" horiz-adv-x="1292" 
d="M635 1540l170 -338h-311l-170 338h311zM1227 434h-832q44 -213 275 -213q170 0 215 109h313q-27 -148 -172 -254q-146 -107 -375 -107q-276 0 -432 158q-156 157 -156 405q0 247 157 405q158 159 433 159q284 0 442 -176q156 -177 132 -486zM653 854q-222 0 -260 -221
h510q-23 116 -84 168.5t-166 52.5z" />
    <glyph glyph-name="eacute" unicode="&#xe9;" horiz-adv-x="1292" 
d="M684 1540h311l-170 -338h-311zM1227 434h-832q44 -213 275 -213q170 0 215 109h313q-27 -148 -172 -254q-146 -107 -375 -107q-276 0 -432 158q-156 157 -156 405q0 247 157 405q158 159 433 159q284 0 442 -176q156 -177 132 -486zM653 854q-222 0 -260 -221h510
q-23 116 -84 168.5t-166 52.5z" />
    <glyph glyph-name="ecircumflex" unicode="&#xea;" horiz-adv-x="1292" 
d="M750 1200l-101 201l-102 -201h-305l170 338h473l170 -338h-305zM1227 434h-832q44 -213 275 -213q170 0 215 109h313q-27 -148 -172 -254q-146 -107 -375 -107q-276 0 -432 158q-156 157 -156 405q0 247 157 405q158 159 433 159q284 0 442 -176q156 -177 132 -486z
M653 854q-222 0 -260 -221h510q-23 116 -84 168.5t-166 52.5z" />
    <glyph glyph-name="edieresis" unicode="&#xeb;" horiz-adv-x="1292" 
d="M478 1268q-49 -47 -128 -47t-128 47q-48 46 -48 116q0 68 48 115q49 47 128 47t128 -47q48 -47 48 -115q0 -70 -48 -116zM1074 1268q-49 -47 -128 -47t-128 47q-48 47 -48 116q0 68 48 115q49 47 128 47t128 -47q48 -47 48 -115q0 -70 -48 -116zM1227 434h-832
q44 -213 275 -213q170 0 215 109h313q-27 -148 -172 -254q-146 -107 -375 -107q-276 0 -432 158q-156 157 -156 405q0 247 157 405q158 159 433 159q284 0 442 -176q156 -177 132 -486zM653 854q-222 0 -260 -221h510q-23 116 -84 168.5t-166 52.5z" />
    <glyph glyph-name="igrave" unicode="&#xec;" horiz-adv-x="538" 
d="M256 1540l170 -338h-311l-170 338h311zM434 0h-330v1065h330v-1065z" />
    <glyph glyph-name="iacute" unicode="&#xed;" horiz-adv-x="538" 
d="M449 1202h-312l170 338h311zM434 0h-330v1065h330v-1065z" />
    <glyph glyph-name="icircumflex" unicode="&#xee;" horiz-adv-x="538" 
d="M371 1200l-101 201l-102 -201h-305l170 338h473l170 -338h-305zM434 0h-330v1065h330v-1065z" />
    <glyph glyph-name="idieresis" unicode="&#xef;" horiz-adv-x="538" 
d="M99 1268q-49 -47 -128 -47t-128 47q-48 46 -48 116q0 68 48 115q49 47 128 47t128 -47q48 -47 48 -115q0 -70 -48 -116zM695 1268q-49 -47 -128 -47t-128 47q-48 46 -48 116q0 68 48 115q49 47 128 47t128 -47q48 -47 48 -115q0 -70 -48 -116zM434 0h-330v1065h330v-1065
z" />
    <glyph glyph-name="eth" unicode="&#xf0;" horiz-adv-x="1323" 
d="M924 1202l145 -184q108 -135 151 -245q42 -109 42 -226q0 -247 -164 -413q-164 -165 -439 -165q-272 0 -434 165t-162 413q0 235 155 392q156 156 435 157l-84 106h-391v232h207l-131 163h358l129 -163h369v-232h-186zM662 270q120 0 194 74q72 74 72 189t-73 188
q-74 74 -193 74q-118 0 -192 -74q-73 -73 -73 -188q0 -116 73 -189q74 -74 192 -74z" />
    <glyph glyph-name="ntilde" unicode="&#xf1;" horiz-adv-x="1378" 
d="M891 1298q-85 0 -204 -46t-212 -46q-128 0 -231 68v252q103 -72 239 -72q88 0 205 46t211 46q129 0 231 -69v-250q-104 71 -239 71zM825 1096q218 0 329.5 -126.5t111.5 -361.5v-608h-332v547q0 260 -234 260q-125 0 -190.5 -68.5t-65.5 -193.5v-545h-329v1065h317
l12 -141l-30 -76q126 248 411 248z" />
    <glyph glyph-name="ograve" unicode="&#xf2;" horiz-adv-x="1310" 
d="M643 1540l170 -338h-311l-170 338h311zM655 -31q-272 0 -432 160t-160 404q0 243 160 403t432 160q274 0 434 -160t160 -403q0 -244 -160 -404t-434 -160zM459 338q70 -76 196 -76q125 0 197 76t72 195q0 117 -72 194q-72 76 -197 76q-126 0 -196 -76q-72 -77 -72 -194
q0 -119 72 -195z" />
    <glyph glyph-name="oacute" unicode="&#xf3;" horiz-adv-x="1310" 
d="M834 1202h-312l170 338h312zM655 -31q-272 0 -432 160t-160 404q0 243 160 403t432 160q274 0 434 -160t160 -403q0 -244 -160 -404t-434 -160zM459 338q70 -76 196 -76q125 0 197 76t72 195q0 117 -72 194q-72 76 -197 76q-126 0 -196 -76q-72 -77 -72 -194
q0 -119 72 -195z" />
    <glyph glyph-name="ocircumflex" unicode="&#xf4;" horiz-adv-x="1310" 
d="M758 1200l-101 201l-102 -201h-305l170 338h473l170 -338h-305zM655 1096q274 0 434 -160t160 -403t-159 -404q-160 -160 -435 -160q-272 0 -432 160t-160 404q0 243 160 403t432 160zM459 338q70 -76 196 -76q125 0 197 76t72 195q0 117 -72 194q-72 76 -197 76
q-126 0 -196 -76q-72 -77 -72 -194q0 -119 72 -195z" />
    <glyph glyph-name="otilde" unicode="&#xf5;" horiz-adv-x="1310" 
d="M442 1206q-128 0 -231 68v252q103 -72 240 -72q88 0 205 46t210 46q128 0 232 -69v-250q-104 72 -240 71q-85 0 -204 -46t-212 -46zM655 -31q-272 0 -432 160t-160 404q0 243 160 403t432 160q274 0 434 -160t160 -403q0 -244 -160 -404t-434 -160zM459 338
q70 -76 196 -76q125 0 197 76t72 195q0 117 -72 194q-72 76 -197 76q-126 0 -196 -76q-72 -77 -72 -194q0 -119 72 -195z" />
    <glyph glyph-name="odieresis" unicode="&#xf6;" horiz-adv-x="1310" 
d="M487 1268q-50 -47 -128 -47q-79 0 -128 47q-49 46 -49 116q0 69 49 115q49 47 128 47q78 0 128 -47q48 -47 48 -115q0 -70 -48 -116zM1082 1268q-49 -47 -128 -47t-128 47q-48 47 -48 116q0 68 48 115q49 47 128 47t128 -47q48 -47 48 -115q0 -70 -48 -116zM655 -31
q-272 0 -432 160t-160 404q0 243 160 403t432 160q274 0 434 -160t160 -403q0 -244 -160 -404t-434 -160zM459 338q70 -76 196 -76q125 0 197 76t72 195q0 117 -72 194q-72 76 -197 76q-126 0 -196 -76q-72 -77 -72 -194q0 -119 72 -195z" />
    <glyph glyph-name="divide" unicode="&#xf7;" horiz-adv-x="1441" 
d="M848 942q-46 -49 -127 -49t-127 49q-47 50 -47 121t47 121q46 49 127 49t127 -49q47 -50 47 -121t-47 -121zM1391 389h-1340v289h1340v-289zM848 -119q-46 -49 -127 -49t-127 49q-47 50 -47 121t47 121q46 49 127 49t127 -49q47 -50 47 -121t-47 -121z" />
    <glyph glyph-name="oslash" unicode="&#xf8;" horiz-adv-x="1316" 
d="M1198 946l-61 -63q113 -144 112 -351q0 -244 -159 -403q-160 -160 -435 -160q-197 0 -342 90l-65 -65l-129 125l59 59q-115 149 -115 354q0 244 160 404t432 160q204 0 349 -92l67 67zM387 532q0 -65 23 -122l368 368q-51 25 -123 25q-126 0 -196 -76q-72 -77 -72 -195z
M655 262q125 0 197 76t72 194q0 60 -23 117l-364 -364q57 -23 118 -23z" />
    <glyph glyph-name="ugrave" unicode="&#xf9;" 
d="M678 1540l170 -338h-311l-170 338h311zM934 520v545h332v-1065h-320l-12 141l31 76q-128 -248 -412 -248q-218 0 -328 126.5t-110 361.5v608h329v-547q0 -260 234 -260q125 0 190.5 68.5t65.5 193.5z" />
    <glyph glyph-name="uacute" unicode="&#xfa;" 
d="M727 1540h311l-170 -338h-311zM934 520v545h332v-1065h-320l-12 141l31 76q-128 -248 -412 -248q-218 0 -328 126.5t-110 361.5v608h329v-547q0 -260 234 -260q125 0 190.5 68.5t65.5 193.5z" />
    <glyph glyph-name="ucircumflex" unicode="&#xfb;" 
d="M793 1200l-101 201l-102 -201h-305l170 338h473l170 -338h-305zM934 520v545h332v-1065h-320l-12 141l31 76q-128 -248 -412 -248q-218 0 -328 126.5t-110 361.5v608h329v-547q0 -260 234 -260q125 0 190.5 68.5t65.5 193.5z" />
    <glyph glyph-name="udieresis" unicode="&#xfc;" 
d="M519 1268q-49 -47 -128 -47t-128 47q-48 46 -48 116q0 68 48 115q49 47 128 47t128 -47q48 -47 48 -115q0 -70 -48 -116zM1115 1268q-49 -47 -128 -47t-128 47q-48 47 -48 116q0 68 48 115q49 47 128 47t128 -47q48 -47 48 -115q0 -70 -48 -116zM934 520v545h332v-1065
h-320l-12 141l31 76q-128 -248 -412 -248q-218 0 -328 126.5t-110 361.5v608h329v-547q0 -260 234 -260q125 0 190.5 68.5t65.5 193.5z" />
    <glyph glyph-name="yacute" unicode="&#xfd;" horiz-adv-x="1312" 
d="M834 1202h-312l170 338h312zM702 -295h-337l127 289l-62 133l-407 938h344l282 -698h13l284 698h344z" />
    <glyph glyph-name="thorn" unicode="&#xfe;" 
d="M795 1094q236 0 380 -161q144 -160 144 -400t-144 -402q-145 -162 -380 -162q-231 0 -351 162v-426h-329v1749h329v-500l-59 -112q149 252 410 252zM516 335q77 -77 201 -77q125 0 200 77q74 77 74 198q0 120 -74 197q-75 77 -200 77q-124 0 -201 -77q-76 -76 -76 -197
q0 -122 76 -198z" />
    <glyph glyph-name="ydieresis" unicode="&#xff;" horiz-adv-x="1312" 
d="M487 1268q-50 -47 -128 -47q-79 0 -128 47q-49 46 -49 116q0 69 49 115q49 47 128 47q78 0 128 -47q48 -47 48 -115q0 -70 -48 -116zM1082 1268q-49 -47 -128 -47t-128 47q-48 47 -48 116q0 68 48 115q49 47 128 47t128 -47q48 -47 48 -115q0 -70 -48 -116zM702 -295
h-337l127 289l-62 133l-407 938h344l282 -698h13l284 698h344z" />
    <glyph glyph-name="Amacron" unicode="&#x100;" horiz-adv-x="1665" 
d="M422 1909h821v-291h-821v291zM1634 0h-354l-80 188h-733l-80 -188h-354l616 1434h367zM834 1057l-254 -598h505z" />
    <glyph glyph-name="amacron" unicode="&#x101;" horiz-adv-x="1286" 
d="M236 1540h821v-291h-821v291zM641 1096q270 0 400 -86.5t130 -261.5v-748h-278l-29 111l37 75q-62 -105 -191 -161q-125 -56 -272 -56q-180 0 -277.5 87t-97.5 253q0 322 408 322h371v82q0 75 -50 106t-165 31q-107 0 -156 -26t-59 -89h-293q-8 197 127 279
q134 82 395 82zM557 217h14q165 0 271 88v125h-318q-125 0 -125 -104q0 -109 158 -109z" />
    <glyph glyph-name="Abreve" unicode="&#x102;" horiz-adv-x="1665" 
d="M1157 1619q-102 -103 -323 -103q-222 0 -325 102t-93 291h289q-18 -156 129 -156q69 0 103 39.5t26 116.5h286q11 -187 -92 -290zM1634 0h-354l-80 188h-733l-80 -188h-354l616 1434h367zM834 1057l-254 -598h505z" />
    <glyph glyph-name="abreve" unicode="&#x103;" horiz-adv-x="1286" 
d="M973 1250q-103 -103 -324 -103t-324 103q-104 103 -94 290h289q-18 -156 129 -156q69 0 103 39.5t26 116.5h287q11 -188 -92 -290zM641 1096q270 0 400 -86.5t130 -261.5v-748h-278l-29 111l37 75q-62 -105 -191 -161q-125 -56 -272 -56q-180 0 -277.5 87t-97.5 253
q0 322 408 322h371v82q0 75 -50 106t-165 31q-107 0 -156 -26t-59 -89h-293q-8 197 127 279q134 82 395 82zM557 217h14q165 0 271 88v125h-318q-125 0 -125 -104q0 -109 158 -109z" />
    <glyph glyph-name="Aogonek" unicode="&#x104;" horiz-adv-x="1665" 
d="M1634 0h-71q-238 -45 -238 -178q0 -47 35 -72.5t94 -21.5l31 2v-224q-59 -23 -139 -22q-140 0 -214.5 62.5t-74.5 170.5q0 184 223 283l-80 188h-733l-80 -188h-354l616 1434h367zM834 1057l-254 -598h505z" />
    <glyph glyph-name="aogonek" unicode="&#x105;" horiz-adv-x="1286" 
d="M641 1096q270 0 400 -86.5t130 -261.5v-748h-41q-119 -23 -178.5 -67t-58.5 -111q0 -47 35 -72.5t94 -21.5l31 2v-224q-59 -23 -140 -22q-140 0 -214 62.5t-74 170.5q0 203 264 299l-25 95l37 75q-62 -105 -191 -161q-125 -56 -272 -56q-180 0 -277.5 87t-97.5 253
q0 322 408 322h371v82q0 75 -50 106t-165 31q-107 0 -156 -26t-59 -89h-293q-8 197 127 279q134 82 395 82zM557 217h14q165 0 271 88v125h-318q-125 0 -125 -104q0 -109 158 -109z" />
    <glyph glyph-name="Cacute" unicode="&#x106;" horiz-adv-x="1648" 
d="M1014 1571h-312l170 338h312zM848 279q298 0 387 260h332q-45 -270 -233 -420q-189 -150 -486 -150q-356 0 -565 212t-209 536q0 323 209 535t565 212q296 0 486 -149q188 -150 233 -420h-332q-89 260 -387 260q-205 0 -317 -121q-113 -122 -113 -317q0 -196 113 -317
q112 -121 317 -121z" />
    <glyph glyph-name="cacute" unicode="&#x107;" horiz-adv-x="1277" 
d="M817 1202h-311l170 338h311zM653 -31q-279 0 -434 159q-156 159 -156 405q0 245 156 404t434 159q243 0 391 -125q146 -125 170 -332h-323q-20 79 -82.5 121.5t-155.5 42.5q-123 0 -193 -75q-71 -76 -71 -195q0 -120 71 -196q70 -75 193 -75q93 0 155 42t83 122h323
q-23 -207 -170 -332q-148 -125 -391 -125z" />
    <glyph glyph-name="Cdotaccent" unicode="&#x10a;" horiz-adv-x="1648" 
d="M964 1636q-50 -47 -128 -47q-79 0 -128 47q-49 46 -49 117q0 69 49 115q49 47 128 47q78 0 128 -47q48 -47 48 -115q0 -71 -48 -117zM848 279q298 0 387 260h332q-45 -270 -233 -420q-189 -150 -486 -150q-356 0 -565 212t-209 536q0 323 209 535t565 212q296 0 486 -149
q188 -150 233 -420h-332q-89 260 -387 260q-205 0 -317 -121q-113 -122 -113 -317q0 -196 113 -317q112 -121 317 -121z" />
    <glyph glyph-name="cdotaccent" unicode="&#x10b;" horiz-adv-x="1277" 
d="M767 1268q-49 -47 -128 -47t-128 47q-48 46 -48 116q0 68 48 115q49 47 128 47t128 -47q48 -47 48 -115q0 -70 -48 -116zM653 -31q-279 0 -434 159q-156 159 -156 405q0 245 156 404t434 159q243 0 391 -125q146 -125 170 -332h-323q-20 79 -82.5 121.5t-155.5 42.5
q-123 0 -193 -75q-71 -76 -71 -195q0 -120 71 -196q70 -75 193 -75q93 0 155 42t83 122h323q-23 -207 -170 -332q-148 -125 -391 -125z" />
    <glyph glyph-name="Ccaron" unicode="&#x10c;" horiz-adv-x="1648" 
d="M1073 1571h-473l-170 338h305l103 -201l100 201h305zM848 279q298 0 387 260h332q-45 -270 -233 -420q-189 -150 -486 -150q-356 0 -565 212t-209 536q0 323 209 535t565 212q296 0 486 -149q188 -150 233 -420h-332q-89 260 -387 260q-205 0 -317 -121
q-113 -122 -113 -317q0 -196 113 -317q112 -121 317 -121z" />
    <glyph glyph-name="ccaron" unicode="&#x10d;" horiz-adv-x="1277" 
d="M877 1202h-474l-170 338h306l102 -201l100 201h306zM653 262q93 0 155 42t83 122h323q-23 -207 -170 -332q-148 -125 -391 -125q-279 0 -434 159q-156 159 -156 405q0 245 156 404t434 159q243 0 391 -125q146 -125 170 -332h-323q-20 79 -82.5 121.5t-155.5 42.5
q-123 0 -193 -75q-71 -76 -71 -195q0 -120 71 -196q70 -75 193 -75z" />
    <glyph glyph-name="Dcaron" unicode="&#x10e;" horiz-adv-x="1638" 
d="M1047 1571h-474l-170 338h306l102 -201l100 201h306zM125 1434h690q341 0 540 -196t199 -521q0 -326 -199 -521q-199 -196 -540 -196h-690v1434zM465 301h344q195 0 298 109.5t103 306.5q0 194 -102 305t-299 111h-344v-832z" />
    <glyph glyph-name="dcaron" unicode="&#x10f;" horiz-adv-x="1626" 
d="M1516 1481q85 0 138 -56q52 -56 52 -137v-16q0 -95 -58 -177q-58 -83 -153 -132l2 167q-75 6 -119.5 54t-44.5 121q0 77 51 126q50 50 132 50zM997 842l-61 112v500h332v-1454h-326l-4 133q-122 -164 -352 -164q-236 0 -379 162q-144 162 -144 402t145 400
q144 161 378 161q262 0 411 -252zM464 335q75 -77 200 -77q123 0 200 77q76 76 76 198q0 121 -76 197q-77 77 -200 77q-125 0 -200 -77q-75 -76 -75 -197t75 -198z" />
    <glyph glyph-name="Dcroat" unicode="&#x110;" horiz-adv-x="1617" 
d="M125 1434h690q341 0 540 -196t199 -521q0 -326 -199 -521q-199 -196 -540 -196h-690v573h-125v289h125v572zM465 301h344q195 0 298 109.5t103 306.5q0 194 -102 305t-299 111h-344v-271h274v-289h-274v-272z" />
    <glyph glyph-name="dslash" unicode="&#x111;" horiz-adv-x="1370" 
d="M1268 1358h20v-219h-20v-1139h-326l-4 133q-122 -164 -352 -164q-236 0 -379 162q-144 162 -144 402t145 400q144 161 378 161q262 0 411 -252l-61 112v185h-387v219h387v96h332v-96zM464 335q75 -77 200 -77q123 0 200 77q76 76 76 198q0 121 -76 197q-77 77 -200 77
q-125 0 -200 -77q-75 -76 -75 -197t75 -198z" />
    <glyph glyph-name="Emacron" unicode="&#x112;" horiz-adv-x="1452" 
d="M332 1909h821v-291h-821v291zM1352 1434v-299h-887v-291h854v-266h-854v-279h887v-299h-1227v1434h1227z" />
    <glyph glyph-name="emacron" unicode="&#x113;" horiz-adv-x="1292" 
d="M236 1540h821v-291h-821v291zM1227 434h-832q44 -213 275 -213q170 0 215 109h313q-27 -148 -172 -254q-146 -107 -375 -107q-276 0 -432 158q-156 157 -156 405q0 247 157 405q158 159 433 159q284 0 442 -176q156 -177 132 -486zM653 854q-222 0 -260 -221h510
q-23 116 -84 168.5t-166 52.5z" />
    <glyph glyph-name="Edotaccent" unicode="&#x116;" horiz-adv-x="1452" 
d="M870 1636q-50 -47 -128 -47q-79 0 -128 47q-49 46 -49 117q0 69 49 115q49 47 128 47q78 0 128 -47q48 -47 48 -115q0 -71 -48 -117zM1352 1434v-299h-887v-291h854v-266h-854v-279h887v-299h-1227v1434h1227z" />
    <glyph glyph-name="edotaccent" unicode="&#x117;" horiz-adv-x="1292" 
d="M775 1268q-49 -47 -128 -47t-128 47q-48 46 -48 116q0 68 48 115q49 47 128 47t128 -47q48 -47 48 -115q0 -70 -48 -116zM1227 434h-832q44 -213 275 -213q170 0 215 109h313q-27 -148 -172 -254q-146 -107 -375 -107q-276 0 -432 158q-156 157 -156 405q0 247 157 405
q158 159 433 159q284 0 442 -176q156 -177 132 -486zM653 854q-222 0 -260 -221h510q-23 116 -84 168.5t-166 52.5z" />
    <glyph glyph-name="Eogonek" unicode="&#x118;" horiz-adv-x="1452" 
d="M1352 1434v-299h-887v-291h854v-266h-854v-279h887v-299h-4q-238 -45 -238 -178q0 -47 35 -72.5t94 -21.5l31 2v-224q-59 -23 -140 -22q-140 0 -214 62.5t-74 170.5q0 184 221 283h-938v1434h1227z" />
    <glyph glyph-name="eogonek" unicode="&#x119;" horiz-adv-x="1292" 
d="M1227 434h-832q44 -213 275 -213q170 0 215 109h313q-23 -123 -131 -221q-110 -99 -283 -129q-159 -51 -157 -158q0 -47 34.5 -72.5t94.5 -21.5l30 2v-224q-59 -23 -139 -22q-140 0 -214.5 62.5t-74.5 170.5q0 164 177 260q-225 33 -348 185q-124 151 -124 370
q0 247 157 405q158 159 433 159q284 0 442 -176q156 -177 132 -486zM653 854q-222 0 -260 -221h510q-23 116 -84 168.5t-166 52.5z" />
    <glyph glyph-name="Ecaron" unicode="&#x11a;" horiz-adv-x="1452" 
d="M979 1571h-473l-170 338h305l102 -201l101 201h305zM1352 1434v-299h-887v-291h854v-266h-854v-279h887v-299h-1227v1434h1227z" />
    <glyph glyph-name="ecaron" unicode="&#x11b;" horiz-adv-x="1292" 
d="M885 1202h-473l-170 338h305l102 -201l101 201h305zM1227 434h-832q44 -213 275 -213q170 0 215 109h313q-27 -148 -172 -254q-146 -107 -375 -107q-276 0 -432 158q-156 157 -156 405q0 247 157 405q158 159 433 159q284 0 442 -176q156 -177 132 -486zM653 854
q-222 0 -260 -221h510q-23 116 -84 168.5t-166 52.5z" />
    <glyph glyph-name="Gbreve" unicode="&#x11e;" horiz-adv-x="1652" 
d="M1141 1619q-103 -103 -324 -103t-324 102q-104 103 -94 291h289q-18 -156 129 -156q69 0 103 39.5t26 116.5h287q11 -187 -92 -290zM1202 526h-358v258h684v-551q-238 -264 -660 -264q-376 0 -584 210q-210 210 -210 536q0 323 209 537q209 212 563 212q287 0 465 -142
t217 -386h-334q-68 219 -338 219q-209 0 -323 -122q-115 -121 -115 -322t120 -324q118 -123 359 -123q189 0 305 82v180z" />
    <glyph glyph-name="gbreve" unicode="&#x11f;" horiz-adv-x="1337" 
d="M998 1250q-103 -103 -324 -103t-324 103q-104 103 -94 290h289q-18 -156 129 -156q69 0 103 39.5t26 116.5h287q10 -188 -92 -290zM406 61h618q105 0 161 -49t56 -137q0 -119 -88 -186h-250l4 22q10 56 -5.5 79.5t-67.5 23.5h-699l-43 247l162 220q-172 115 -172 358
q0 211 135 334t393 123q233 0 357 -115l59 84h299l-178 -293q16 -64 16 -133q0 -213 -137 -333q-136 -120 -403 -120q-65 0 -117 7zM852 641q0 199 -229 199q-230 0 -230 -199q0 -205 230 -205q229 0 229 205z" />
    <glyph glyph-name="Gdotaccent" unicode="&#x120;" horiz-adv-x="1652" 
d="M943 1636q-49 -47 -128 -47t-128 47q-48 46 -48 117q0 69 48 115q49 47 128 47t128 -47q48 -47 48 -115q0 -71 -48 -117zM1202 526h-358v258h684v-551q-238 -264 -660 -264q-376 0 -584 210q-210 210 -210 536q0 323 209 537q209 212 563 212q287 0 465 -142t217 -386
h-334q-68 219 -338 219q-209 0 -323 -122q-115 -121 -115 -322t120 -324q118 -123 359 -123q189 0 305 82v180z" />
    <glyph glyph-name="gdotaccent" unicode="&#x121;" horiz-adv-x="1337" 
d="M802 1268q-49 -47 -128 -47t-128 47q-48 46 -48 116q0 68 48 115q49 47 128 47t128 -47q48 -47 48 -115q0 -70 -48 -116zM406 61h618q105 0 161 -49t56 -137q0 -119 -88 -186h-250l4 22q10 56 -5.5 79.5t-67.5 23.5h-699l-43 247l162 220q-172 115 -172 358
q0 211 135 334t393 123q233 0 357 -115l59 84h299l-178 -293q16 -64 16 -133q0 -213 -137 -333q-136 -120 -403 -120q-65 0 -117 7zM852 641q0 199 -229 199q-230 0 -230 -199q0 -205 230 -205q229 0 229 205z" />
    <glyph glyph-name="uni0122" unicode="&#x122;" horiz-adv-x="1652" 
d="M1202 526h-358v258h684v-551q-238 -264 -660 -264q-376 0 -584 210q-210 210 -210 536q0 323 209 537q209 212 563 212q287 0 465 -142t217 -386h-334q-68 219 -338 219q-209 0 -323 -122q-115 -121 -115 -322t120 -324q118 -123 359 -123q189 0 305 82v180zM848 -664
h-303l198 541h304z" />
    <glyph glyph-name="uni0123" unicode="&#x123;" horiz-adv-x="1337" 
d="M711 1540h311l-170 -338h-311zM406 61h618q105 0 161 -49t56 -137q0 -119 -88 -186h-250l4 22q10 56 -5.5 79.5t-67.5 23.5h-699l-43 247l162 220q-172 115 -172 358q0 211 135 334t393 123q233 0 357 -115l59 84h299l-178 -293q16 -64 16 -133q0 -213 -137 -333
q-136 -120 -403 -120q-65 0 -117 7zM852 641q0 199 -229 199q-230 0 -230 -199q0 -205 230 -205q229 0 229 205z" />
    <glyph glyph-name="Hbar" unicode="&#x126;" horiz-adv-x="1669" 
d="M1204 1245v189h340v-1434h-340v532h-739v-532h-340v1434h340v-189h739zM465 958v-139h739v139h-739z" />
    <glyph glyph-name="hbar" unicode="&#x127;" horiz-adv-x="1378" 
d="M825 1096q218 0 329.5 -126.5t111.5 -361.5v-608h-332v547q0 260 -234 260q-125 0 -190.5 -68.5t-65.5 -193.5v-545h-329v1137h-115v231h115v86h329v-86h320v-231h-320v-213l-30 -76q126 248 411 248z" />
    <glyph glyph-name="Imacron" unicode="&#x12a;" horiz-adv-x="587" 
d="M705 1618h-822v291h822v-291zM465 0h-340v1434h340v-1434z" />
    <glyph glyph-name="imacron" unicode="&#x12b;" horiz-adv-x="538" 
d="M680 1249h-821v291h821v-291zM434 0h-330v1065h330v-1065z" />
    <glyph glyph-name="Iogonek" unicode="&#x12e;" horiz-adv-x="587" 
d="M125 6v1428h340v-1434h-68q-119 -23 -178.5 -67t-58.5 -111q0 -47 34.5 -72.5t94.5 -21.5l30 2v-224q-59 -23 -139 -22q-140 0 -214.5 62.5t-74.5 170.5q0 189 234 289z" />
    <glyph glyph-name="iogonek" unicode="&#x12f;" horiz-adv-x="538" 
d="M398 1268q-49 -47 -128 -47t-128 47q-48 46 -48 116q0 68 48 115q49 47 128 47t128 -47q48 -47 48 -115q0 -70 -48 -116zM104 0v1065h330v-1065h-45q-119 -23 -178.5 -67t-58.5 -111q0 -47 34.5 -72.5t94.5 -21.5l30 2v-224q-59 -23 -139 -22q-140 0 -214.5 62.5
t-74.5 170.5q0 185 221 283z" />
    <glyph glyph-name="Idot" unicode="&#x130;" horiz-adv-x="587" 
d="M423 1636q-49 -47 -128 -47t-128 47q-48 46 -48 117q0 69 48 115q49 47 128 47t128 -47q48 -47 48 -115q0 -71 -48 -117zM465 0h-340v1434h340v-1434z" />
    <glyph glyph-name="dotlessi" unicode="&#x131;" horiz-adv-x="538" 
d="M434 0h-330v1065h330v-1065z" />
    <glyph glyph-name="IJ" unicode="&#x132;" horiz-adv-x="2123" 
d="M465 0h-340v1434h340v-1434zM1329 -31q-341 0 -504 159.5t-163 477.5h339q0 -176 76 -251q76 -76 252 -76q177 0 254 77q76 76 76 252v826h340v-826q0 -320 -164 -479.5t-506 -159.5z" />
    <glyph glyph-name="ij" unicode="&#x133;" horiz-adv-x="1120" 
d="M409 1262q-49 -48 -128 -48q-80 0 -128 49q-49 48 -49 119q0 70 49 119q48 49 128 49q79 0 128 -49q48 -49 48 -119q0 -72 -48 -120zM970 1261q-48 -49 -128 -49t-128 49q-48 48 -48 120q0 71 48 119t128 48t128 -48t48 -119q0 -72 -48 -120zM446 0h-329v1065h329v-1065z
M1006 -317h-330v1382h330v-1382z" />
    <glyph glyph-name="uni0136" unicode="&#x136;" horiz-adv-x="1673" 
d="M1599 1434l-550 -693l591 -741h-397l-391 496l-393 -496h-334v1434h334v-973l749 973h391zM768 -604h-303l199 543h303z" />
    <glyph glyph-name="uni0137" unicode="&#x137;" horiz-adv-x="1411" 
d="M1319 1065l-414 -494l475 -571h-387l-280 342l-287 -342h-311v1454h329v-815l-6 -201h8l152 197l338 430h383zM649 -604h-305l199 543h305z" />
    <glyph glyph-name="Lacute" unicode="&#x139;" horiz-adv-x="1413" 
d="M313 1909h312l-170 -338h-312zM465 1434v-1133h874v-301h-1214v1434h340z" />
    <glyph glyph-name="lacute" unicode="&#x13a;" horiz-adv-x="559" 
d="M459 1571h-312l170 338h312zM444 0h-329v1454h329v-1454z" />
    <glyph glyph-name="uni013B" unicode="&#x13b;" horiz-adv-x="1413" 
d="M465 1434v-1133h874v-301h-1214v1434h340zM690 -604h-303l199 543h303z" />
    <glyph glyph-name="uni013C" unicode="&#x13c;" horiz-adv-x="552" 
d="M438 0h-329v1454h329v-1454zM217 -604h-305l199 543h305z" />
    <glyph glyph-name="Lcaron" unicode="&#x13d;" horiz-adv-x="1413" 
d="M772 932l2 168q-75 6 -120.5 54.5t-45.5 119.5q0 77 52 126q52 50 133 50q85 0 138 -56q52 -56 52 -137v-16q0 -95 -58 -177q-59 -82 -153 -132zM465 1434v-1133h874v-301h-1214v1434h340z" />
    <glyph glyph-name="lcaron" unicode="&#x13e;" horiz-adv-x="559" 
d="M281 1708l100 201h305l-170 -338h-473l-170 338h305zM444 0h-329v1454h329v-1454z" />
    <glyph glyph-name="Lslash" unicode="&#x141;" horiz-adv-x="1413" 
d="M465 707v-406h874v-301h-1214v674l-135 -15v259l135 14v502h340v-469l346 34v-258z" />
    <glyph glyph-name="lslash" unicode="&#x142;" horiz-adv-x="698" 
d="M524 977l236 22v-258l-236 -22v-719h-329v684l-256 -25v259l256 24v512h329v-477z" />
    <glyph glyph-name="Nacute" unicode="&#x143;" horiz-adv-x="1667" 
d="M1012 1571h-312l170 338h312zM465 0h-340v1434h440l619 -1041h20l-2 182v859h340v-1434h-440l-619 1040h-20l2 -182v-858z" />
    <glyph glyph-name="nacute" unicode="&#x144;" horiz-adv-x="1378" 
d="M725 1540h311l-170 -338h-311zM825 1096q218 0 329.5 -126.5t111.5 -361.5v-608h-332v547q0 260 -234 260q-125 0 -190.5 -68.5t-65.5 -193.5v-545h-329v1065h317l12 -141l-30 -76q126 248 411 248z" />
    <glyph glyph-name="uni0145" unicode="&#x145;" horiz-adv-x="1667" 
d="M465 0h-340v1434h440l619 -1041h20l-2 182v859h340v-1434h-440l-619 1040h-20l2 -182v-858zM852 -604h-303l199 543h303z" />
    <glyph glyph-name="uni0146" unicode="&#x146;" horiz-adv-x="1378" 
d="M825 1096q218 0 329.5 -126.5t111.5 -361.5v-608h-332v547q0 260 -234 260q-125 0 -190.5 -68.5t-65.5 -193.5v-545h-329v1065h317l12 -141l-30 -76q126 248 411 248zM668 -604h-303l198 543h303z" />
    <glyph glyph-name="Ncaron" unicode="&#x147;" horiz-adv-x="1667" 
d="M1071 1571h-473l-170 338h305l103 -201l100 201h305zM1202 575v859h340v-1434h-440l-619 1040h-20l2 -182v-858h-340v1434h440l619 -1041h20z" />
    <glyph glyph-name="ncaron" unicode="&#x148;" horiz-adv-x="1378" 
d="M926 1202h-473l-170 338h305l102 -201l101 201h305zM825 1096q218 0 329.5 -126.5t111.5 -361.5v-608h-332v547q0 260 -234 260q-125 0 -190.5 -68.5t-65.5 -193.5v-545h-329v1065h317l12 -141l-30 -76q126 248 411 248z" />
    <glyph glyph-name="Eng" unicode="&#x14a;" horiz-adv-x="1667" 
d="M1202 393v1041h340v-1434q0 -219 -113 -315q-115 -95 -348 -95h-100v260h43q92 0 135 33.5t43 116.5h-100l-619 1040h-20l2 -182v-858h-340v1434h440l619 -1041h18z" />
    <glyph glyph-name="eng" unicode="&#x14b;" 
d="M825 1096q218 0 329.5 -126.5t111.5 -361.5v-925h-330v317h-2v547q0 260 -234 260q-125 0 -190.5 -68.5t-65.5 -193.5v-545h-329v1065h317l12 -141l-30 -76q126 248 411 248z" />
    <glyph glyph-name="Omacron" unicode="&#x14c;" horiz-adv-x="1697" 
d="M1257 1618h-821v291h821v-291zM848 -31q-356 0 -565 212t-209 536q0 323 209 535t565 212q358 0 567 -212t209 -535q0 -324 -209 -536t-567 -212zM848 279q208 0 320 121q112 119 112 317q0 196 -112 317t-320 121q-205 0 -317 -121q-113 -122 -113 -317q0 -196 113 -317
q112 -121 317 -121z" />
    <glyph glyph-name="omacron" unicode="&#x14d;" horiz-adv-x="1310" 
d="M1065 1249h-821v291h821v-291zM655 -31q-272 0 -432 160t-160 404q0 243 160 403t432 160q274 0 434 -160t160 -403q0 -244 -160 -404t-434 -160zM459 338q70 -76 196 -76q125 0 197 76t72 195q0 117 -72 194q-72 76 -197 76q-126 0 -196 -76q-72 -77 -72 -194
q0 -119 72 -195z" />
    <glyph glyph-name="Ohungarumlaut" unicode="&#x150;" horiz-adv-x="1697" 
d="M811 1530h-311l170 338h311zM1198 1530h-311l170 338h311zM848 -31q-356 0 -565 212t-209 536q0 323 209 535t565 212q358 0 567 -212t209 -535q0 -324 -209 -536t-567 -212zM848 279q208 0 320 121q112 119 112 317q0 196 -112 317t-320 121q-205 0 -317 -121
q-113 -122 -113 -317q0 -196 113 -317q112 -121 317 -121z" />
    <glyph glyph-name="ohungarumlaut" unicode="&#x151;" horiz-adv-x="1310" 
d="M618 1161h-311l170 338h311zM1006 1161h-312l170 338h312zM655 -31q-272 0 -432 160t-160 404q0 243 160 403t432 160q274 0 434 -160t160 -403q0 -244 -160 -404t-434 -160zM459 338q70 -76 196 -76q125 0 197 76t72 195q0 117 -72 194q-72 76 -197 76q-126 0 -196 -76
q-72 -77 -72 -194q0 -119 72 -195z" />
    <glyph glyph-name="OE" unicode="&#x152;" horiz-adv-x="2611" 
d="M2511 1434v-299h-887v-291h854v-266h-854v-279h887v-299h-1227v80q-188 -111 -436 -111q-356 0 -565 212t-209 536q0 323 209 535t565 212q248 0 436 -110v80h1227zM848 279q208 0 320 121q112 119 112 317q0 196 -112 317t-320 121q-205 0 -317 -121
q-113 -122 -113 -317q0 -196 113 -317q112 -121 317 -121z" />
    <glyph glyph-name="oe" unicode="&#x153;" horiz-adv-x="2144" 
d="M2079 434h-832q43 -213 275 -213q170 0 215 109h315q-29 -148 -174 -254q-146 -107 -375 -107q-263 0 -424 150q-162 -150 -424 -150q-272 0 -432 160t-160 404q0 243 160 403t432 160q261 0 424 -152q163 152 426 152q284 0 442 -176q156 -177 132 -486zM1505 854
q-222 0 -260 -221h510q-23 116 -84 168.5t-166 52.5zM655 262q107 0 176 56.5t87 152.5q-2 26 -2 61q-1 38 2 62q-16 95 -86 152t-177 57q-126 0 -196 -76q-72 -77 -72 -194q0 -119 72 -195q70 -76 196 -76z" />
    <glyph glyph-name="Racute" unicode="&#x154;" horiz-adv-x="1564" 
d="M836 1909h311l-170 -338h-311zM1243 479l260 -479h-342l-217 408h-29h-450v-408h-340v1434h790q283 0 421 -140q137 -142 137 -374q0 -313 -230 -441zM874 1133h-409v-424h409q134 0 196.5 51.5t62.5 159.5q0 109 -62 161t-197 52z" />
    <glyph glyph-name="racute" unicode="&#x155;" horiz-adv-x="1251" 
d="M655 1540h312l-170 -338h-312zM780 1096q192 0 290 -120q97 -119 97 -329v-82h-307v25q0 217 -196 217q-109 0 -164.5 -64t-55.5 -180v-563h-329v1065h317l12 -141l-26 -66q57 115 140 177q82 61 222 61z" />
    <glyph glyph-name="uni0156" unicode="&#x156;" horiz-adv-x="1564" 
d="M1243 479l260 -479h-342l-217 408h-29h-450v-408h-340v1434h790q283 0 421 -140q137 -142 137 -374q-2 -314 -230 -441zM874 1133h-409v-424h409q134 0 196.5 51.5t62.5 159.5q0 109 -62 161t-197 52zM750 -604h-306l199 543h305z" />
    <glyph glyph-name="uni0157" unicode="&#x157;" horiz-adv-x="1251" 
d="M780 1096q192 0 290 -120q97 -119 97 -329v-82h-307v25q0 217 -196 217q-109 0 -164.5 -64t-55.5 -180v-563h-329v1065h317l12 -141l-26 -66q57 115 140 177q82 61 222 61zM215 -604h-303l199 543h303z" />
    <glyph glyph-name="Rcaron" unicode="&#x158;" horiz-adv-x="1564" 
d="M1036 1571h-473l-170 338h305l103 -201l100 201h305zM1243 479l260 -479h-342l-217 408h-29h-450v-408h-340v1434h790q283 0 421 -140q137 -142 137 -374q0 -313 -230 -441zM874 1133h-409v-424h409q134 0 196.5 51.5t62.5 159.5q0 109 -62 161t-197 52z" />
    <glyph glyph-name="rcaron" unicode="&#x159;" horiz-adv-x="1251" 
d="M856 1202h-473l-170 338h305l103 -201l100 201h305zM780 1096q192 0 290 -120q97 -119 97 -329v-82h-307v25q0 217 -196 217q-109 0 -164.5 -64t-55.5 -180v-563h-329v1065h317l12 -141l-26 -66q57 115 140 177q82 61 222 61z" />
    <glyph glyph-name="Sacute" unicode="&#x15a;" horiz-adv-x="1482" 
d="M922 1571h-312l170 338h312zM717 -31h-2q-208 0 -350 48q-87 29 -144 77q-61 51 -101 138.5t-46 197.5h313q37 -184 350 -184q168 0 247 44t79 136q0 75 -48 110t-163 46l-266 22q-489 39 -490 424q0 218 161 327t499 109q102 0 183 -9q80 -9 166 -39q84 -29 142 -80
q59 -53 97.5 -139t44.5 -196h-316q-26 105 -102 145q-77 40 -228 40q-162 0 -233.5 -37.5t-71.5 -118.5q0 -68 49.5 -103.5t155.5 -43.5l264 -23q258 -22 381 -123t123 -303q0 -232 -169.5 -348.5t-524.5 -116.5z" />
    <glyph glyph-name="sacute" unicode="&#x15b;" horiz-adv-x="1181" 
d="M774 1202h-311l170 338h311zM578 -31q-230 0 -366 77q-135 76 -149 278h299q10 -60 63.5 -85.5t162.5 -25.5q111 0 158 24t47 76q0 44 -29 65t-96 28l-246 22q-348 32 -348 320q0 348 520 348q197 0 326 -63q153 -75 165 -288h-297q-10 59 -58 85t-146 26
q-187 0 -189 -98q0 -45 30 -66.5t97 -27.5l246 -23q181 -16 265.5 -88.5t84.5 -222.5q1 -181 -134 -271t-406 -90z" />
    <glyph glyph-name="Scedilla" unicode="&#x15e;" horiz-adv-x="1482" 
d="M1411 434q0 -216 -144.5 -331t-449.5 -132l-31 -51h11q89 0 144 -58q56 -58 56 -149q0 -98 -61 -158q-62 -59 -164 -59q-111 0 -168 64l90 114q23 -20 58 -20q63 0 63 63q0 57 -63 58h-197l104 194q-124 4 -215.5 25t-175.5 68q-177 97 -194 368h313q37 -184 350 -184
q168 0 247 44t79 136q0 75 -48 110t-163 46l-266 22q-489 39 -490 424q0 218 161 327t499 109q102 0 183 -9q80 -9 166 -39q84 -29 142 -80q59 -53 97.5 -139t44.5 -196h-316q-26 105 -102 145q-77 40 -228 40q-162 0 -233.5 -37.5t-71.5 -118.5q0 -68 49.5 -103.5
t155.5 -43.5l264 -23q258 -22 381 -123t123 -303z" />
    <glyph glyph-name="scedilla" unicode="&#x15f;" horiz-adv-x="1181" 
d="M1118 330q0 -331 -448 -359l-31 -51h10q88 0 145 -58q56 -58 56 -149q0 -98 -61 -158q-62 -59 -164 -59q-111 0 -168 64l90 114q23 -20 57 -20q62 0 64 63q0 57 -64 58h-196l104 196q-203 8 -320 87q-119 80 -129 266h299q10 -60 63.5 -85.5t162.5 -25.5q111 0 158 24
t47 76q0 44 -29 65t-96 28l-246 22q-348 32 -348 320q0 348 520 348q197 0 326 -63q153 -75 165 -288h-297q-10 59 -58 85t-146 26q-187 0 -189 -98q0 -45 30 -66.5t97 -27.5l246 -23q180 -17 264 -86q86 -71 86 -225z" />
    <glyph glyph-name="Scaron" unicode="&#x160;" horiz-adv-x="1482" 
d="M979 1571h-473l-170 338h305l102 -201l101 201h305zM643 883l264 -23q258 -22 381 -123t123 -303q0 -232 -169.5 -348.5t-524.5 -116.5h-2q-208 0 -350 48q-87 29 -144 77q-61 51 -101 138.5t-46 197.5h313q37 -184 350 -184q168 0 247 44t79 136q0 75 -48 110t-163 46
l-266 22q-489 39 -490 424q0 218 161 327t499 109q102 0 183 -9q80 -9 166 -39q84 -29 142 -80q59 -53 97.5 -139t44.5 -196h-316q-26 105 -102 145q-77 40 -228 40q-162 0 -233.5 -37.5t-71.5 -118.5q0 -68 49.5 -103.5t155.5 -43.5z" />
    <glyph glyph-name="scaron" unicode="&#x161;" horiz-adv-x="1181" 
d="M834 1202h-474l-170 338h306l102 -201l100 201h306zM522 664l246 -23q181 -16 265.5 -88.5t84.5 -222.5q0 -360 -540 -361q-230 0 -366 77q-135 76 -149 278h299q10 -60 63.5 -85.5t162.5 -25.5q111 0 158 24t47 76q0 44 -29 65t-96 28l-246 22q-348 32 -348 320
q0 348 520 348q197 0 326 -63q153 -75 165 -288h-297q-10 59 -58 85t-146 26q-187 0 -189 -98q0 -45 30 -66.5t97 -27.5z" />
    <glyph glyph-name="uni0162" unicode="&#x162;" horiz-adv-x="1492" 
d="M918 1133v-1133h-80l-47 -80h10q89 0 144 -58q56 -58 56 -149q0 -98 -61 -158q-62 -59 -164 -59q-111 0 -168 64l90 114q23 -20 58 -20q63 0 63 63q0 57 -63 58h-197l121 225h-102v1133h-517v301h1371v-301h-514z" />
    <glyph glyph-name="uni0163" unicode="&#x163;" horiz-adv-x="997" 
d="M924 1065v-281h-297v-354q0 -79 36 -112t117 -33h144v-295h-205q-51 0 -96 6l-43 -76h10q88 0 145 -58q56 -58 56 -149q0 -98 -61 -158q-62 -59 -165 -59q-111 0 -168 64l90 114q23 -20 58 -20q63 0 63 63q0 57 -63 58h-197l135 254h6q-193 79 -192 348v407h-236v281h236
v369h330v-369h297z" />
    <glyph glyph-name="Tcaron" unicode="&#x164;" horiz-adv-x="1492" 
d="M983 1571h-473l-170 338h305l103 -201l100 201h305zM61 1434h1371v-301h-514v-1133h-340v1133h-517v301z" />
    <glyph glyph-name="tcaron" unicode="&#x165;" horiz-adv-x="997" 
d="M702 1571h-473l-170 338h306l102 -201l100 201h305zM924 1065v-281h-297v-354q0 -79 36 -112t117 -33h144v-295h-205q-219 0 -320.5 97t-101.5 290v407h-236v281h236v369h330v-369h297z" />
    <glyph glyph-name="Tbar" unicode="&#x166;" horiz-adv-x="1492" 
d="M1432 1434v-301h-514v-293h458v-308h-458v-532h-340v532h-459v308h459v293h-517v301h1371z" />
    <glyph glyph-name="tbar" unicode="&#x167;" horiz-adv-x="997" 
d="M924 1065v-281h-297v-112h297v-232h-297v-10q0 -79 36 -112t117 -33h144v-295h-205q-219 0 -320.5 97t-101.5 290v63h-236v232h236v112h-236v281h236v369h330v-369h297z" />
    <glyph glyph-name="Umacron" unicode="&#x16a;" horiz-adv-x="1615" 
d="M1219 1618h-822v291h822v-291zM1493 1434v-801q0 -664 -684 -664t-684 664v801h340v-801q0 -354 344 -354t344 354v801h340z" />
    <glyph glyph-name="umacron" unicode="&#x16b;" 
d="M279 1540h821v-291h-821v291zM934 520v545h332v-1065h-320l-12 141l31 76q-128 -248 -412 -248q-218 0 -328 126.5t-110 361.5v608h329v-547q0 -260 234 -260q125 0 190.5 68.5t65.5 193.5z" />
    <glyph glyph-name="Ubreve" unicode="&#x16c;" horiz-adv-x="1615" 
d="M1133 1619q-103 -103 -324 -103t-324 102q-104 103 -94 291h289q-18 -156 129 -156q69 0 103 39.5t26 116.5h287q11 -187 -92 -290zM1493 1434v-801q0 -664 -684 -664t-684 664v801h340v-801q0 -354 344 -354t344 354v801h340z" />
    <glyph glyph-name="ubreve" unicode="&#x16d;" 
d="M1014 1250q-103 -103 -324 -103t-324 103q-104 103 -94 290h289q-18 -156 129 -156q69 0 103 39.5t26 116.5h287q10 -188 -92 -290zM934 520v545h332v-1065h-320l-12 141l31 76q-128 -248 -412 -248q-218 0 -328 126.5t-110 361.5v608h329v-547q0 -260 234 -260
q125 0 190.5 68.5t65.5 193.5z" />
    <glyph glyph-name="Uring" unicode="&#x16e;" horiz-adv-x="1615" 
d="M807 1526q-96 0 -154 61q-59 61 -59 148t59 148q59 59 154 59q98 0 157 -59q58 -59 58 -148t-58 -148q-58 -61 -157 -61zM807 1671q33 0 49.5 16t15.5 48q0 61 -65 61q-30 0 -47 -17t-17 -44q1 -64 64 -64zM1493 1434v-801q0 -664 -684 -664t-684 664v801h340v-801
q0 -354 344 -354t344 354v801h340z" />
    <glyph glyph-name="uring" unicode="&#x16f;" 
d="M688 1157q-96 0 -154 61q-59 61 -59 148t59 148q59 59 154 59q98 0 157 -59q58 -59 58 -148t-58 -148q-58 -61 -157 -61zM688 1427q-30 0 -46.5 -16.5t-16.5 -44.5q0 -63 63 -63q66 0 66 63q0 61 -66 61zM934 520v545h332v-1065h-320l-12 141l31 76q-128 -248 -412 -248
q-218 0 -328 126.5t-110 361.5v608h329v-547q0 -260 234 -260q125 0 190.5 68.5t65.5 193.5z" />
    <glyph glyph-name="Uhungarumlaut" unicode="&#x170;" horiz-adv-x="1615" 
d="M770 1530h-311l170 338h311zM1157 1530h-311l170 338h311zM1493 1434v-801q0 -664 -684 -664t-684 664v801h340v-801q0 -354 344 -354t344 354v801h340z" />
    <glyph glyph-name="uhungarumlaut" unicode="&#x171;" 
d="M510 1499h311l-170 -338h-311zM1208 1499l-170 -338h-311l170 338h311zM934 520v545h332v-1065h-320l-12 141l31 76q-128 -248 -412 -248q-218 0 -328 126.5t-110 361.5v608h329v-547q0 -260 234 -260q125 0 190.5 68.5t65.5 193.5z" />
    <glyph glyph-name="Uogonek" unicode="&#x172;" horiz-adv-x="1615" 
d="M1153 633v801h340v-801q0 -573 -508 -651q-164 -51 -164 -160q0 -47 35 -72.5t94 -21.5l31 2v-224q-59 -23 -139 -22q-140 0 -214.5 62.5t-74.5 170.5q0 160 166 254q-594 43 -594 662v801h340v-801q0 -354 344 -354t344 354z" />
    <glyph glyph-name="uogonek" unicode="&#x173;" 
d="M934 520v545h332v-1065h-84q-238 -45 -238 -178q0 -47 35 -72.5t94 -21.5l31 2v-224q-59 -23 -139 -22q-140 0 -214.5 62.5t-74.5 170.5q0 205 268 301l-10 123l31 76q-128 -248 -412 -248q-218 0 -328 126.5t-110 361.5v608h329v-547q0 -260 234 -260q125 0 190.5 68.5
t65.5 193.5z" />
    <glyph glyph-name="Wcircumflex" unicode="&#x174;" horiz-adv-x="2467" 
d="M1337 1569l-100 200l-102 -200h-306l170 338h474l169 -338h-305zM1772 420l311 1014h352l-453 -1434h-380l-369 1012l-367 -1012h-381l-452 1434h352l311 -1018l369 1018h338z" />
    <glyph glyph-name="wcircumflex" unicode="&#x175;" horiz-adv-x="2023" 
d="M1114 1200l-100 201l-103 -201h-305l170 338h473l170 -338h-305zM1452 348l209 717h340l-350 -1065h-371l-268 717l-269 -717h-372l-348 1065h339l209 -717l267 717h348z" />
    <glyph glyph-name="Ycircumflex" unicode="&#x176;" horiz-adv-x="1687" 
d="M946 1569l-100 200l-103 -200h-305l170 338h473l170 -338h-305zM1296 1434h359l-641 -1082v-352h-340v352l-641 1082h358l445 -754h16z" />
    <glyph glyph-name="ycircumflex" unicode="&#x177;" horiz-adv-x="1312" 
d="M758 1200l-101 201l-102 -201h-305l170 338h473l170 -338h-305zM662 367l284 698h344l-588 -1360h-337l127 289l-62 133l-407 938h344l282 -698h13z" />
    <glyph glyph-name="Ydieresis" unicode="&#x178;" horiz-adv-x="1687" 
d="M673 1636q-49 -47 -128 -47t-128 47q-48 46 -48 117q0 69 48 115q49 47 128 47t128 -47q48 -47 48 -115q0 -71 -48 -117zM1269 1636q-49 -47 -128 -47t-128 47q-48 46 -48 117q0 69 48 115q49 47 128 47t128 -47q48 -47 48 -115q0 -71 -48 -117zM1296 1434h359
l-641 -1082v-352h-340v352l-641 1082h358l445 -754h16z" />
    <glyph glyph-name="Zacute" unicode="&#x179;" horiz-adv-x="1515" 
d="M936 1571h-311l170 338h311zM1391 0h-1266v299l854 836h-836v299h1248v-299l-854 -836h854v-299z" />
    <glyph glyph-name="zacute" unicode="&#x17a;" horiz-adv-x="1165" 
d="M762 1202h-311l170 338h311zM1094 0h-1012v281l586 503h-572v281h987v-281l-585 -503h596v-281z" />
    <glyph glyph-name="Zdotaccent" unicode="&#x17b;" horiz-adv-x="1515" 
d="M886 1636q-49 -47 -128 -47t-128 47q-48 46 -48 117q0 69 48 115q49 47 128 47t128 -47q48 -47 48 -115q0 -71 -48 -117zM1391 0h-1266v299l854 836h-836v299h1248v-299l-854 -836h854v-299z" />
    <glyph glyph-name="zdotaccent" unicode="&#x17c;" horiz-adv-x="1165" 
d="M712 1268q-49 -47 -128 -47t-128 47q-48 46 -48 116q0 68 48 115q49 47 128 47t128 -47q48 -47 48 -115q0 -70 -48 -116zM1094 0h-1012v281l586 503h-572v281h987v-281l-585 -503h596v-281z" />
    <glyph glyph-name="Zcaron" unicode="&#x17d;" horiz-adv-x="1515" 
d="M995 1571h-473l-170 338h305l103 -201l100 201h305zM143 1434h1248v-299l-854 -836h854v-299h-1266v299l854 836h-836v299z" />
    <glyph glyph-name="zcaron" unicode="&#x17e;" horiz-adv-x="1165" 
d="M821 1202h-473l-170 338h305l103 -201l100 201h305zM1083 784l-585 -503h596v-281h-1012v281l586 503h-572v281h987v-281z" />
    <glyph glyph-name="uni01CD" unicode="&#x1cd;" horiz-adv-x="1665" 
d="M1071 1571h-473l-170 338h305l103 -201l100 201h305zM1634 0h-354l-80 188h-733l-80 -188h-354l616 1434h367zM834 1057l-254 -598h505z" />
    <glyph glyph-name="uni01CE" unicode="&#x1ce;" horiz-adv-x="1286" 
d="M885 1202h-473l-170 338h305l102 -201l101 201h305zM641 1096q270 0 400 -86.5t130 -261.5v-748h-278l-29 111l37 75q-62 -105 -191 -161q-125 -56 -272 -56q-180 0 -277.5 87t-97.5 253q0 322 408 322h371v82q0 75 -50 106t-165 31q-107 0 -156 -26t-59 -89h-293
q-8 197 127 279q134 82 395 82zM557 217h14q165 0 271 88v125h-318q-125 0 -125 -104q0 -109 158 -109z" />
    <glyph glyph-name="uni01CF" unicode="&#x1cf;" horiz-adv-x="587" 
d="M295 1708l100 201h305l-170 -338h-473l-170 338h306zM465 0h-340v1434h340v-1434z" />
    <glyph glyph-name="uni01D0" unicode="&#x1d0;" horiz-adv-x="538" 
d="M270 1339l101 201h305l-170 -338h-473l-170 338h305zM434 0h-330v1065h330v-1065z" />
    <glyph glyph-name="uni01D1" unicode="&#x1d1;" horiz-adv-x="1697" 
d="M1085 1571h-473l-170 338h306l102 -201l100 201h305zM848 1464q358 0 567 -212t209 -535q0 -324 -209 -536t-567 -212q-356 0 -565 212t-209 536q0 323 209 535t565 212zM848 279q208 0 320 121q112 119 112 317q0 196 -112 317t-320 121q-205 0 -317 -121
q-113 -122 -113 -317q0 -196 113 -317q112 -121 317 -121z" />
    <glyph glyph-name="uni01D2" unicode="&#x1d2;" horiz-adv-x="1310" 
d="M893 1202h-473l-170 338h305l102 -201l101 201h305zM655 1096q274 0 434 -160t160 -403t-159 -404q-160 -160 -435 -160q-272 0 -432 160t-160 404q0 243 160 403t432 160zM459 338q70 -76 196 -76q125 0 197 76t72 195q0 117 -72 194q-72 76 -197 76q-126 0 -196 -76
q-72 -77 -72 -194q0 -119 72 -195z" />
    <glyph glyph-name="uni01D3" unicode="&#x1d3;" horiz-adv-x="1615" 
d="M1044 1571h-473l-170 338h306l102 -201l100 201h305zM1153 633v801h340v-801q0 -664 -684 -664t-684 664v801h340v-801q0 -354 344 -354t344 354z" />
    <glyph glyph-name="uni01D4" unicode="&#x1d4;" 
d="M928 1202h-473l-170 338h305l102 -201l101 201h305zM934 520v545h332v-1065h-320l-12 141l31 76q-128 -248 -412 -248q-218 0 -328 126.5t-110 361.5v608h329v-547q0 -260 234 -260q125 0 190.5 68.5t65.5 193.5z" />
    <glyph glyph-name="uni0218" unicode="&#x218;" horiz-adv-x="1482" 
d="M717 -31h-2q-208 0 -350 48q-87 29 -144 77q-61 51 -101 138.5t-46 197.5h313q37 -184 350 -184q168 0 247 44t79 136q0 75 -48 110t-163 46l-266 22q-489 39 -490 424q0 218 161 327t499 109q102 0 183 -9q80 -9 166 -39q84 -29 142 -80q59 -53 97.5 -139t44.5 -196
h-316q-26 105 -102 145q-77 40 -228 40q-162 0 -233.5 -37.5t-71.5 -118.5q0 -68 49.5 -103.5t155.5 -43.5l264 -23q258 -22 381 -123t123 -303q0 -232 -169.5 -348.5t-524.5 -116.5zM727 -604h-303l199 543h303z" />
    <glyph glyph-name="uni0219" unicode="&#x219;" horiz-adv-x="1181" 
d="M578 -31q-230 0 -366 77q-135 76 -149 278h299q10 -60 63.5 -85.5t162.5 -25.5q111 0 158 24t47 76q0 44 -29 65t-96 28l-246 22q-348 32 -348 320q0 348 520 348q197 0 326 -63q153 -75 165 -288h-297q-10 59 -58 85t-146 26q-187 0 -189 -98q0 -45 30 -66.5t97 -27.5
l246 -23q181 -16 265.5 -88.5t84.5 -222.5q1 -181 -134 -271t-406 -90zM557 -604h-305l199 543h305z" />
    <glyph glyph-name="uni021A" unicode="&#x21a;" horiz-adv-x="1492" 
d="M61 1434h1371v-301h-514v-1133h-340v1133h-517v301zM662 -604h-306l199 543h305z" />
    <glyph glyph-name="uni021B" unicode="&#x21b;" horiz-adv-x="997" 
d="M924 1065v-281h-297v-354q0 -79 36 -112t117 -33h144v-295h-205q-219 0 -320.5 97t-101.5 290v407h-236v281h236v369h330v-369h297zM516 -604h-303l199 543h303z" />
    <glyph glyph-name="circumflex" unicode="&#x2c6;" horiz-adv-x="854" 
d="M664 1538l170 -338h-306l-100 201l-102 -201h-306l170 338h474z" />
    <glyph glyph-name="caron" unicode="&#x2c7;" horiz-adv-x="854" 
d="M428 1339l100 201h306l-170 -338h-474l-170 338h306z" />
    <glyph glyph-name="breve" unicode="&#x2d8;" horiz-adv-x="874" 
d="M762 1250q-103 -103 -324 -103t-324 103q-104 103 -94 290h289q-18 -156 129 -156q69 0 103 39.5t26 116.5h287q10 -188 -92 -290z" />
    <glyph glyph-name="dotaccent" unicode="&#x2d9;" horiz-adv-x="393" 
d="M325 1268q-50 -47 -128 -47q-79 0 -128 47q-49 46 -49 116q0 69 49 115q49 47 128 47q78 0 128 -47q48 -47 48 -115q0 -70 -48 -116z" />
    <glyph glyph-name="ring" unicode="&#x2da;" horiz-adv-x="468" 
d="M233 1157q-96 0 -154 61q-59 61 -59 148t59 148q59 59 154 59q98 0 157 -59q59 -61 59 -148t-59 -148q-58 -61 -157 -61zM233 1303q66 0 66 63q0 61 -66 61q-30 0 -46.5 -16.5t-16.5 -44.5q0 -63 63 -63z" />
    <glyph glyph-name="tilde" unicode="&#x2dc;" horiz-adv-x="927" 
d="M252 1206q-128 0 -232 68v252q104 -72 240 -72q88 0 205 46t211 46q129 0 231 -69v-250q-104 72 -239 71q-85 0 -204 -46t-212 -46z" />
    <glyph glyph-name="hungarumlaut" unicode="&#x2dd;" horiz-adv-x="909" 
d="M332 1202h-312l170 338h312zM719 1202h-311l170 338h311z" />
    <glyph glyph-name="uni0328" unicode="&#x328;" horiz-adv-x="0" 
d="M-238 -365q-141 0 -214.5 62t-73.5 172q0 213 290 309l216 -26q-238 -45 -238 -179q0 -47 35 -72.5t94 -21.5l31 2v-223q-60 -23 -140 -23z" />
    <glyph glyph-name="Wgrave" unicode="&#x1e80;" horiz-adv-x="2467" 
d="M1223 1909l170 -338h-312l-170 338h312zM1772 420l311 1014h352l-453 -1434h-380l-369 1012l-367 -1012h-381l-452 1434h352l311 -1018l369 1018h338z" />
    <glyph glyph-name="wgrave" unicode="&#x1e81;" horiz-adv-x="2023" 
d="M999 1540l170 -338h-311l-170 338h311zM743 0h-372l-348 1065h339l209 -717l267 717h348l266 -717l209 717h340l-350 -1065h-371l-268 717z" />
    <glyph glyph-name="Wacute" unicode="&#x1e82;" horiz-adv-x="2467" 
d="M1272 1909h311l-170 -338h-311zM1772 420l311 1014h352l-453 -1434h-380l-369 1012l-367 -1012h-381l-452 1434h352l311 -1018l369 1018h338z" />
    <glyph glyph-name="wacute" unicode="&#x1e83;" horiz-adv-x="2023" 
d="M1190 1202h-311l170 338h311zM743 0h-372l-348 1065h339l209 -717l267 717h348l266 -717l209 717h340l-350 -1065h-371l-268 717z" />
    <glyph glyph-name="Wdieresis" unicode="&#x1e84;" horiz-adv-x="2467" 
d="M1064 1636q-49 -47 -128 -47t-128 47q-48 46 -48 117q0 69 48 115q49 47 128 47t128 -47q48 -47 48 -115q0 -71 -48 -117zM1660 1636q-49 -47 -128 -47t-128 47q-48 46 -48 117q0 69 48 115q49 47 128 47t128 -47q48 -47 48 -115q0 -71 -48 -117zM1772 420l311 1014h352
l-453 -1434h-380l-369 1012l-367 -1012h-381l-452 1434h352l311 -1018l369 1018h338z" />
    <glyph glyph-name="wdieresis" unicode="&#x1e85;" horiz-adv-x="2023" 
d="M841 1268q-49 -47 -128 -47t-128 47q-48 46 -48 116q0 68 48 115q49 47 128 47t128 -47q48 -47 48 -115q0 -70 -48 -116zM1437 1268q-49 -47 -128 -47t-128 47q-48 47 -48 116q0 68 48 115q49 47 128 47t128 -47q48 -47 48 -115q0 -70 -48 -116zM743 0h-372l-348 1065
h339l209 -717l267 717h348l266 -717l209 717h340l-350 -1065h-371l-268 717z" />
    <glyph glyph-name="uni1E9E" unicode="&#x1e9e;" horiz-adv-x="1472" 
d="M1296 1112l-290 -244q383 -41 383 -417q0 -217 -134.5 -334t-402.5 -117h-211v307h190q216 0 218 170q0 174 -218 174h-190v215l297 260h-309q-164 0 -164 -178v-948h-340v999q0 211 104 323t314 112h753v-322z" />
    <glyph glyph-name="Ygrave" unicode="&#x1ef2;" horiz-adv-x="1687" 
d="M831 1909l170 -338h-311l-170 338h311zM1296 1434h359l-641 -1082v-352h-340v352l-641 1082h358l445 -754h16z" />
    <glyph glyph-name="ygrave" unicode="&#x1ef3;" horiz-adv-x="1312" 
d="M643 1540l170 -338h-311l-170 338h311zM702 -295h-337l127 289l-62 133l-407 938h344l282 -698h13l284 698h344z" />
    <glyph glyph-name="endash" unicode="&#x2013;" horiz-adv-x="1509" 
d="M1458 389h-1407v289h1407v-289z" />
    <glyph glyph-name="emdash" unicode="&#x2014;" horiz-adv-x="1990" 
d="M1937 389h-1884v289h1884v-289z" />
    <glyph glyph-name="quoteleft" unicode="&#x2018;" horiz-adv-x="499" 
d="M283 1450l-2 -170q75 -6 120 -53.5t45 -118.5q0 -76 -50 -126t-132 -50q-85 0 -138 56q-52 55 -52 136v17q0 95 58 177q57 83 151 132z" />
    <glyph glyph-name="quoteright" unicode="&#x2019;" horiz-adv-x="499" 
d="M215 932l2 168q-75 6 -119.5 54.5t-44.5 119.5q0 76 51 126q50 50 132 50q85 0 138 -56q52 -56 52 -137v-16q0 -95 -58 -177t-153 -132z" />
    <glyph glyph-name="quotesinglbase" unicode="&#x201a;" horiz-adv-x="438" 
d="M195 -176l2 170q-75 6 -119.5 53.5t-44.5 118.5q0 76 50 126t132 50q86 0 139 -56q52 -56 52 -136v-17q0 -95 -58 -177t-153 -132z" />
    <glyph glyph-name="quotedblleft" unicode="&#x201c;" horiz-adv-x="958" 
d="M283 1450l-2 -170q75 -6 120 -53.5t45 -118.5q0 -76 -50 -126t-132 -50q-85 0 -138 56q-52 55 -52 136v17q0 95 58 177q57 83 151 132zM743 1450l-2 -170q75 -6 120.5 -54t45.5 -118q0 -76 -51 -126q-52 -50 -131 -50q-86 0 -139 56q-54 56 -54 136v17q0 94 59 177
t152 132z" />
    <glyph glyph-name="quotedblright" unicode="&#x201d;" horiz-adv-x="958" 
d="M215 932l2 168q-75 6 -119.5 54.5t-44.5 119.5q0 76 51 126q50 50 132 50q85 0 138 -56q52 -56 52 -137v-16q0 -95 -58 -177t-153 -132zM676 932l2 168q-75 6 -120.5 54.5t-45.5 119.5q0 76 51 126q52 50 133 50q84 0 138 -56q53 -58 53 -137v-16q0 -95 -58 -177
q-59 -82 -153 -132z" />
    <glyph glyph-name="quotedblbase" unicode="&#x201e;" horiz-adv-x="897" 
d="M195 -176l2 170q-75 6 -119.5 53.5t-44.5 118.5q0 76 50 126t132 50q86 0 139 -56q52 -56 52 -136v-17q0 -95 -58 -177t-153 -132zM655 -176l2 170q-75 6 -120 53.5t-45 118.5q0 76 51 126q52 50 133 50q84 0 137 -56q53 -58 53 -136v-17q0 -95 -58 -177t-153 -132z" />
    <glyph glyph-name="dagger" unicode="&#x2020;" horiz-adv-x="993" 
d="M647 1149h275v-293h-275v-285h-311v285h-275v293h275v285h311v-285z" />
    <glyph glyph-name="daggerdbl" unicode="&#x2021;" horiz-adv-x="993" 
d="M922 1149v-293h-275v-278h275v-293h-275v-285h-311v285h-275v293h275v278h-275v293h275v285h311v-285h275z" />
    <glyph glyph-name="bullet" unicode="&#x2022;" horiz-adv-x="817" 
d="M557 436q-55 -57 -149 -57q-95 0 -149 57q-54 56 -54 140q0 83 54 140q54 56 149 56q93 0 149 -56q55 -56 55 -140q0 -85 -55 -140z" />
    <glyph glyph-name="ellipsis" unicode="&#x2026;" horiz-adv-x="1396" 
d="M365 41q-49 -51 -131 -51t-131 51q-50 52 -50 125t50 125q49 51 131 51t131 -51q49 -50 49 -125t-49 -125zM830 41q-50 -51 -132 -51t-131 51q-49 50 -49 125t49 125q49 51 131 51t132 -51q49 -50 49 -125t-49 -125zM1294 41q-50 -51 -131 -51t-131 51q-49 50 -49 125
t49 125q50 51 131 51t131 -51q49 -50 49 -125t-49 -125z" />
    <glyph glyph-name="perthousand" unicode="&#x2030;" horiz-adv-x="1873" 
d="M287 1051q-98 0 -155 59q-58 58 -58 148q0 88 57 147t156 59q95 0 154 -59q57 -59 57 -147q0 -90 -57 -148q-59 -59 -154 -59zM422 0h-348l846 1434h348zM1055 -29q-96 0 -153 60q-58 58 -58 147q0 88 57 148q57 59 154 59t156 -59q57 -60 57 -148t-57 -147
q-59 -60 -156 -60zM1589 -29q-98 0 -155 60q-58 58 -58 147t58 148q57 59 155 59q96 0 155 -59q58 -59 58 -148t-58 -147q-58 -60 -155 -60z" />
    <glyph glyph-name="guilsinglleft" unicode="&#x2039;" horiz-adv-x="841" 
d="M780 238l-153 -232l-566 414v266l566 414l153 -232l-434 -315z" />
    <glyph glyph-name="guilsinglright" unicode="&#x203a;" horiz-adv-x="841" 
d="M780 420l-565 -414l-154 232l435 315l-435 315l154 232l565 -414v-266z" />
    <glyph glyph-name="fraction" unicode="&#x2044;" horiz-adv-x="1112" 
d="M391 0h-348l680 1434h348z" />
    <glyph glyph-name="Euro" unicode="&#x20ac;" horiz-adv-x="1755" 
d="M594 981h465v-233h-985v233h147q74 221 266 352q191 131 467 131q296 0 486 -149q188 -150 231 -420h-332q-86 260 -385 260q-246 0 -360 -174zM954 279q299 0 385 260h332q-43 -270 -231 -420q-189 -150 -486 -150q-280 0 -470 132q-192 133 -265 354h-145v233h985v-233
h-465q113 -176 360 -176z" />
    <glyph glyph-name="uni2116" unicode="&#x2116;" horiz-adv-x="2670" 
d="M2465 651q-132 -133 -365 -133q-234 0 -366 133q-132 134 -132 340q0 207 132 340t366 133q233 0 365 -133t132 -340t-132 -340zM465 0h-340v1434h508l454 -1069h23l-2 182v887h340v-1434h-508l-455 1069h-22l2 -182v-887zM1942 835q57 -61 158 -61q100 0 157 61
q57 60 57 156q0 95 -57 157q-57 60 -157 60q-101 0 -158 -60q-58 -61 -58 -157q0 -97 58 -156zM2499 0h-795v274h795v-274z" />
    <glyph glyph-name="trademark" unicode="&#x2122;" horiz-adv-x="2056" 
d="M207 1434h213v-136h172v-188h-172v-201q0 -47 21.5 -66.5t72.5 -19.5h78v-192h-117q-268 0 -268 256v223h-146v188h146v136zM1663 1317q281 0 281 -316v-364h-213v324q0 79 -35.5 118.5t-106.5 38.5q-75 0 -116 -45.5t-41 -124.5v-311h-213v324q0 79 -35 118.5t-105 38.5
q-75 0 -117 -45.5t-42 -124.5v-311h-213v661h213v-81l-19 -66q66 166 258 166q175 0 240 -150q71 150 264 150z" />
    <glyph glyph-name="partialdiff" unicode="&#x2202;" horiz-adv-x="1224" 
d="M555 1434l459 -586q147 -194 147 -379q0 -214 -146 -357q-148 -143 -403 -143q-256 0 -402 143q-147 142 -147 357q0 202 130 336q129 136 358 137l-381 492h385zM458 332q55 -53 155 -53q99 0 154 53q54 52 54 137q0 83 -54 139q-54 54 -154 54q-101 0 -155 -54
q-55 -55 -55 -139q0 -85 55 -137z" />
    <glyph glyph-name="emptyset" unicode="&#x2205;" horiz-adv-x="1476" 
d="M1303 1210l112 -114l-205 -205q119 -148 119 -359q0 -244 -159 -403q-160 -160 -433 -160q-205 0 -350 94l-211 -210l-113 114l203 203q-123 152 -123 362q0 243 161 404q160 160 433 160q207 0 355 -97zM467 532q0 -73 29 -131l372 373q-58 29 -131 29q-125 0 -197 -76
q-73 -76 -73 -195zM1006 532q0 74 -27 127l-369 -370q52 -27 127 -27q125 0 197 76q72 75 72 194z" />
    <glyph glyph-name="product" unicode="&#x220f;" horiz-adv-x="1626" 
d="M125 0v1434h1376v-1434h-340v1126h-696v-1126h-340z" />
    <glyph glyph-name="summation" unicode="&#x2211;" horiz-adv-x="1497" 
d="M1374 0h-1249v322l428 387v16l-428 387v322h1249v-308h-809v-16l426 -385v-16l-426 -385v-17h809v-307z" />
    <glyph glyph-name="minus" unicode="&#x2212;" horiz-adv-x="1441" 
d="M1391 389h-1340v289h1340v-289z" />
    <glyph glyph-name="radical" unicode="&#x221a;" horiz-adv-x="1359" 
d="M516 379l457 1055h354l-631 -1434h-358l-305 690h350z" />
    <glyph glyph-name="infinity" unicode="&#x221e;" horiz-adv-x="2566" 
d="M1909 1096q270 0 432 -162t162 -397q0 -241 -165 -404q-166 -164 -433 -164q-227 0 -366 120q-140 120 -171 325q-66 -87 -106 -132q-45 -53 -115 -117q-71 -66 -138 -103q-169 -93 -352 -93q-270 0 -432 162t-162 397q0 240 165 404q166 164 434 164q226 0 365 -120
t171 -323q60 78 107 132q41 46 115 116q69 65 138 103q169 92 351 92zM678 270q96 0 185 50q92 51 146 107q61 65 140 163h-248q-34 205 -239 205q-121 0 -193 -74q-72 -73 -72 -186q0 -117 75 -191q76 -74 206 -74zM1905 270q121 0 193 74q71 74 71 186q0 118 -75 191
q-76 74 -206 74q-97 0 -185 -49q-91 -51 -145 -108q-59 -61 -141 -163h248q34 -205 240 -205z" />
    <glyph glyph-name="integral" unicode="&#x222b;" horiz-adv-x="987" 
d="M244 -410h-183v271h123q79 0 112.5 30t33.5 105v1106q0 196 97 299q98 104 316 104h183v-270h-123q-77 0 -110.5 -30t-33.5 -105v-1106q0 -403 -415 -404z" />
    <glyph glyph-name="approxequal" unicode="&#x2248;" horiz-adv-x="1392" 
d="M403 596q-185 0 -342 68v301q167 -72 357 -72q117 0 282 50q164 50 289 50q187 0 342 -67v-301q-168 72 -356 71q-117 0 -282 -50t-290 -50zM403 70q-187 0 -342 67v301q168 -72 357 -71q117 0 282 50q164 50 289 50q185 0 342 -68v-301q-167 72 -356 72q-117 0 -282 -50
t-290 -50z" />
    <glyph glyph-name="notequal" unicode="&#x2260;" horiz-adv-x="1441" 
d="M1391 977v-291h-353l-135 -307h488v-291h-615l-121 -272h-329l120 272h-395v291h522l136 307h-658v291h785l120 272h330l-121 -272h226z" />
    <glyph glyph-name="lessequal" unicode="&#x2264;" horiz-adv-x="1384" 
d="M1333 586v-305l-1280 327v299l1280 328v-305l-798 -172zM1331 143v-288h-1278v288h1278z" />
    <glyph glyph-name="greaterequal" unicode="&#x2265;" horiz-adv-x="1384" 
d="M1333 608l-1280 -327v305l799 172l-799 172v305l1280 -328v-299zM1333 -145h-1280v288h1280v-288z" />
    <glyph glyph-name="lozenge" unicode="&#x25ca;" horiz-adv-x="1316" 
d="M1255 537l-596 -586l-596 586l596 585zM436 537l223 -220l224 220l-224 219z" />
    <glyph glyph-name="I.aalt" horiz-adv-x="1492" 
d="M1432 1434v-301h-514v-832h514v-301h-1371v301h517v832h-517v301h1371z" />
    <glyph glyph-name="i.aalt" horiz-adv-x="538" 
d="M398 1268q-49 -47 -128 -47t-128 47q-48 46 -48 116q0 68 48 115q49 47 128 47t128 -47q48 -47 48 -115q0 -70 -48 -116zM434 0h-330v1065h330v-1065z" />
    <glyph glyph-name="a.aalt" 
d="M936 954l6 111h326v-1065h-326l-4 133q-122 -164 -352 -164q-236 0 -379 162q-144 162 -144 402t145 400q144 161 378 161q262 0 411 -252zM464 335q75 -77 200 -77q123 0 200 77q76 76 76 198q0 121 -76 197q-77 77 -200 77q-125 0 -200 -77q-75 -76 -75 -197t75 -198z
" />
    <glyph glyph-name="g.aalt" horiz-adv-x="1353" 
d="M610 -340q-267 0 -395 94v226q163 -72 356 -72q349 0 351 237v21l6 51q-91 -166 -361 -166q-233 0 -368 142q-136 140 -136 373q0 232 138 380q136 148 364 148q259 0 402 -252l-58 106l11 117h319v-909q0 -136 -53.5 -238.5t-149.5 -157.5q-176 -100 -426 -100zM460 381
q70 -72 191 -72t191 72q69 72 69 185q0 112 -69 184q-71 71 -191 71t-191 -71q-71 -73 -71 -184q0 -112 71 -185z" />
    <glyph glyph-name="l.aalt" horiz-adv-x="690" 
d="M639 -10h-104q-218 0 -319 97t-101 290v1077h329v-1022q0 -79 36.5 -113t117.5 -34h41v-295z" />
    <glyph glyph-name="t_t.dlig" horiz-adv-x="1882" 
d="M1808 1065v-281h-297v-354q0 -79 36 -112t118 -33h143v-295h-204q-219 0 -320.5 97t-101.5 290v407h-555v-354q0 -79 36 -112t117 -33h144v-295h-205q-219 0 -320.5 97t-101.5 290v407h-236v281h236v369h330v-369h555v369h329v-369h297z" />
    <glyph glyph-name="quotesinglbase.aalt" horiz-adv-x="598" 
d="M346 -266h-313l219 604h313z" />
    <glyph glyph-name="quotedblbase.aalt" horiz-adv-x="1054" 
d="M346 -266h-313l219 604h313zM803 -266h-314l220 604h313z" />
    <glyph glyph-name="quotedblleft.aalt" horiz-adv-x="1054" 
d="M252 1434h313l-219 -605h-313zM709 1434h313l-219 -605h-314z" />
    <glyph glyph-name="quotedblright.aalt" horiz-adv-x="1054" 
d="M346 829h-313l219 605h313zM803 829h-314l220 605h313z" />
    <glyph glyph-name="quoteleft.aalt" horiz-adv-x="598" 
d="M252 1434h313l-219 -605h-313z" />
    <glyph glyph-name="quoteright.aalt" horiz-adv-x="598" 
d="M346 829h-313l219 605h313z" />
    </font>
</defs>
</svg>
