<svg width="294" height="48" viewBox="0 0 294 48" fill="none" xmlns="http://www.w3.org/2000/svg">
<path d="M284.787 11.3746V11.3556C284.787 9.3186 286.434 7.61475 288.509 7.61475C290.584 7.61475 292.231 9.30908 292.231 11.3366V11.3556C292.231 13.3926 290.584 15.0965 288.509 15.0965C286.434 15.0965 284.787 13.4021 284.787 11.3746ZM291.802 11.3556V11.3366C291.802 9.51849 290.394 8.02405 288.509 8.02405C286.624 8.02405 285.215 9.54705 285.215 11.3651V11.3842C285.215 13.2022 286.624 14.6967 288.509 14.6967C290.394 14.6967 291.802 13.1737 291.802 11.3556ZM287.053 9.38523H288.766C289.604 9.38523 290.222 9.79453 290.222 10.5846C290.222 11.2033 289.861 11.5936 289.347 11.7364L290.356 13.1737H289.48L288.585 11.8696H287.795V13.1737H287.072V9.38523H287.053ZM288.699 11.2699C289.194 11.2699 289.47 11.0129 289.47 10.6512C289.47 10.2419 289.194 10.0325 288.699 10.0325H287.776V11.2699H288.699V11.2699Z" fill="#FC6F2E"/>
<path d="M116 8.13867H124.415V8.92873H116.876V13.612H123.653V14.402H116.876V19.1709H124.5V19.961H116V8.13867Z" fill="#FC6F2E"/>
<path d="M129.013 8.13867H129.841L137.998 18.4284V8.13867H138.846V19.961H138.189L129.86 9.45226V19.961H129.013V8.13867Z" fill="#FC6F2E"/>
<path d="M146.545 8.92873H142.424V8.13867H151.552V8.92873H147.431V19.961H146.545V8.92873Z" fill="#FC6F2E"/>
<path d="M155.912 8.13867H164.327V8.92873H156.788V13.612H163.565V14.402H156.788V19.1709H164.412V19.961H155.912V8.13867Z" fill="#FC6F2E"/>
<path d="M168.925 8.13867H173.894C174.627 8.13867 175.274 8.24338 175.835 8.45279C176.397 8.6622 176.863 8.94777 177.225 9.30948C177.511 9.59504 177.73 9.91868 177.882 10.2994C178.044 10.6802 178.12 11.08 178.12 11.5083V11.5464C178.12 12.0414 178.034 12.4792 177.863 12.8695C177.692 13.2598 177.444 13.5929 177.139 13.8785C176.835 14.164 176.464 14.3925 176.045 14.5638C175.626 14.7352 175.16 14.8589 174.665 14.9255L178.567 19.98H177.454L173.684 15.0778H169.81V19.98H168.934V8.13867H168.925ZM173.789 14.2687C174.284 14.2687 174.741 14.2116 175.169 14.0784C175.588 13.9546 175.95 13.7738 176.254 13.5453C176.559 13.3169 176.797 13.0313 176.968 12.6982C177.139 12.365 177.225 11.9842 177.225 11.5559V11.5273C177.225 10.7278 176.93 10.09 176.34 9.63312C175.75 9.1667 174.912 8.93825 173.827 8.93825H169.791V14.2783H173.779L173.789 14.2687Z" fill="#FC6F2E"/>
<path d="M185.326 8.92873H181.204V8.13867H190.333V8.92873H186.201V19.961H185.326V8.92873Z" fill="#FC6F2E"/>
<path d="M197.623 8.05273H198.47L203.981 19.9702H203.02L201.516 16.6577H194.539L193.035 19.9702H192.121L197.632 8.05273H197.623ZM201.135 15.8581L198.023 9.01413L194.901 15.8581H201.135Z" fill="#FC6F2E"/>
<path d="M209.16 8.13867H208.284V19.9705H209.16V8.13867Z" fill="#FC6F2E"/>
<path d="M214.49 8.13867H215.318L223.476 18.4284V8.13867H224.323V19.961H223.666L215.328 9.45226V19.961H214.49V8.13867Z" fill="#FC6F2E"/>
<path d="M229.53 8.13867H230.358L235.099 15.1254L239.849 8.13867H240.677V19.961H239.801V9.69023L235.118 16.4961H235.051L230.368 9.69023V19.961H229.53V8.13867Z" fill="#FC6F2E"/>
<path d="M245.884 8.13867H254.298V8.92873H246.76V13.612H253.537V14.402H246.76V19.1709H254.384V19.961H245.884V8.13867Z" fill="#FC6F2E"/>
<path d="M258.896 8.13867H259.725L267.882 18.4284V8.13867H268.729V19.961H268.073L259.744 9.45226V19.961H258.896V8.13867Z" fill="#FC6F2E"/>
<path d="M276.82 8.92873H272.698V8.13867H281.827V8.92873H277.705V19.961H276.82V8.92873Z" fill="#FC6F2E"/>
<path d="M11.6985 8.49072H17.2385L28.937 35.9904H22.6546L20.1607 29.8698H8.62398L6.13007 35.9904H0L11.6985 8.49072ZM18.019 24.5679L14.3923 15.7155L10.7657 24.5679H18.019Z" fill="#528BFF" fill-opacity="0.67"/>
<path d="M33.1631 8.68115H44.3191C45.9563 8.68115 47.4222 8.9096 48.7072 9.3665C49.9922 9.8234 51.0869 10.4612 51.9816 11.2988C52.8764 12.1269 53.5713 13.1264 54.0472 14.2782C54.5327 15.4395 54.7706 16.715 54.7706 18.1238V18.1999C54.7706 19.7895 54.4851 21.1793 53.914 22.3786C53.3428 23.578 52.5528 24.5775 51.5533 25.3866C50.5538 26.1956 49.383 26.7953 48.0409 27.1951C46.6987 27.6044 45.2614 27.8043 43.7289 27.8043H39.1694V36H33.1631V8.68115ZM43.9288 22.4548C45.4328 22.4548 46.6036 22.055 47.4412 21.2649C48.2693 20.4749 48.6882 19.4945 48.6882 18.3236V18.2475C48.6882 16.8958 48.2503 15.8678 47.3841 15.1634C46.5084 14.459 45.3185 14.1068 43.8146 14.1068H39.1694V22.4548H43.9288V22.4548Z" fill="#528BFF" fill-opacity="0.67"/>
<path d="M59.2158 8.68115H79.7763V14.0307H65.146V19.5706H78.0249V24.9106H65.146V30.6504H79.9762V35.9904H59.2158V8.68115Z" fill="#528BFF" fill-opacity="0.67"/>
<path d="M90.114 35.9902L96.2822 26.6333L102.403 35.9902H109.428L100.118 22.3403H92.646L83.2891 35.9902H90.114Z" fill="#528BFF" fill-opacity="0.67"/>
<path d="M92.598 20.8937H100.013L111.702 0L96.3579 16.5055L81.0137 0L92.598 20.8937Z" fill="#528BFF" fill-opacity="0.67"/>
<path d="M116 25.2344H121.131V26.3385H117.209V28.2137H120.683V29.3179H117.209V32.1259H116V25.2344Z" fill="white"/>
<path d="M122.093 28.6987V28.6796C122.093 26.7378 123.587 25.1196 125.71 25.1196C127.833 25.1196 129.298 26.7283 129.298 28.6606V28.6796C129.298 30.6215 127.804 32.2397 125.681 32.2397C123.559 32.2397 122.093 30.631 122.093 28.6987M128.032 28.6987V28.6796C128.032 27.3375 127.062 26.2428 125.691 26.2428C124.32 26.2428 123.368 27.328 123.368 28.6606V28.6796C123.368 30.0218 124.339 31.126 125.71 31.126C127.081 31.126 128.032 30.0408 128.032 28.7082" fill="white"/>
<path d="M130.459 28.6987V28.6796C130.459 26.7378 131.953 25.1196 134.076 25.1196C136.199 25.1196 137.665 26.7283 137.665 28.6606V28.6796C137.665 30.6215 136.17 32.2397 134.048 32.2397C131.925 32.2397 130.459 30.631 130.459 28.6987ZM136.399 28.6987V28.6796C136.399 27.3375 135.428 26.2428 134.057 26.2428C132.686 26.2428 131.735 27.328 131.735 28.6606V28.6796C131.735 30.0218 132.705 31.126 134.076 31.126C135.447 31.126 136.399 30.0408 136.399 28.7082" fill="white"/>
<path d="M139.131 25.2344H141.701C143.871 25.2344 145.366 26.7193 145.366 28.6611V28.6802C145.366 30.622 143.871 32.1259 141.701 32.1259H139.131V25.2344V25.2344ZM140.34 26.3385V31.0218H141.701C143.148 31.0218 144.09 30.0509 144.09 28.6992V28.6802C144.09 27.3285 143.148 26.3385 141.701 26.3385H140.34Z" fill="white"/>
<path d="M149.925 28.6705V28.6515C149.925 27.8804 150.563 27.2617 151.324 27.2617C152.086 27.2617 152.714 27.8804 152.714 28.6515V28.6705C152.714 29.4415 152.086 30.0602 151.324 30.0602C150.563 30.0602 149.925 29.4415 149.925 28.6705Z" fill="white"/>
<path d="M160.015 25.1865H161.138L164.165 32.1257H162.88L162.186 30.4599H158.93L158.226 32.1257H156.988L160.015 25.1865V25.1865ZM161.748 29.3938L160.558 26.6334L159.377 29.3938H161.748Z" fill="white"/>
<path d="M166.154 26.3576H163.955V25.2344H169.562V26.3576H167.363V32.1259H166.154V26.3576Z" fill="white"/>
<path d="M172.504 26.3576H170.305V25.2344H175.911V26.3576H173.712V32.1259H172.504V26.3576Z" fill="white"/>
<path d="M177.168 25.2341H180.243C181.109 25.2341 181.785 25.4911 182.232 25.9195C182.594 26.2907 182.803 26.8047 182.803 27.4044V27.4234C182.803 28.5562 182.127 29.232 181.166 29.508L183.032 32.1162H181.594L179.9 29.7175H178.386V32.1162H177.177V25.2246L177.168 25.2341ZM180.147 28.6514C181.014 28.6514 181.566 28.204 181.566 27.4996V27.4806C181.566 26.7381 181.033 26.3383 180.138 26.3383H178.377V28.6514H180.147V28.6514Z" fill="white"/>
<path d="M186.724 25.1865H187.847L190.874 32.1257H189.589L188.894 30.4599H185.639L184.935 32.1257H183.697L186.724 25.1865V25.1865ZM188.457 29.3938L187.267 26.6334L186.086 29.3938H188.457Z" fill="white"/>
<path d="M191.322 28.6987V28.6796C191.322 26.7188 192.788 25.1196 194.863 25.1196C196.139 25.1196 196.91 25.567 197.566 26.1952L196.786 27.09C196.224 26.576 195.644 26.2428 194.844 26.2428C193.54 26.2428 192.578 27.3185 192.578 28.6606V28.6796C192.578 30.0313 193.53 31.126 194.853 31.126C195.701 31.126 196.243 30.7928 196.833 30.2407L197.614 31.0308C196.9 31.7828 196.11 32.2492 194.815 32.2492C192.797 32.2492 191.312 30.6786 191.312 28.7082" fill="white"/>
<path d="M200.584 26.3576H198.395V25.2344H203.992V26.3576H201.802V32.1259H200.584V26.3576Z" fill="white"/>
<path d="M206.533 25.2344H205.324V32.1259H206.533V25.2344Z" fill="white"/>
<path d="M208.065 28.6987V28.6796C208.065 26.7378 209.56 25.1196 211.683 25.1196C213.805 25.1196 215.271 26.7283 215.271 28.6606V28.6796C215.271 30.6215 213.777 32.2397 211.654 32.2397C209.531 32.2397 208.065 30.631 208.065 28.6987ZM214.005 28.6987V28.6796C214.005 27.3375 213.034 26.2428 211.664 26.2428C210.293 26.2428 209.341 27.328 209.341 28.6606V28.6796C209.341 30.0218 210.312 31.126 211.683 31.126C213.053 31.126 214.005 30.0408 214.005 28.7082" fill="white"/>
<path d="M216.737 25.2344H217.861L221.554 29.9937V25.2344H222.744V32.1259H221.735L217.927 27.2238V32.1259H216.737V25.2344Z" fill="white"/>
<path d="M224.058 31.1167L224.781 30.2505C225.438 30.8216 226.114 31.1452 226.961 31.1452C227.713 31.1452 228.179 30.793 228.179 30.279V30.26C228.179 29.765 227.903 29.4985 226.628 29.2034C225.162 28.8512 224.334 28.4134 224.334 27.1474V27.1283C224.334 25.948 225.314 25.1294 226.685 25.1294C227.684 25.1294 228.484 25.434 229.188 25.9956L228.541 26.9094C227.922 26.443 227.304 26.205 226.675 26.205C225.961 26.205 225.552 26.5667 225.552 27.0236V27.0427C225.552 27.5757 225.866 27.8137 227.199 28.1278C228.655 28.48 229.407 29.0035 229.407 30.1458V30.1648C229.407 31.4498 228.389 32.2209 226.951 32.2209C225.895 32.2209 224.905 31.8591 224.077 31.1167" fill="white"/>
<path d="M233.909 28.6705V28.6515C233.909 27.8804 234.547 27.2617 235.308 27.2617C236.07 27.2617 236.698 27.8804 236.698 28.6515V28.6705C236.698 29.4415 236.07 30.0602 235.308 30.0602C234.547 30.0602 233.909 29.4415 233.909 28.6705Z" fill="white"/>
<path d="M241.553 25.2344H246.664V26.31H242.771V28.109H246.226V29.2037H242.771V31.0408H246.712V32.1259H241.553V25.2344Z" fill="white"/>
<path d="M247.56 25.2344H248.902L250.977 30.5268L253.042 25.2344H254.356L251.5 32.1735H250.415L247.56 25.2344Z" fill="white"/>
<path d="M255.536 25.2344H260.648V26.31H256.745V28.109H260.2V29.2037H256.745V31.0408H260.695V32.1259H255.536V25.2344Z" fill="white"/>
<path d="M262.132 25.2344H263.255L266.948 29.9937V25.2344H268.138V32.1259H267.12L263.322 27.2238V32.1259H262.132V25.2344Z" fill="white"/>
<path d="M271.593 26.3576H269.395V25.2344H274.992V26.3576H272.802V32.1259H271.593V26.3576Z" fill="white"/>
<path d="M275.658 31.1167L276.382 30.2505C277.038 30.8216 277.714 31.1452 278.561 31.1452C279.313 31.1452 279.78 30.793 279.78 30.279V30.26C279.78 29.765 279.504 29.4985 278.228 29.2034C276.762 28.8512 275.934 28.4134 275.934 27.1474V27.1283C275.934 25.948 276.924 25.1294 278.285 25.1294C279.285 25.1294 280.084 25.434 280.789 25.9956L280.142 26.9094C279.523 26.443 278.904 26.205 278.276 26.205C277.571 26.205 277.153 26.5667 277.153 27.0236V27.0427C277.153 27.5757 277.467 27.8137 278.799 28.1278C280.256 28.48 281.008 29.0035 281.008 30.1458V30.1648C281.008 31.4498 279.989 32.2209 278.542 32.2209C277.486 32.2209 276.496 31.8591 275.668 31.1167" fill="white"/>
</svg>
