<svg width="128" height="45" viewBox="0 0 128 45" fill="none" xmlns="http://www.w3.org/2000/svg">
<path d="M12.7003 9.1787H18.7145L31.4148 38.907H24.5945L21.887 32.2904H9.36243L6.65497 38.907H0L12.7003 9.1787ZM19.5619 26.5588L15.6247 16.9889L11.6875 26.5588H19.5619Z" fill="white"/>
<path d="M36.0029 9.38465H48.1142C49.8916 9.38465 51.483 9.63162 52.878 10.1255C54.2731 10.6195 55.4615 11.3089 56.4329 12.2145C57.4043 13.1097 58.1586 14.1902 58.6753 15.4353C59.2023 16.6907 59.4607 18.0696 59.4607 19.5925V19.6748C59.4607 21.3933 59.1507 22.8957 58.5306 24.1922C57.9106 25.4888 57.0529 26.5693 55.9679 27.4439C54.8828 28.3186 53.6117 28.9669 52.1547 29.3991C50.6976 29.8415 49.1372 30.0576 47.4735 30.0576H42.5236V38.9175H36.0029V9.38465ZM47.6905 24.2745C49.3232 24.2745 50.5943 23.8424 51.5036 22.9883C52.4027 22.1342 52.8574 21.0743 52.8574 19.8086V19.7263C52.8574 18.2651 52.382 17.1537 51.4416 16.3923C50.4909 15.6308 49.1992 15.2501 47.5665 15.2501H42.5236V24.2745H47.6905Z" fill="white"/>
<path d="M64.2861 9.38465H86.6072V15.1677H70.7241V21.1566H84.7057V26.9294H70.7241V33.1344H86.8242V38.9072H64.2861V9.38465Z" fill="white"/>
<path d="M97.8302 38.907L104.527 28.7918L111.171 38.907H118.798L108.691 24.1509H100.579L90.4209 38.907H97.8302Z" fill="white"/>
<path d="M100.527 22.5869H108.577L121.267 0L104.609 17.8432L87.9512 0L100.527 22.5869Z" fill="white"/>
</svg>
