<svg width="127" height="19" viewBox="0 0 127 19" fill="none" xmlns="http://www.w3.org/2000/svg">
<path d="M121.938 5.62031V5.61023C121.938 4.53067 122.824 3.62768 123.941 3.62768C125.058 3.62768 125.945 4.52562 125.945 5.60013V5.61023C125.945 6.68978 125.058 7.59277 123.941 7.59277C122.824 7.59277 121.938 6.69483 121.938 5.62031ZM125.714 5.61023V5.60013C125.714 4.63661 124.956 3.8446 123.941 3.8446C122.926 3.8446 122.168 4.65174 122.168 5.61527V5.62536C122.168 6.58889 122.926 7.3809 123.941 7.3809C124.956 7.3809 125.714 6.57376 125.714 5.61023ZM123.157 4.56598H124.079C124.53 4.56598 124.863 4.7829 124.863 5.20161C124.863 5.52951 124.669 5.73634 124.392 5.81201L124.935 6.57375H124.464L123.982 5.88263H123.557V6.57375H123.167V4.56598H123.157ZM124.043 5.56482C124.31 5.56482 124.459 5.42862 124.459 5.23692C124.459 5.02 124.31 4.90902 124.043 4.90902H123.546V5.56482H124.043Z" fill="white" stroke="white" stroke-width="0.25"/>
<path d="M1.05957 0.702924H7.08632V1.27517H1.68679V4.66727H6.54091V5.23951H1.68679V8.69366H7.14768V9.2659H1.05957V0.702924Z" fill="white" stroke="white" stroke-width="0.75"/>
<path d="M10.3799 0.702924H10.973L16.8157 8.15589V0.702924H17.4224V9.2659H16.952L10.9866 1.65437V9.2659H10.3799V0.702924Z" fill="white" stroke="white" stroke-width="0.75"/>
<path d="M22.9374 1.27517H19.9854V0.702924H26.5234V1.27517H23.5714V9.2659H22.9374V1.27517Z" fill="white" stroke="white" stroke-width="0.75"/>
<path d="M29.6455 0.702924H35.6723V1.27517H30.2727V4.66727H35.1268V5.23951H30.2727V8.69366H35.7336V9.2659H29.6455V0.702924Z" fill="white" stroke="white" stroke-width="0.75"/>
<path d="M38.9658 0.702924H42.5246C43.0496 0.702924 43.5132 0.778763 43.9154 0.930443C44.3176 1.08212 44.6517 1.28896 44.9108 1.55095C45.1153 1.75778 45.2721 1.9922 45.3812 2.26798C45.4971 2.54376 45.5516 2.83333 45.5516 3.14358V3.17116C45.5516 3.52967 45.4903 3.84682 45.3675 4.1295C45.2448 4.41217 45.0676 4.65348 44.8494 4.86031C44.6312 5.06715 44.3654 5.23262 44.0654 5.35672C43.7654 5.48082 43.4313 5.57045 43.0768 5.61871L45.872 9.27969H45.0744L42.3746 5.72902H39.5999V9.27969H38.9726V0.702924H38.9658ZM42.4496 5.14299C42.8041 5.14299 43.1314 5.10162 43.4382 5.0051C43.7381 4.91547 43.9972 4.78447 44.2154 4.619C44.4335 4.45354 44.604 4.2467 44.7267 4.00539C44.8494 3.76409 44.9108 3.48831 44.9108 3.17805V3.15737C44.9108 2.57823 44.6994 2.1163 44.2767 1.78536C43.854 1.44753 43.2541 1.28206 42.4769 1.28206H39.5862V5.14988H42.4428L42.4496 5.14299Z" fill="white" stroke="white" stroke-width="0.75"/>
<path d="M50.7128 1.27517H47.7607V0.702924H54.2988V1.27517H51.34V9.2659H50.7128V1.27517Z" fill="white" stroke="white" stroke-width="0.75"/>
<path d="M59.5206 0.640667H60.1274L64.0748 9.27259H63.3862L62.309 6.8733H57.3118L56.2346 9.27259H55.5801L59.5275 0.640667H59.5206ZM62.0363 6.29416L59.807 1.33701L57.5708 6.29416H62.0363Z" fill="white" stroke="white" stroke-width="0.75"/>
<path d="M67.7835 0.702924H67.1562V9.2728H67.7835V0.702924Z" fill="white" stroke="white" stroke-width="0.75"/>
<path d="M71.6006 0.702924H72.1937L78.0364 8.15589V0.702924H78.6432V9.2659H78.1727L72.2005 1.65437V9.2659H71.6006V0.702924Z" fill="white" stroke="white" stroke-width="0.75"/>
<path d="M82.373 0.702924H82.9662L86.3613 5.76349L89.7633 0.702924H90.3565V9.2659H89.7292V1.82673L86.375 6.7563H86.3273L82.973 1.82673V9.2659H82.373V0.702924Z" fill="white" stroke="white" stroke-width="0.75"/>
<path d="M94.0859 0.702924H100.113V1.27517H94.7132V4.66727H99.5673V5.23951H94.7132V8.69366H100.174V9.2659H94.0859V0.702924Z" fill="white" stroke="white" stroke-width="0.75"/>
<path d="M103.406 0.702924H103.999L109.842 8.15589V0.702924H110.449V9.2659H109.978L104.013 1.65437V9.2659H103.406V0.702924Z" fill="white" stroke="white" stroke-width="0.75"/>
<path d="M116.244 1.27517H113.292V0.702924H119.83V1.27517H116.878V9.2659H116.244V1.27517Z" fill="white" stroke="white" stroke-width="0.75"/>
<path d="M1.05957 13.0855H4.73425V13.8852H1.9254V15.2435H4.41382V16.0432H1.9254V18.0771H1.05957V13.0855Z" fill="white"/>
<path d="M5.42383 15.5947V15.5809C5.42383 14.1744 6.49419 13.0024 8.01451 13.0024C9.53483 13.0024 10.5847 14.1675 10.5847 15.5671V15.5809C10.5847 16.9874 9.51438 18.1595 7.99406 18.1595C6.47374 18.1595 5.42383 16.9943 5.42383 15.5947ZM9.67801 15.5947V15.5809C9.67801 14.6088 8.98261 13.8159 8.00088 13.8159C7.01914 13.8159 6.33738 14.6019 6.33738 15.5671V15.5809C6.33738 16.553 7.03278 17.3528 8.01451 17.3528C8.99624 17.3528 9.67801 16.5668 9.67801 15.6016" fill="white"/>
<path d="M11.416 15.5947V15.5809C11.416 14.1744 12.4864 13.0024 14.0067 13.0024C15.527 13.0024 16.5769 14.1675 16.5769 15.5671V15.5809C16.5769 16.9874 15.5066 18.1595 13.9863 18.1595C12.4659 18.1595 11.416 16.9943 11.416 15.5947ZM15.6702 15.5947V15.5809C15.6702 14.6088 14.9748 13.8159 13.9931 13.8159C13.0113 13.8159 12.3296 14.6019 12.3296 15.5671V15.5809C12.3296 16.553 13.025 17.3528 14.0067 17.3528C14.9884 17.3528 15.6702 16.5668 15.6702 15.6016" fill="white"/>
<path d="M17.626 13.0855H19.4667C21.0211 13.0855 22.0915 14.161 22.0915 15.5675V15.5813C22.0915 16.9878 21.0211 18.0771 19.4667 18.0771H17.626V13.0855ZM18.4918 13.8852V17.2773H19.4667C20.503 17.2773 21.1779 16.5741 21.1779 15.5951V15.5813C21.1779 14.6023 20.503 13.8852 19.4667 13.8852H18.4918Z" fill="white"/>
<path d="M25.3574 15.5743V15.5605C25.3574 15.002 25.8142 14.5539 26.3596 14.5539C26.905 14.5539 27.355 15.002 27.355 15.5605V15.5743C27.355 16.1327 26.905 16.5809 26.3596 16.5809C25.8142 16.5809 25.3574 16.1327 25.3574 15.5743Z" fill="white"/>
<path d="M32.584 13.0508H33.3885L35.5565 18.0769H34.6361L34.1384 16.8704H31.8068L31.3023 18.0769H30.416L32.584 13.0508ZM33.8248 16.0982L32.9726 14.0988L32.1272 16.0982H33.8248Z" fill="white"/>
<path d="M36.9811 13.899H35.4062V13.0855H39.4218V13.899H37.8469V18.0771H36.9811V13.899Z" fill="white"/>
<path d="M41.529 13.899H39.9541V13.0855H43.9697V13.899H42.3948V18.0771H41.529V13.899Z" fill="white"/>
<path d="M44.8701 13.0853H47.0722C47.6926 13.0853 48.1766 13.2715 48.4971 13.5817C48.7561 13.8506 48.9061 14.2229 48.9061 14.6573V14.671C48.9061 15.4915 48.4221 15.981 47.7335 16.1809L49.0698 18.07H48.0403L46.8268 16.3326H45.7428V18.07H44.8769V13.0784L44.8701 13.0853ZM47.004 15.5604C47.6244 15.5604 48.0198 15.2364 48.0198 14.7262V14.7124C48.0198 14.1746 47.6381 13.8851 46.9972 13.8851H45.736V15.5604H47.004Z" fill="white"/>
<path d="M51.7149 13.0508H52.5193L54.6873 18.0769H53.767L53.2693 16.8704H50.9377L50.4332 18.0769H49.5469L51.7149 13.0508ZM52.9557 16.0982L52.1035 14.0988L51.2581 16.0982H52.9557Z" fill="white"/>
<path d="M55.0078 15.5947V15.5809C55.0078 14.1606 56.0577 13.0024 57.5439 13.0024C58.4575 13.0024 59.0097 13.3264 59.4801 13.7814L58.9211 14.4295C58.5189 14.0572 58.103 13.8159 57.5303 13.8159C56.5963 13.8159 55.9077 14.595 55.9077 15.5671V15.5809C55.9077 16.5599 56.5895 17.3528 57.5371 17.3528C58.1439 17.3528 58.5325 17.1115 58.9552 16.7116L59.5142 17.2838C59.0029 17.8285 58.437 18.1663 57.5098 18.1663C56.0645 18.1663 55.001 17.0288 55.001 15.6016" fill="white"/>
<path d="M61.6403 13.899H60.0723V13.0855H64.081V13.899H62.513V18.0771H61.6403V13.899Z" fill="white"/>
<path d="M65.902 13.0855H65.0361V18.0771H65.902V13.0855Z" fill="white"/>
<path d="M66.999 15.5947V15.5809C66.999 14.1744 68.0694 13.0024 69.5897 13.0024C71.11 13.0024 72.1599 14.1675 72.1599 15.5671V15.5809C72.1599 16.9874 71.0896 18.1595 69.5693 18.1595C68.0489 18.1595 66.999 16.9943 66.999 15.5947ZM71.2532 15.5947V15.5809C71.2532 14.6088 70.5578 13.8159 69.5761 13.8159C68.5943 13.8159 67.9126 14.6019 67.9126 15.5671V15.5809C67.9126 16.553 68.608 17.3528 69.5897 17.3528C70.5714 17.3528 71.2532 16.5668 71.2532 15.6016" fill="white"/>
<path d="M73.2109 13.0855H74.0154L76.6606 16.5327V13.0855H77.5128V18.0771H76.7902L74.0631 14.5264V18.0771H73.2109V13.0855Z" fill="white"/>
<path d="M78.4531 17.3462L78.9713 16.7188C79.4417 17.1324 79.9257 17.3668 80.5325 17.3668C81.0711 17.3668 81.4051 17.1117 81.4051 16.7394V16.7257C81.4051 16.3671 81.2074 16.1741 80.2939 15.9604C79.244 15.7053 78.6508 15.3881 78.6508 14.4711V14.4574C78.6508 13.6024 79.3531 13.0095 80.3348 13.0095C81.0506 13.0095 81.6233 13.2301 82.1278 13.6369L81.6642 14.2988C81.2211 13.961 80.7779 13.7886 80.328 13.7886C79.8166 13.7886 79.5235 14.0506 79.5235 14.3815V14.3953C79.5235 14.7814 79.7485 14.9538 80.7029 15.1813C81.746 15.4364 82.2846 15.8156 82.2846 16.6429V16.6567C82.2846 17.5875 81.5551 18.1459 80.5257 18.1459C79.7689 18.1459 79.0599 17.8839 78.4668 17.3462" fill="white"/>
<path d="M85.5098 15.5743V15.5605C85.5098 15.002 85.9665 14.5539 86.512 14.5539C87.0574 14.5539 87.5073 15.002 87.5073 15.5605V15.5743C87.5073 16.1327 87.0574 16.5809 86.512 16.5809C85.9665 16.5809 85.5098 16.1327 85.5098 15.5743Z" fill="white"/>
<path d="M90.9844 13.0855H94.6454V13.8645H91.857V15.1676H94.3318V15.9605H91.857V17.2911H94.6795V18.0771H90.9844V13.0855Z" fill="white"/>
<path d="M95.2861 13.0855H96.2474L97.7337 16.9188L99.2131 13.0855H100.154L98.1086 18.1116H97.3314L95.2861 13.0855Z" fill="white"/>
<path d="M101 13.0855H104.661V13.8645H101.866V15.1676H104.341V15.9605H101.866V17.2911H104.695V18.0771H101V13.0855Z" fill="white"/>
<path d="M105.723 13.0855H106.527L109.172 16.5327V13.0855H110.025V18.0771H109.295L106.575 14.5264V18.0771H105.723V13.0855Z" fill="white"/>
<path d="M112.5 13.899H110.925V13.0855H114.934V13.899H113.366V18.0771H112.5V13.899Z" fill="white"/>
<path d="M115.411 17.3462L115.929 16.7188C116.4 17.1324 116.884 17.3668 117.49 17.3668C118.029 17.3668 118.363 17.1117 118.363 16.7394V16.7257C118.363 16.3671 118.165 16.1741 117.252 15.9604C116.202 15.7053 115.609 15.3881 115.609 14.4711V14.4574C115.609 13.6024 116.318 13.0095 117.293 13.0095C118.009 13.0095 118.581 13.2301 119.086 13.6369L118.622 14.2988C118.179 13.961 117.736 13.7886 117.286 13.7886C116.781 13.7886 116.481 14.0506 116.481 14.3815V14.3953C116.481 14.7814 116.706 14.9538 117.661 15.1813C118.704 15.4364 119.243 15.8156 119.243 16.6429V16.6567C119.243 17.5875 118.513 18.1459 117.477 18.1459C116.72 18.1459 116.011 17.8839 115.418 17.3462" fill="white"/>
</svg>
