<svg width="143" height="80" viewBox="0 0 143 80" fill="none" xmlns="http://www.w3.org/2000/svg">
<g filter="url(#filter0_dd_1333_35146)">
<path d="M20.7003 12.1787H26.7145L39.4148 41.907H32.5945L29.887 35.2904H17.3624L14.655 41.907H8L20.7003 12.1787ZM27.5619 29.5588L23.6247 19.9889L19.6875 29.5588H27.5619Z" fill="white"/>
<path d="M44.0029 12.3847H56.1142C57.8916 12.3847 59.483 12.6316 60.878 13.1255C62.2731 13.6195 63.4615 14.3089 64.4329 15.2145C65.4043 16.1097 66.1586 17.1902 66.6753 18.4353C67.2023 19.6907 67.4607 21.0696 67.4607 22.5925V22.6748C67.4607 24.3933 67.1507 25.8957 66.5306 27.1922C65.9106 28.4888 65.0529 29.5693 63.9679 30.4439C62.8828 31.3186 61.6117 31.9669 60.1547 32.3991C58.6976 32.8415 57.1372 33.0576 55.4735 33.0576H50.5236V41.9175H44.0029V12.3847ZM55.6905 27.2745C57.3232 27.2745 58.5943 26.8424 59.5036 25.9883C60.4027 25.1342 60.8574 24.0743 60.8574 22.8086V22.7263C60.8574 21.2651 60.382 20.1537 59.4416 19.3923C58.4909 18.6308 57.1992 18.2501 55.5665 18.2501H50.5236V27.2745H55.6905Z" fill="white"/>
<path d="M72.2861 12.3847H94.6072V18.1677H78.7241V24.1566H92.7057V29.9294H78.7241V36.1344H94.8242V41.9072H72.2861V12.3847Z" fill="white"/>
<path d="M105.83 41.907L112.527 31.7918L119.171 41.907H126.798L116.691 27.1509H108.579L98.4209 41.907H105.83Z" fill="white"/>
<path d="M108.527 25.5869H116.577L129.267 3L112.609 20.8432L95.9512 3L108.527 25.5869Z" fill="white"/>
<path d="M128.938 54.6203V54.6102C128.938 53.5307 129.824 52.6277 130.941 52.6277C132.058 52.6277 132.945 53.5256 132.945 54.6001V54.6102C132.945 55.6898 132.058 56.5928 130.941 56.5928C129.824 56.5928 128.938 55.6948 128.938 54.6203ZM132.714 54.6102V54.6001C132.714 53.6366 131.956 52.8446 130.941 52.8446C129.926 52.8446 129.168 53.6517 129.168 54.6153V54.6254C129.168 55.5889 129.926 56.3809 130.941 56.3809C131.956 56.3809 132.714 55.5738 132.714 54.6102ZM130.157 53.566H131.079C131.53 53.566 131.863 53.7829 131.863 54.2016C131.863 54.5295 131.669 54.7363 131.392 54.812L131.935 55.5738H131.464L130.982 54.8826H130.557V55.5738H130.167V53.566H130.157ZM131.043 54.5648C131.31 54.5648 131.459 54.4286 131.459 54.2369C131.459 54.02 131.31 53.909 131.043 53.909H130.546V54.5648H131.043Z" fill="white" stroke="white" stroke-width="0.25"/>
<path d="M8.05957 49.7029H14.0863V50.2752H8.68679V53.6673H13.5409V54.2395H8.68679V57.6937H14.1477V58.2659H8.05957V49.7029Z" fill="white" stroke="white" stroke-width="0.75"/>
<path d="M17.3799 49.7029H17.973L23.8157 57.1559V49.7029H24.4224V58.2659H23.952L17.9866 50.6544V58.2659H17.3799V49.7029Z" fill="white" stroke="white" stroke-width="0.75"/>
<path d="M29.9374 50.2752H26.9854V49.7029H33.5234V50.2752H30.5714V58.2659H29.9374V50.2752Z" fill="white" stroke="white" stroke-width="0.75"/>
<path d="M36.6455 49.7029H42.6723V50.2752H37.2727V53.6673H42.1268V54.2395H37.2727V57.6937H42.7336V58.2659H36.6455V49.7029Z" fill="white" stroke="white" stroke-width="0.75"/>
<path d="M45.9658 49.7029H49.5246C50.0496 49.7029 50.5132 49.7788 50.9154 49.9304C51.3176 50.0821 51.6517 50.289 51.9108 50.5509C52.1153 50.7578 52.2721 50.9922 52.3812 51.268C52.4971 51.5438 52.5516 51.8333 52.5516 52.1436V52.1712C52.5516 52.5297 52.4903 52.8468 52.3675 53.1295C52.2448 53.4122 52.0676 53.6535 51.8494 53.8603C51.6312 54.0671 51.3654 54.2326 51.0654 54.3567C50.7654 54.4808 50.4313 54.5704 50.0768 54.6187L52.872 58.2797H52.0744L49.3746 54.729H46.5999V58.2797H45.9726V49.7029H45.9658ZM49.4496 54.143C49.8041 54.143 50.1314 54.1016 50.4382 54.0051C50.7381 53.9155 50.9972 53.7845 51.2154 53.619C51.4335 53.4535 51.604 53.2467 51.7267 53.0054C51.8494 52.7641 51.9108 52.4883 51.9108 52.1781V52.1574C51.9108 51.5782 51.6994 51.1163 51.2767 50.7854C50.854 50.4475 50.2541 50.2821 49.4769 50.2821H46.5862V54.1499H49.4428L49.4496 54.143Z" fill="white" stroke="white" stroke-width="0.75"/>
<path d="M57.7128 50.2752H54.7607V49.7029H61.2988V50.2752H58.34V58.2659H57.7128V50.2752Z" fill="white" stroke="white" stroke-width="0.75"/>
<path d="M66.5206 49.6407H67.1274L71.0748 58.2726H70.3862L69.309 55.8733H64.3118L63.2346 58.2726H62.5801L66.5275 49.6407H66.5206ZM69.0363 55.2942L66.807 50.337L64.5708 55.2942H69.0363Z" fill="white" stroke="white" stroke-width="0.75"/>
<path d="M74.7835 49.7029H74.1562V58.2728H74.7835V49.7029Z" fill="white" stroke="white" stroke-width="0.75"/>
<path d="M78.6006 49.7029H79.1937L85.0364 57.1559V49.7029H85.6432V58.2659H85.1727L79.2005 50.6544V58.2659H78.6006V49.7029Z" fill="white" stroke="white" stroke-width="0.75"/>
<path d="M89.373 49.7029H89.9662L93.3613 54.7635L96.7633 49.7029H97.3565V58.2659H96.7292V50.8267L93.375 55.7563H93.3273L89.973 50.8267V58.2659H89.373V49.7029Z" fill="white" stroke="white" stroke-width="0.75"/>
<path d="M101.086 49.7029H107.113V50.2752H101.713V53.6673H106.567V54.2395H101.713V57.6937H107.174V58.2659H101.086V49.7029Z" fill="white" stroke="white" stroke-width="0.75"/>
<path d="M110.406 49.7029H110.999L116.842 57.1559V49.7029H117.449V58.2659H116.978L111.013 50.6544V58.2659H110.406V49.7029Z" fill="white" stroke="white" stroke-width="0.75"/>
<path d="M123.244 50.2752H120.292V49.7029H126.83V50.2752H123.878V58.2659H123.244V50.2752Z" fill="white" stroke="white" stroke-width="0.75"/>
<path d="M8.05957 62.0855H11.7343V62.8852H8.9254V64.2435H11.4138V65.0432H8.9254V67.0771H8.05957V62.0855Z" fill="white"/>
<path d="M12.4238 64.5947V64.5809C12.4238 63.1744 13.4942 62.0024 15.0145 62.0024C16.5348 62.0024 17.5847 63.1675 17.5847 64.5671V64.5809C17.5847 65.9874 16.5144 67.1595 14.9941 67.1595C13.4737 67.1595 12.4238 65.9943 12.4238 64.5947ZM16.678 64.5947V64.5809C16.678 63.6088 15.9826 62.8159 15.0009 62.8159C14.0191 62.8159 13.3374 63.6019 13.3374 64.5671V64.5809C13.3374 65.553 14.0328 66.3528 15.0145 66.3528C15.9962 66.3528 16.678 65.5668 16.678 64.6016" fill="white"/>
<path d="M18.416 64.5947V64.5809C18.416 63.1744 19.4864 62.0024 21.0067 62.0024C22.527 62.0024 23.5769 63.1675 23.5769 64.5671V64.5809C23.5769 65.9874 22.5066 67.1595 20.9863 67.1595C19.4659 67.1595 18.416 65.9943 18.416 64.5947ZM22.6702 64.5947V64.5809C22.6702 63.6088 21.9748 62.8159 20.9931 62.8159C20.0113 62.8159 19.3296 63.6019 19.3296 64.5671V64.5809C19.3296 65.553 20.025 66.3528 21.0067 66.3528C21.9884 66.3528 22.6702 65.5668 22.6702 64.6016" fill="white"/>
<path d="M24.626 62.0855H26.4667C28.0211 62.0855 29.0915 63.161 29.0915 64.5675V64.5813C29.0915 65.9878 28.0211 67.0771 26.4667 67.0771H24.626V62.0855ZM25.4918 62.8852V66.2773H26.4667C27.503 66.2773 28.1779 65.5741 28.1779 64.5951V64.5813C28.1779 63.6023 27.503 62.8852 26.4667 62.8852H25.4918Z" fill="white"/>
<path d="M32.3574 64.5743V64.5605C32.3574 64.002 32.8142 63.5539 33.3596 63.5539C33.905 63.5539 34.355 64.002 34.355 64.5605V64.5743C34.355 65.1327 33.905 65.5809 33.3596 65.5809C32.8142 65.5809 32.3574 65.1327 32.3574 64.5743Z" fill="white"/>
<path d="M39.584 62.0508H40.3885L42.5565 67.0769H41.6361L41.1384 65.8704H38.8068L38.3023 67.0769H37.416L39.584 62.0508ZM40.8248 65.0982L39.9726 63.0988L39.1272 65.0982H40.8248Z" fill="white"/>
<path d="M43.9811 62.899H42.4062V62.0855H46.4218V62.899H44.8469V67.0771H43.9811V62.899Z" fill="white"/>
<path d="M48.529 62.899H46.9541V62.0855H50.9697V62.899H49.3948V67.0771H48.529V62.899Z" fill="white"/>
<path d="M51.8701 62.0853H54.0722C54.6926 62.0853 55.1766 62.2715 55.4971 62.5817C55.7561 62.8506 55.9061 63.2229 55.9061 63.6573V63.671C55.9061 64.4915 55.4221 64.981 54.7335 65.1809L56.0698 67.07H55.0403L53.8268 65.3326H52.7428V67.07H51.8769V62.0784L51.8701 62.0853ZM54.004 64.5604C54.6244 64.5604 55.0198 64.2364 55.0198 63.7262V63.7124C55.0198 63.1746 54.6381 62.8851 53.9972 62.8851H52.736V64.5604H54.004Z" fill="white"/>
<path d="M58.7149 62.0508H59.5193L61.6873 67.0769H60.767L60.2693 65.8704H57.9377L57.4332 67.0769H56.5469L58.7149 62.0508ZM59.9557 65.0982L59.1035 63.0988L58.2581 65.0982H59.9557Z" fill="white"/>
<path d="M62.0078 64.5947V64.5809C62.0078 63.1606 63.0577 62.0024 64.5439 62.0024C65.4575 62.0024 66.0097 62.3264 66.4801 62.7814L65.9211 63.4295C65.5189 63.0572 65.103 62.8159 64.5303 62.8159C63.5963 62.8159 62.9077 63.595 62.9077 64.5671V64.5809C62.9077 65.5599 63.5895 66.3528 64.5371 66.3528C65.1439 66.3528 65.5325 66.1115 65.9552 65.7116L66.5142 66.2838C66.0029 66.8285 65.437 67.1663 64.5098 67.1663C63.0645 67.1663 62.001 66.0288 62.001 64.6016" fill="white"/>
<path d="M68.6403 62.899H67.0723V62.0855H71.081V62.899H69.513V67.0771H68.6403V62.899Z" fill="white"/>
<path d="M72.902 62.0855H72.0361V67.0771H72.902V62.0855Z" fill="white"/>
<path d="M73.999 64.5947V64.5809C73.999 63.1744 75.0694 62.0024 76.5897 62.0024C78.11 62.0024 79.1599 63.1675 79.1599 64.5671V64.5809C79.1599 65.9874 78.0896 67.1595 76.5693 67.1595C75.0489 67.1595 73.999 65.9943 73.999 64.5947ZM78.2532 64.5947V64.5809C78.2532 63.6088 77.5578 62.8159 76.5761 62.8159C75.5943 62.8159 74.9126 63.6019 74.9126 64.5671V64.5809C74.9126 65.553 75.608 66.3528 76.5897 66.3528C77.5714 66.3528 78.2532 65.5668 78.2532 64.6016" fill="white"/>
<path d="M80.2109 62.0855H81.0154L83.6606 65.5327V62.0855H84.5128V67.0771H83.7902L81.0631 63.5264V67.0771H80.2109V62.0855Z" fill="white"/>
<path d="M85.4531 66.3462L85.9713 65.7188C86.4417 66.1324 86.9257 66.3668 87.5325 66.3668C88.0711 66.3668 88.4051 66.1117 88.4051 65.7394V65.7257C88.4051 65.3671 88.2074 65.1741 87.2939 64.9604C86.244 64.7053 85.6508 64.3881 85.6508 63.4711V63.4574C85.6508 62.6024 86.3531 62.0095 87.3348 62.0095C88.0506 62.0095 88.6233 62.2301 89.1278 62.6369L88.6642 63.2988C88.2211 62.961 87.7779 62.7886 87.328 62.7886C86.8166 62.7886 86.5235 63.0506 86.5235 63.3815V63.3953C86.5235 63.7814 86.7485 63.9538 87.7029 64.1813C88.746 64.4364 89.2846 64.8156 89.2846 65.6429V65.6567C89.2846 66.5875 88.5551 67.1459 87.5257 67.1459C86.7689 67.1459 86.0599 66.8839 85.4668 66.3462" fill="white"/>
<path d="M92.5098 64.5743V64.5605C92.5098 64.002 92.9665 63.5539 93.512 63.5539C94.0574 63.5539 94.5073 64.002 94.5073 64.5605V64.5743C94.5073 65.1327 94.0574 65.5809 93.512 65.5809C92.9665 65.5809 92.5098 65.1327 92.5098 64.5743Z" fill="white"/>
<path d="M97.9844 62.0855H101.645V62.8645H98.857V64.1676H101.332V64.9605H98.857V66.2911H101.68V67.0771H97.9844V62.0855Z" fill="white"/>
<path d="M102.286 62.0855H103.247L104.734 65.9188L106.213 62.0855H107.154L105.109 67.1116H104.331L102.286 62.0855Z" fill="white"/>
<path d="M108 62.0855H111.661V62.8645H108.866V64.1676H111.341V64.9605H108.866V66.2911H111.695V67.0771H108V62.0855Z" fill="white"/>
<path d="M112.723 62.0855H113.527L116.172 65.5327V62.0855H117.025V67.0771H116.295L113.575 63.5264V67.0771H112.723V62.0855Z" fill="white"/>
<path d="M119.5 62.899H117.925V62.0855H121.934V62.899H120.366V67.0771H119.5V62.899Z" fill="white"/>
<path d="M122.411 66.3462L122.929 65.7188C123.4 66.1324 123.884 66.3668 124.49 66.3668C125.029 66.3668 125.363 66.1117 125.363 65.7394V65.7257C125.363 65.3671 125.165 65.1741 124.252 64.9604C123.202 64.7053 122.609 64.3881 122.609 63.4711V63.4574C122.609 62.6024 123.318 62.0095 124.293 62.0095C125.009 62.0095 125.581 62.2301 126.086 62.6369L125.622 63.2988C125.179 62.961 124.736 62.7886 124.286 62.7886C123.781 62.7886 123.481 63.0506 123.481 63.3815V63.3953C123.481 63.7814 123.706 63.9538 124.661 64.1813C125.704 64.4364 126.243 64.8156 126.243 65.6429V65.6567C126.243 66.5875 125.513 67.1459 124.477 67.1459C123.72 67.1459 123.011 66.8839 122.418 66.3462" fill="white"/>
</g>
<defs>
<filter id="filter0_dd_1333_35146" x="0.443184" y="0.586205" width="142.178" height="78.6491" filterUnits="userSpaceOnUse" color-interpolation-filters="sRGB">
<feFlood flood-opacity="0" result="BackgroundImageFix"/>
<feColorMatrix in="SourceAlpha" type="matrix" values="0 0 0 0 0 0 0 0 0 0 0 0 0 0 0 0 0 0 127 0" result="hardAlpha"/>
<feMorphology radius="2.4138" operator="erode" in="SourceAlpha" result="effect1_dropShadow_1333_35146"/>
<feOffset dy="2.4138"/>
<feGaussianBlur stdDeviation="2.4138"/>
<feColorMatrix type="matrix" values="0 0 0 0 0.0627451 0 0 0 0 0.0941176 0 0 0 0 0.156863 0 0 0 0.06 0"/>
<feBlend mode="normal" in2="BackgroundImageFix" result="effect1_dropShadow_1333_35146"/>
<feColorMatrix in="SourceAlpha" type="matrix" values="0 0 0 0 0 0 0 0 0 0 0 0 0 0 0 0 0 0 127 0" result="hardAlpha"/>
<feMorphology radius="2.4138" operator="erode" in="SourceAlpha" result="effect2_dropShadow_1333_35146"/>
<feOffset dy="4.82759"/>
<feGaussianBlur stdDeviation="4.82759"/>
<feColorMatrix type="matrix" values="0 0 0 0 0.0627451 0 0 0 0 0.0941176 0 0 0 0 0.156863 0 0 0 0.1 0"/>
<feBlend mode="normal" in2="effect1_dropShadow_1333_35146" result="effect2_dropShadow_1333_35146"/>
<feBlend mode="normal" in="SourceGraphic" in2="effect2_dropShadow_1333_35146" result="shape"/>
</filter>
</defs>
</svg>
