<svg width="14" height="8" viewBox="0 0 14 8" fill="none" xmlns="http://www.w3.org/2000/svg">
<path d="M14 1.00001C12.8396 0.998488 11.6902 1.22585 10.6178 1.66907C9.54531 2.1123 8.57079 2.76269 7.75 3.58301C6.92964 4.40418 5.95528 5.0554 4.88278 5.49932C3.81029 5.94325 2.66074 6.17117 1.5 6.17001C0.339469 6.17156 -0.809961 5.94412 -1.88245 5.50071C-2.95493 5.0573 -3.92939 4.40664 -4.75 3.58601C-6.40944 1.93187 -8.65694 1.00302 -11 1.00302C-13.3431 1.00302 -15.5906 1.93187 -17.25 3.58601C-18.9092 5.24064 -21.1568 6.16982 -23.5 6.16982C-25.8432 6.16982 -28.0908 5.24064 -29.75 3.58601C-30.5705 2.76515 -31.5449 2.1142 -32.6174 1.67046C-33.6899 1.22671 -34.8394 0.998882 -36 1.00001" stroke="#FC6F2E" stroke-width="2" stroke-miterlimit="10"/>
</svg>
