<svg width="50" height="8" viewBox="0 0 50 8" fill="none" xmlns="http://www.w3.org/2000/svg">
<path d="M50 1.00001C48.8396 0.998488 47.6902 1.22585 46.6178 1.66907C45.5453 2.1123 44.5708 2.76269 43.75 3.58301C42.9296 4.40418 41.9553 5.0554 40.8828 5.49932C39.8103 5.94325 38.6607 6.17117 37.5 6.17001C36.3395 6.17156 35.19 5.94412 34.1176 5.50071C33.0451 5.0573 32.0706 4.40664 31.25 3.58601C29.5906 1.93187 27.3431 1.00302 25 1.00302C22.6569 1.00302 20.4094 1.93187 18.75 3.58601C17.0908 5.24064 14.8432 6.16982 12.5 6.16982C10.1568 6.16982 7.90918 5.24064 6.25 3.58601C5.42946 2.76515 4.45507 2.1142 3.3826 1.67046C2.31013 1.22671 1.16065 0.998882 0 1.00001" stroke="#FC6F2E" stroke-width="2" stroke-miterlimit="10"/>
</svg>
