<svg width="80" height="73" viewBox="0 0 80 73" fill="none" xmlns="http://www.w3.org/2000/svg">
<g opacity="0.5">
<path d="M73.7095 10.9918C62.5406 15.8898 56.9562 23.4326 56.9562 33.6204C56.9562 38.1265 57.6419 41.0653 59.0136 42.4367C60.5811 43.6122 62.6385 44.2 65.1859 44.2C69.8885 44.2 73.3176 45.3755 75.473 47.7265C77.8243 50.0776 79 53.0163 79 56.5429C79 61.2449 77.5304 64.9674 74.5912 67.7102C71.848 70.453 67.929 71.8245 62.8345 71.8245C50.294 71.8245 44.0238 65.2613 44.0238 52.1347V42.1429C44.0238 30.9755 46.767 22.0613 52.2535 15.4C57.9358 8.73877 65.0879 3.93878 73.7095 1V10.9918ZM29.6857 12.1673C18.3208 17.0654 12.6385 24.6081 12.6385 34.7959C12.6385 39.302 13.3243 42.2408 14.6959 43.6122C16.2634 44.7878 18.4189 45.3755 21.1621 45.3755C30.1756 45.3755 34.6823 49.4898 34.6823 57.7184C34.6823 62.4204 33.3106 66.1429 30.5675 68.8857C27.8243 71.6285 23.9053 73 18.8107 73C11.1689 73 6.07431 71.0408 3.52701 67.1225C1.17567 63.2041 0 58.5021 0 53.0163V43.3184C0 31.9551 2.74323 23.0408 8.2297 16.5755C13.9121 9.91428 21.0642 5.11427 29.6857 2.17549V12.1673Z" fill="#04FFB1"/>
</g>
</svg>
