<svg width="80" height="72" viewBox="0 0 80 72" fill="none" xmlns="http://www.w3.org/2000/svg">
<path d="M74.0101 10.3469C62.8229 15.2136 57.2293 22.7082 57.2293 32.8309C57.2293 37.3082 57.9162 40.2282 59.2901 41.5909C60.8602 42.7589 62.921 43.3429 65.4725 43.3429C70.1829 43.3429 73.6176 44.5109 75.7765 46.8469C78.1317 49.1829 79.3093 52.1029 79.3093 55.6069C79.3093 60.2789 77.8373 63.9777 74.8933 66.7029C72.1456 69.4282 68.2202 70.7909 63.1173 70.7909C50.5562 70.7909 44.2757 64.2697 44.2757 51.2269V41.2989C44.2757 30.2029 47.0234 21.3457 52.5189 14.7269C58.2106 8.10827 65.3744 3.33895 74.0101 0.418945V10.3469ZM29.9141 11.5149C18.5306 16.3817 12.8389 23.8762 12.8389 33.9989C12.8389 38.4762 13.5258 41.3962 14.8997 42.7589C16.4698 43.9269 18.6288 44.5109 21.3765 44.5109C30.4048 44.5109 34.9189 48.5989 34.9189 56.7749C34.9189 61.4469 33.545 65.1457 30.7973 67.8709C28.0496 70.5962 24.1242 71.9589 19.0213 71.9589C11.3669 71.9589 6.26396 70.0122 3.71249 66.1189C1.35729 62.2257 0.179688 57.5537 0.179688 52.1029V42.4669C0.179688 31.1762 2.92742 22.3189 8.42289 15.8949C14.1146 9.27627 21.2784 4.50693 29.9141 1.58693V11.5149Z" fill="#04FFB1"/>
</svg>
