<svg width="20" height="20" viewBox="0 0 20 20" fill="none" xmlns="http://www.w3.org/2000/svg">
<path d="M18.9431 2.94277C19.4638 2.42207 19.4638 1.57785 18.9431 1.05715C18.4224 0.536451 17.5782 0.536451 17.0575 1.05715L10.0003 8.11434L2.94313 1.05715C2.42244 0.536451 1.57822 0.536451 1.05752 1.05715C0.536817 1.57785 0.536817 2.42207 1.05752 2.94277L8.11471 9.99996L1.05752 17.0572C0.536817 17.5778 0.536817 18.4221 1.05752 18.9428C1.57822 19.4635 2.42244 19.4635 2.94313 18.9428L10.0003 11.8856L17.0575 18.9428C17.5782 19.4635 18.4224 19.4635 18.9431 18.9428C19.4638 18.4221 19.4638 17.5778 18.9431 17.0572L11.8859 9.99996L18.9431 2.94277Z" fill="white"/>
</svg>
