<svg width="27" height="20" viewBox="0 0 27 20" fill="none" xmlns="http://www.w3.org/2000/svg">
<path d="M4.79238 18.0443C4.14415 17.3961 4.14415 16.3451 4.79238 15.6969L19.3155 1.17378C19.9637 0.525552 21.0147 0.525555 21.6629 1.17379C22.3112 1.82202 22.3112 2.87301 21.6629 3.52124L7.13983 18.0443C6.4916 18.6926 5.44061 18.6926 4.79238 18.0443Z" fill="white"/>
<path d="M5.28554 17.6083C4.63731 16.9601 4.63731 15.9091 5.28554 15.2608L17.489 3.05736C18.1373 2.40913 19.1882 2.40913 19.8365 3.05736C20.4847 3.70559 20.4847 4.75658 19.8365 5.40481L7.63299 17.6083C6.98476 18.2565 5.93377 18.2565 5.28554 17.6083Z" fill="white"/>
<rect x="6.14746" y="0.0488281" width="23.7198" height="3.3198" rx="1.6599" transform="rotate(45 6.14746 0.0488281)" fill="white"/>
</svg>
