<svg width="46" height="45" viewBox="0 0 46 45" fill="none" xmlns="http://www.w3.org/2000/svg">
<path d="M21.3265 3.05766C21.8643 1.96813 22.1332 1.42337 22.4983 1.24932C22.8159 1.09788 23.1849 1.09788 23.5025 1.24932C23.8675 1.42337 24.1364 1.96813 24.6742 3.05766L29.7765 13.3942C29.9352 13.7159 30.0146 13.8767 30.1306 14.0016C30.2334 14.1122 30.3566 14.2017 30.4934 14.2654C30.6479 14.3372 30.8254 14.3632 31.1803 14.4151L42.5933 16.0832C43.7951 16.2589 44.3961 16.3467 44.6741 16.6403C44.9161 16.8957 45.0299 17.2466 44.9838 17.5954C44.9309 17.9963 44.4959 18.42 43.6258 19.2675L35.3704 27.3082C35.113 27.5589 34.9844 27.6842 34.9013 27.8333C34.8278 27.9654 34.7806 28.1104 34.7625 28.2604C34.7419 28.4299 34.7723 28.6069 34.833 28.961L36.7809 40.3182C36.9863 41.5161 37.0891 42.115 36.896 42.4704C36.7281 42.7797 36.4295 42.9966 36.0835 43.0607C35.6858 43.1344 35.1479 42.8516 34.0723 42.2859L23.8692 36.9202C23.5513 36.753 23.3924 36.6694 23.2249 36.6366C23.0766 36.6075 22.9241 36.6075 22.7758 36.6366C22.6084 36.6694 22.4494 36.753 22.1315 36.9202L11.9285 42.2859C10.8528 42.8516 10.315 43.1344 9.91726 43.0607C9.57125 42.9966 9.27268 42.7797 9.10471 42.4704C8.91166 42.115 9.01438 41.5161 9.21983 40.3182L11.1677 28.961C11.2285 28.6069 11.2588 28.4299 11.2383 28.2604C11.2201 28.1104 11.1729 27.9654 11.0994 27.8333C11.0164 27.6842 10.8877 27.5589 10.6304 27.3082L2.37496 19.2675C1.50487 18.42 1.06983 17.9963 1.01689 17.5954C0.970826 17.2466 1.08462 16.8957 1.32658 16.6403C1.60467 16.3467 2.20559 16.2589 3.40743 16.0832L14.8204 14.4151C15.1753 14.3632 15.3528 14.3372 15.5073 14.2654C15.6442 14.2017 15.7674 14.1122 15.8701 14.0016C15.9861 13.8767 16.0655 13.7159 16.2243 13.3942L21.3265 3.05766Z" stroke="white" stroke-width="2" stroke-linecap="round" stroke-linejoin="round"/>
</svg>
