<svg width="97" height="8" viewBox="0 0 97 8" fill="none" xmlns="http://www.w3.org/2000/svg">
<path d="M14 1.00001C12.8396 0.998488 11.6902 1.22585 10.6178 1.66907C9.54531 2.1123 8.57079 2.76269 7.75 3.58301C6.92964 4.40418 5.95528 5.0554 4.88278 5.49932C3.81029 5.94325 2.66074 6.17117 1.5 6.17001C0.339469 6.17156 -0.809961 5.94412 -1.88245 5.50071C-2.95493 5.0573 -3.92939 4.40664 -4.75 3.58601C-6.40944 1.93187 -8.65694 1.00302 -11 1.00302C-13.3431 1.00302 -15.5906 1.93187 -17.25 3.58601C-18.9092 5.24064 -21.1568 6.16982 -23.5 6.16982C-25.8432 6.16982 -28.0908 5.24064 -29.75 3.58601C-30.5705 2.76515 -31.5449 2.1142 -32.6174 1.67046C-33.6899 1.22671 -34.8394 0.998882 -36 1.00001" stroke="#FC6F2E" stroke-width="2" stroke-miterlimit="10"/>
<path d="M64 1.00001C62.8396 0.998488 61.6902 1.22585 60.6178 1.66907C59.5453 2.1123 58.5708 2.76269 57.75 3.58301C56.9296 4.40418 55.9553 5.0554 54.8828 5.49932C53.8103 5.94325 52.6607 6.17117 51.5 6.17001C50.3395 6.17156 49.19 5.94412 48.1176 5.50071C47.0451 5.0573 46.0706 4.40664 45.25 3.58601C43.5906 1.93187 41.3431 1.00302 39 1.00302C36.6569 1.00302 34.4094 1.93187 32.75 3.58601C31.0908 5.24064 28.8432 6.16982 26.5 6.16982C24.1568 6.16982 21.9092 5.24064 20.25 3.58601C19.4295 2.76515 18.4551 2.1142 17.3826 1.67046C16.3101 1.22671 15.1606 0.998882 14 1.00001" stroke="#FC6F2E" stroke-width="2" stroke-miterlimit="10"/>
<path d="M114 1.00001C112.84 0.998488 111.69 1.22585 110.618 1.66907C109.545 2.1123 108.571 2.76269 107.75 3.58301C106.93 4.40418 105.955 5.0554 104.883 5.49932C103.81 5.94325 102.661 6.17117 101.5 6.17001C100.339 6.17156 99.19 5.94412 98.1176 5.50071C97.0451 5.0573 96.0706 4.40664 95.25 3.58601C93.5906 1.93187 91.3431 1.00302 89 1.00302C86.6569 1.00302 84.4094 1.93187 82.75 3.58601C81.0908 5.24064 78.8432 6.16982 76.5 6.16982C74.1568 6.16982 71.9092 5.24064 70.25 3.58601C69.4295 2.76515 68.4551 2.1142 67.3826 1.67046C66.3101 1.22671 65.1606 0.998882 64 1.00001" stroke="#FC6F2E" stroke-width="2" stroke-miterlimit="10"/>
</svg>
